<svg xmlns="http://www.w3.org/2000/svg" xmlns:xlink="http://www.w3.org/1999/xlink" width="600" height="400" viewBox="0 0 2400 1600">
<defs>
  <clipPath id="clip380">
    <rect x="0" y="0" width="2400" height="1600"></rect>
  </clipPath>
</defs>
<path clip-path="url(#clip380)" d="
M0 1600 L2400 1600 L2400 0 L0 0  Z
  " fill="#ffffff" fill-rule="evenodd" fill-opacity="1"></path>
<defs>
  <clipPath id="clip381">
    <rect x="480" y="0" width="1681" height="1600"></rect>
  </clipPath>
</defs>
<path clip-path="url(#clip380)" d="
M250.028 1423.18 L2352.76 1423.18 L2352.76 123.472 L250.028 123.472  Z
  " fill="#ffffff" fill-rule="evenodd" fill-opacity="1"></path>
<defs>
  <clipPath id="clip382">
    <rect x="250" y="123" width="2104" height="1301"></rect>
  </clipPath>
</defs>
<polyline clip-path="url(#clip382)" style="stroke:#000000; stroke-linecap:butt; stroke-linejoin:round; stroke-width:2; stroke-opacity:0.1; fill:none" points="
  309.539,1423.18 309.539,123.472 
  "></polyline>
<polyline clip-path="url(#clip382)" style="stroke:#000000; stroke-linecap:butt; stroke-linejoin:round; stroke-width:2; stroke-opacity:0.1; fill:none" points="
  876.312,1423.18 876.312,123.472 
  "></polyline>
<polyline clip-path="url(#clip382)" style="stroke:#000000; stroke-linecap:butt; stroke-linejoin:round; stroke-width:2; stroke-opacity:0.1; fill:none" points="
  1443.09,1423.18 1443.09,123.472 
  "></polyline>
<polyline clip-path="url(#clip382)" style="stroke:#000000; stroke-linecap:butt; stroke-linejoin:round; stroke-width:2; stroke-opacity:0.1; fill:none" points="
  2009.86,1423.18 2009.86,123.472 
  "></polyline>
<polyline clip-path="url(#clip380)" style="stroke:#000000; stroke-linecap:butt; stroke-linejoin:round; stroke-width:4; stroke-opacity:1; fill:none" points="
  250.028,1423.18 2352.76,1423.18 
  "></polyline>
<polyline clip-path="url(#clip380)" style="stroke:#000000; stroke-linecap:butt; stroke-linejoin:round; stroke-width:4; stroke-opacity:1; fill:none" points="
  309.539,1423.18 309.539,1404.28 
  "></polyline>
<polyline clip-path="url(#clip380)" style="stroke:#000000; stroke-linecap:butt; stroke-linejoin:round; stroke-width:4; stroke-opacity:1; fill:none" points="
  876.312,1423.18 876.312,1404.28 
  "></polyline>
<polyline clip-path="url(#clip380)" style="stroke:#000000; stroke-linecap:butt; stroke-linejoin:round; stroke-width:4; stroke-opacity:1; fill:none" points="
  1443.09,1423.18 1443.09,1404.28 
  "></polyline>
<polyline clip-path="url(#clip380)" style="stroke:#000000; stroke-linecap:butt; stroke-linejoin:round; stroke-width:4; stroke-opacity:1; fill:none" points="
  2009.86,1423.18 2009.86,1404.28 
  "></polyline>
<path clip-path="url(#clip380)" d="M287.722 1454.1 Q284.111 1454.1 282.283 1457.66 Q280.477 1461.2 280.477 1468.33 Q280.477 1475.44 282.283 1479.01 Q284.111 1482.55 287.722 1482.55 Q291.357 1482.55 293.162 1479.01 Q294.991 1475.44 294.991 1468.33 Q294.991 1461.2 293.162 1457.66 Q291.357 1454.1 287.722 1454.1 M287.722 1450.39 Q293.532 1450.39 296.588 1455 Q299.667 1459.58 299.667 1468.33 Q299.667 1477.06 296.588 1481.67 Q293.532 1486.25 287.722 1486.25 Q281.912 1486.25 278.833 1481.67 Q275.778 1477.06 275.778 1468.33 Q275.778 1459.58 278.833 1455 Q281.912 1450.39 287.722 1450.39 Z" fill="#000000" fill-rule="evenodd" fill-opacity="1"></path><path clip-path="url(#clip380)" d="M307.884 1479.7 L312.768 1479.7 L312.768 1485.58 L307.884 1485.58 L307.884 1479.7 Z" fill="#000000" fill-rule="evenodd" fill-opacity="1"></path><path clip-path="url(#clip380)" d="M326.981 1481.64 L343.301 1481.64 L343.301 1485.58 L321.356 1485.58 L321.356 1481.64 Q324.018 1478.89 328.602 1474.26 Q333.208 1469.61 334.389 1468.27 Q336.634 1465.74 337.514 1464.01 Q338.416 1462.25 338.416 1460.56 Q338.416 1457.8 336.472 1456.07 Q334.551 1454.33 331.449 1454.33 Q329.25 1454.33 326.796 1455.09 Q324.366 1455.86 321.588 1457.41 L321.588 1452.69 Q324.412 1451.55 326.866 1450.97 Q329.319 1450.39 331.356 1450.39 Q336.727 1450.39 339.921 1453.08 Q343.116 1455.77 343.116 1460.26 Q343.116 1462.39 342.305 1464.31 Q341.518 1466.2 339.412 1468.8 Q338.833 1469.47 335.731 1472.69 Q332.629 1475.88 326.981 1481.64 Z" fill="#000000" fill-rule="evenodd" fill-opacity="1"></path><path clip-path="url(#clip380)" d="M853.454 1454.1 Q849.843 1454.1 848.014 1457.66 Q846.208 1461.2 846.208 1468.33 Q846.208 1475.44 848.014 1479.01 Q849.843 1482.55 853.454 1482.55 Q857.088 1482.55 858.893 1479.01 Q860.722 1475.44 860.722 1468.33 Q860.722 1461.2 858.893 1457.66 Q857.088 1454.1 853.454 1454.1 M853.454 1450.39 Q859.264 1450.39 862.319 1455 Q865.398 1459.58 865.398 1468.33 Q865.398 1477.06 862.319 1481.67 Q859.264 1486.25 853.454 1486.25 Q847.643 1486.25 844.565 1481.67 Q841.509 1477.06 841.509 1468.33 Q841.509 1459.58 844.565 1455 Q847.643 1450.39 853.454 1450.39 Z" fill="#000000" fill-rule="evenodd" fill-opacity="1"></path><path clip-path="url(#clip380)" d="M873.616 1479.7 L878.5 1479.7 L878.5 1485.58 L873.616 1485.58 L873.616 1479.7 Z" fill="#000000" fill-rule="evenodd" fill-opacity="1"></path><path clip-path="url(#clip380)" d="M901.532 1455.09 L889.727 1473.54 L901.532 1473.54 L901.532 1455.09 M900.305 1451.02 L906.185 1451.02 L906.185 1473.54 L911.115 1473.54 L911.115 1477.43 L906.185 1477.43 L906.185 1485.58 L901.532 1485.58 L901.532 1477.43 L885.93 1477.43 L885.93 1472.92 L900.305 1451.02 Z" fill="#000000" fill-rule="evenodd" fill-opacity="1"></path><path clip-path="url(#clip380)" d="M1420.39 1454.1 Q1416.78 1454.1 1414.95 1457.66 Q1413.14 1461.2 1413.14 1468.33 Q1413.14 1475.44 1414.95 1479.01 Q1416.78 1482.55 1420.39 1482.55 Q1424.02 1482.55 1425.83 1479.01 Q1427.66 1475.44 1427.66 1468.33 Q1427.66 1461.2 1425.83 1457.66 Q1424.02 1454.1 1420.39 1454.1 M1420.39 1450.39 Q1426.2 1450.39 1429.25 1455 Q1432.33 1459.58 1432.33 1468.33 Q1432.33 1477.06 1429.25 1481.67 Q1426.2 1486.25 1420.39 1486.25 Q1414.58 1486.25 1411.5 1481.67 Q1408.44 1477.06 1408.44 1468.33 Q1408.44 1459.58 1411.5 1455 Q1414.58 1450.39 1420.39 1450.39 Z" fill="#000000" fill-rule="evenodd" fill-opacity="1"></path><path clip-path="url(#clip380)" d="M1440.55 1479.7 L1445.43 1479.7 L1445.43 1485.58 L1440.55 1485.58 L1440.55 1479.7 Z" fill="#000000" fill-rule="evenodd" fill-opacity="1"></path><path clip-path="url(#clip380)" d="M1466.2 1466.44 Q1463.05 1466.44 1461.2 1468.59 Q1459.37 1470.74 1459.37 1474.49 Q1459.37 1478.22 1461.2 1480.39 Q1463.05 1482.55 1466.2 1482.55 Q1469.35 1482.55 1471.18 1480.39 Q1473.03 1478.22 1473.03 1474.49 Q1473.03 1470.74 1471.18 1468.59 Q1469.35 1466.44 1466.2 1466.44 M1475.48 1451.78 L1475.48 1456.04 Q1473.72 1455.21 1471.92 1454.77 Q1470.13 1454.33 1468.37 1454.33 Q1463.74 1454.33 1461.29 1457.45 Q1458.86 1460.58 1458.51 1466.9 Q1459.88 1464.89 1461.94 1463.82 Q1464 1462.73 1466.48 1462.73 Q1471.68 1462.73 1474.69 1465.9 Q1477.73 1469.05 1477.73 1474.49 Q1477.73 1479.82 1474.58 1483.03 Q1471.43 1486.25 1466.2 1486.25 Q1460.2 1486.25 1457.03 1481.67 Q1453.86 1477.06 1453.86 1468.33 Q1453.86 1460.14 1457.75 1455.28 Q1461.64 1450.39 1468.19 1450.39 Q1469.95 1450.39 1471.73 1450.74 Q1473.54 1451.09 1475.48 1451.78 Z" fill="#000000" fill-rule="evenodd" fill-opacity="1"></path><path clip-path="url(#clip380)" d="M1987.29 1454.1 Q1983.68 1454.1 1981.85 1457.66 Q1980.04 1461.2 1980.04 1468.33 Q1980.04 1475.44 1981.85 1479.01 Q1983.68 1482.55 1987.29 1482.55 Q1990.92 1482.55 1992.73 1479.01 Q1994.56 1475.44 1994.56 1468.33 Q1994.56 1461.2 1992.73 1457.66 Q1990.92 1454.1 1987.29 1454.1 M1987.29 1450.39 Q1993.1 1450.39 1996.15 1455 Q1999.23 1459.58 1999.23 1468.33 Q1999.23 1477.06 1996.15 1481.67 Q1993.1 1486.25 1987.29 1486.25 Q1981.48 1486.25 1978.4 1481.67 Q1975.34 1477.06 1975.34 1468.33 Q1975.34 1459.58 1978.4 1455 Q1981.48 1450.39 1987.29 1450.39 Z" fill="#000000" fill-rule="evenodd" fill-opacity="1"></path><path clip-path="url(#clip380)" d="M2007.45 1479.7 L2012.34 1479.7 L2012.34 1485.58 L2007.45 1485.58 L2007.45 1479.7 Z" fill="#000000" fill-rule="evenodd" fill-opacity="1"></path><path clip-path="url(#clip380)" d="M2032.52 1469.17 Q2029.19 1469.17 2027.27 1470.95 Q2025.37 1472.73 2025.37 1475.86 Q2025.37 1478.98 2027.27 1480.77 Q2029.19 1482.55 2032.52 1482.55 Q2035.85 1482.55 2037.77 1480.77 Q2039.7 1478.96 2039.7 1475.86 Q2039.7 1472.73 2037.77 1470.95 Q2035.88 1469.17 2032.52 1469.17 M2027.84 1467.18 Q2024.84 1466.44 2023.15 1464.38 Q2021.48 1462.32 2021.48 1459.35 Q2021.48 1455.21 2024.42 1452.8 Q2027.38 1450.39 2032.52 1450.39 Q2037.68 1450.39 2040.62 1452.8 Q2043.56 1455.21 2043.56 1459.35 Q2043.56 1462.32 2041.87 1464.38 Q2040.21 1466.44 2037.22 1467.18 Q2040.6 1467.96 2042.47 1470.26 Q2044.37 1472.55 2044.37 1475.86 Q2044.37 1480.88 2041.29 1483.57 Q2038.24 1486.25 2032.52 1486.25 Q2026.8 1486.25 2023.72 1483.57 Q2020.67 1480.88 2020.67 1475.86 Q2020.67 1472.55 2022.57 1470.26 Q2024.46 1467.96 2027.84 1467.18 M2026.13 1459.79 Q2026.13 1462.48 2027.8 1463.98 Q2029.49 1465.49 2032.52 1465.49 Q2035.53 1465.49 2037.22 1463.98 Q2038.93 1462.48 2038.93 1459.79 Q2038.93 1457.11 2037.22 1455.6 Q2035.53 1454.1 2032.52 1454.1 Q2029.49 1454.1 2027.8 1455.6 Q2026.13 1457.11 2026.13 1459.79 Z" fill="#000000" fill-rule="evenodd" fill-opacity="1"></path><path clip-path="url(#clip380)" d="M1302.28 1524.09 L1318.74 1568.04 L1312.53 1568.04 L1302.54 1541.69 L1290.25 1568.04 L1284.05 1568.04 L1299.67 1533.86 L1297.32 1527.56 Q1295.82 1523.55 1292.42 1523.55 L1289.36 1523.55 L1289.36 1518.52 L1293.08 1518.58 Q1300.28 1518.68 1302.28 1524.09 Z" fill="#000000" fill-rule="evenodd" fill-opacity="1"></path><polyline clip-path="url(#clip382)" style="stroke:#000000; stroke-linecap:butt; stroke-linejoin:round; stroke-width:2; stroke-opacity:0.1; fill:none" points="
  250.028,1364.03 2352.76,1364.03 
  "></polyline>
<polyline clip-path="url(#clip382)" style="stroke:#000000; stroke-linecap:butt; stroke-linejoin:round; stroke-width:2; stroke-opacity:0.1; fill:none" points="
  250.028,1091.52 2352.76,1091.52 
  "></polyline>
<polyline clip-path="url(#clip382)" style="stroke:#000000; stroke-linecap:butt; stroke-linejoin:round; stroke-width:2; stroke-opacity:0.1; fill:none" points="
  250.028,819.004 2352.76,819.004 
  "></polyline>
<polyline clip-path="url(#clip382)" style="stroke:#000000; stroke-linecap:butt; stroke-linejoin:round; stroke-width:2; stroke-opacity:0.1; fill:none" points="
  250.028,546.489 2352.76,546.489 
  "></polyline>
<polyline clip-path="url(#clip382)" style="stroke:#000000; stroke-linecap:butt; stroke-linejoin:round; stroke-width:2; stroke-opacity:0.1; fill:none" points="
  250.028,273.975 2352.76,273.975 
  "></polyline>
<polyline clip-path="url(#clip380)" style="stroke:#000000; stroke-linecap:butt; stroke-linejoin:round; stroke-width:4; stroke-opacity:1; fill:none" points="
  250.028,1423.18 250.028,123.472 
  "></polyline>
<polyline clip-path="url(#clip380)" style="stroke:#000000; stroke-linecap:butt; stroke-linejoin:round; stroke-width:4; stroke-opacity:1; fill:none" points="
  250.028,1364.03 268.926,1364.03 
  "></polyline>
<polyline clip-path="url(#clip380)" style="stroke:#000000; stroke-linecap:butt; stroke-linejoin:round; stroke-width:4; stroke-opacity:1; fill:none" points="
  250.028,1091.52 268.926,1091.52 
  "></polyline>
<polyline clip-path="url(#clip380)" style="stroke:#000000; stroke-linecap:butt; stroke-linejoin:round; stroke-width:4; stroke-opacity:1; fill:none" points="
  250.028,819.004 268.926,819.004 
  "></polyline>
<polyline clip-path="url(#clip380)" style="stroke:#000000; stroke-linecap:butt; stroke-linejoin:round; stroke-width:4; stroke-opacity:1; fill:none" points="
  250.028,546.489 268.926,546.489 
  "></polyline>
<polyline clip-path="url(#clip380)" style="stroke:#000000; stroke-linecap:butt; stroke-linejoin:round; stroke-width:4; stroke-opacity:1; fill:none" points="
  250.028,273.975 268.926,273.975 
  "></polyline>
<path clip-path="url(#clip380)" d="M126.691 1349.83 Q123.08 1349.83 121.251 1353.4 Q119.445 1356.94 119.445 1364.07 Q119.445 1371.17 121.251 1374.74 Q123.08 1378.28 126.691 1378.28 Q130.325 1378.28 132.13 1374.74 Q133.959 1371.17 133.959 1364.07 Q133.959 1356.94 132.13 1353.4 Q130.325 1349.83 126.691 1349.83 M126.691 1346.13 Q132.501 1346.13 135.556 1350.73 Q138.635 1355.32 138.635 1364.07 Q138.635 1372.79 135.556 1377.4 Q132.501 1381.98 126.691 1381.98 Q120.88 1381.98 117.802 1377.4 Q114.746 1372.79 114.746 1364.07 Q114.746 1355.32 117.802 1350.73 Q120.88 1346.13 126.691 1346.13 Z" fill="#000000" fill-rule="evenodd" fill-opacity="1"></path><path clip-path="url(#clip380)" d="M146.853 1375.43 L151.737 1375.43 L151.737 1381.31 L146.853 1381.31 L146.853 1375.43 Z" fill="#000000" fill-rule="evenodd" fill-opacity="1"></path><path clip-path="url(#clip380)" d="M161.968 1346.75 L180.325 1346.75 L180.325 1350.69 L166.251 1350.69 L166.251 1359.16 Q167.269 1358.81 168.288 1358.65 Q169.306 1358.47 170.325 1358.47 Q176.112 1358.47 179.491 1361.64 Q182.871 1364.81 182.871 1370.23 Q182.871 1375.8 179.399 1378.91 Q175.926 1381.98 169.607 1381.98 Q167.431 1381.98 165.163 1381.61 Q162.917 1381.24 160.51 1380.5 L160.51 1375.8 Q162.593 1376.94 164.815 1377.49 Q167.038 1378.05 169.514 1378.05 Q173.519 1378.05 175.857 1375.94 Q178.195 1373.84 178.195 1370.23 Q178.195 1366.61 175.857 1364.51 Q173.519 1362.4 169.514 1362.4 Q167.64 1362.4 165.765 1362.82 Q163.913 1363.23 161.968 1364.11 L161.968 1346.75 Z" fill="#000000" fill-rule="evenodd" fill-opacity="1"></path><path clip-path="url(#clip380)" d="M202.084 1349.83 Q198.473 1349.83 196.644 1353.4 Q194.838 1356.94 194.838 1364.07 Q194.838 1371.17 196.644 1374.74 Q198.473 1378.28 202.084 1378.28 Q205.718 1378.28 207.524 1374.74 Q209.352 1371.17 209.352 1364.07 Q209.352 1356.94 207.524 1353.4 Q205.718 1349.83 202.084 1349.83 M202.084 1346.13 Q207.894 1346.13 210.949 1350.73 Q214.028 1355.32 214.028 1364.07 Q214.028 1372.79 210.949 1377.4 Q207.894 1381.98 202.084 1381.98 Q196.274 1381.98 193.195 1377.4 Q190.139 1372.79 190.139 1364.07 Q190.139 1355.32 193.195 1350.73 Q196.274 1346.13 202.084 1346.13 Z" fill="#000000" fill-rule="evenodd" fill-opacity="1"></path><path clip-path="url(#clip380)" d="M127.917 1077.32 Q124.306 1077.32 122.478 1080.88 Q120.672 1084.42 120.672 1091.55 Q120.672 1098.66 122.478 1102.22 Q124.306 1105.77 127.917 1105.77 Q131.552 1105.77 133.357 1102.22 Q135.186 1098.66 135.186 1091.55 Q135.186 1084.42 133.357 1080.88 Q131.552 1077.32 127.917 1077.32 M127.917 1073.61 Q133.728 1073.61 136.783 1078.22 Q139.862 1082.8 139.862 1091.55 Q139.862 1100.28 136.783 1104.89 Q133.728 1109.47 127.917 1109.47 Q122.107 1109.47 119.029 1104.89 Q115.973 1100.28 115.973 1091.55 Q115.973 1082.8 119.029 1078.22 Q122.107 1073.61 127.917 1073.61 Z" fill="#000000" fill-rule="evenodd" fill-opacity="1"></path><path clip-path="url(#clip380)" d="M148.079 1102.92 L152.964 1102.92 L152.964 1108.8 L148.079 1108.8 L148.079 1102.92 Z" fill="#000000" fill-rule="evenodd" fill-opacity="1"></path><path clip-path="url(#clip380)" d="M163.195 1074.24 L181.551 1074.24 L181.551 1078.17 L167.477 1078.17 L167.477 1086.65 Q168.496 1086.3 169.514 1086.14 Q170.533 1085.95 171.552 1085.95 Q177.339 1085.95 180.718 1089.12 Q184.098 1092.29 184.098 1097.71 Q184.098 1103.29 180.626 1106.39 Q177.153 1109.47 170.834 1109.47 Q168.658 1109.47 166.39 1109.1 Q164.144 1108.73 161.737 1107.99 L161.737 1103.29 Q163.82 1104.42 166.042 1104.98 Q168.264 1105.53 170.741 1105.53 Q174.746 1105.53 177.084 1103.43 Q179.422 1101.32 179.422 1097.71 Q179.422 1094.1 177.084 1091.99 Q174.746 1089.89 170.741 1089.89 Q168.866 1089.89 166.991 1090.3 Q165.14 1090.72 163.195 1091.6 L163.195 1074.24 Z" fill="#000000" fill-rule="evenodd" fill-opacity="1"></path><path clip-path="url(#clip380)" d="M194.121 1104.86 L201.76 1104.86 L201.76 1078.5 L193.45 1080.16 L193.45 1075.91 L201.713 1074.24 L206.389 1074.24 L206.389 1104.86 L214.028 1104.86 L214.028 1108.8 L194.121 1108.8 L194.121 1104.86 Z" fill="#000000" fill-rule="evenodd" fill-opacity="1"></path><path clip-path="url(#clip380)" d="M128.288 804.803 Q124.677 804.803 122.848 808.367 Q121.043 811.909 121.043 819.039 Q121.043 826.145 122.848 829.71 Q124.677 833.252 128.288 833.252 Q131.922 833.252 133.728 829.71 Q135.556 826.145 135.556 819.039 Q135.556 811.909 133.728 808.367 Q131.922 804.803 128.288 804.803 M128.288 801.099 Q134.098 801.099 137.154 805.705 Q140.232 810.289 140.232 819.039 Q140.232 827.766 137.154 832.372 Q134.098 836.955 128.288 836.955 Q122.478 836.955 119.399 832.372 Q116.343 827.766 116.343 819.039 Q116.343 810.289 119.399 805.705 Q122.478 801.099 128.288 801.099 Z" fill="#000000" fill-rule="evenodd" fill-opacity="1"></path><path clip-path="url(#clip380)" d="M148.45 830.404 L153.334 830.404 L153.334 836.284 L148.45 836.284 L148.45 830.404 Z" fill="#000000" fill-rule="evenodd" fill-opacity="1"></path><path clip-path="url(#clip380)" d="M163.565 801.724 L181.922 801.724 L181.922 805.659 L167.848 805.659 L167.848 814.131 Q168.866 813.784 169.885 813.622 Q170.903 813.437 171.922 813.437 Q177.709 813.437 181.089 816.608 Q184.468 819.779 184.468 825.196 Q184.468 830.775 180.996 833.877 Q177.524 836.955 171.204 836.955 Q169.028 836.955 166.76 836.585 Q164.515 836.215 162.107 835.474 L162.107 830.775 Q164.19 831.909 166.413 832.465 Q168.635 833.02 171.112 833.02 Q175.116 833.02 177.454 830.914 Q179.792 828.807 179.792 825.196 Q179.792 821.585 177.454 819.479 Q175.116 817.372 171.112 817.372 Q169.237 817.372 167.362 817.789 Q165.51 818.205 163.565 819.085 L163.565 801.724 Z" fill="#000000" fill-rule="evenodd" fill-opacity="1"></path><path clip-path="url(#clip380)" d="M197.709 832.349 L214.028 832.349 L214.028 836.284 L192.084 836.284 L192.084 832.349 Q194.746 829.594 199.329 824.965 Q203.936 820.312 205.116 818.969 Q207.362 816.446 208.241 814.71 Q209.144 812.951 209.144 811.261 Q209.144 808.506 207.199 806.77 Q205.278 805.034 202.176 805.034 Q199.977 805.034 197.524 805.798 Q195.093 806.562 192.315 808.113 L192.315 803.391 Q195.139 802.256 197.593 801.678 Q200.047 801.099 202.084 801.099 Q207.454 801.099 210.649 803.784 Q213.843 806.469 213.843 810.96 Q213.843 813.09 213.033 815.011 Q212.246 816.909 210.139 819.502 Q209.561 820.173 206.459 823.391 Q203.357 826.585 197.709 832.349 Z" fill="#000000" fill-rule="evenodd" fill-opacity="1"></path><path clip-path="url(#clip380)" d="M127.339 532.288 Q123.728 532.288 121.899 535.853 Q120.093 539.395 120.093 546.524 Q120.093 553.631 121.899 557.195 Q123.728 560.737 127.339 560.737 Q130.973 560.737 132.779 557.195 Q134.607 553.631 134.607 546.524 Q134.607 539.395 132.779 535.853 Q130.973 532.288 127.339 532.288 M127.339 528.584 Q133.149 528.584 136.204 533.191 Q139.283 537.774 139.283 546.524 Q139.283 555.251 136.204 559.857 Q133.149 564.441 127.339 564.441 Q121.529 564.441 118.45 559.857 Q115.394 555.251 115.394 546.524 Q115.394 537.774 118.45 533.191 Q121.529 528.584 127.339 528.584 Z" fill="#000000" fill-rule="evenodd" fill-opacity="1"></path><path clip-path="url(#clip380)" d="M147.501 557.89 L152.385 557.89 L152.385 563.769 L147.501 563.769 L147.501 557.89 Z" fill="#000000" fill-rule="evenodd" fill-opacity="1"></path><path clip-path="url(#clip380)" d="M162.616 529.209 L180.973 529.209 L180.973 533.145 L166.899 533.145 L166.899 541.617 Q167.917 541.27 168.936 541.107 Q169.954 540.922 170.973 540.922 Q176.76 540.922 180.139 544.094 Q183.519 547.265 183.519 552.681 Q183.519 558.26 180.047 561.362 Q176.575 564.441 170.255 564.441 Q168.079 564.441 165.811 564.07 Q163.565 563.7 161.158 562.959 L161.158 558.26 Q163.241 559.394 165.464 559.95 Q167.686 560.506 170.163 560.506 Q174.167 560.506 176.505 558.399 Q178.843 556.293 178.843 552.681 Q178.843 549.07 176.505 546.964 Q174.167 544.857 170.163 544.857 Q168.288 544.857 166.413 545.274 Q164.561 545.691 162.616 546.57 L162.616 529.209 Z" fill="#000000" fill-rule="evenodd" fill-opacity="1"></path><path clip-path="url(#clip380)" d="M206.899 545.135 Q210.255 545.853 212.13 548.121 Q214.028 550.39 214.028 553.723 Q214.028 558.839 210.51 561.64 Q206.991 564.441 200.51 564.441 Q198.334 564.441 196.019 564.001 Q193.727 563.584 191.274 562.728 L191.274 558.214 Q193.218 559.348 195.533 559.927 Q197.848 560.506 200.371 560.506 Q204.769 560.506 207.061 558.769 Q209.375 557.033 209.375 553.723 Q209.375 550.668 207.223 548.955 Q205.093 547.219 201.274 547.219 L197.246 547.219 L197.246 543.376 L201.459 543.376 Q204.908 543.376 206.737 542.01 Q208.565 540.621 208.565 538.029 Q208.565 535.367 206.667 533.955 Q204.792 532.52 201.274 532.52 Q199.352 532.52 197.153 532.936 Q194.954 533.353 192.315 534.233 L192.315 530.066 Q194.977 529.325 197.292 528.955 Q199.63 528.584 201.69 528.584 Q207.014 528.584 210.116 531.015 Q213.218 533.422 213.218 537.543 Q213.218 540.413 211.574 542.404 Q209.931 544.371 206.899 545.135 Z" fill="#000000" fill-rule="evenodd" fill-opacity="1"></path><path clip-path="url(#clip380)" d="M126.205 259.773 Q122.593 259.773 120.765 263.338 Q118.959 266.88 118.959 274.009 Q118.959 281.116 120.765 284.681 Q122.593 288.222 126.205 288.222 Q129.839 288.222 131.644 284.681 Q133.473 281.116 133.473 274.009 Q133.473 266.88 131.644 263.338 Q129.839 259.773 126.205 259.773 M126.205 256.07 Q132.015 256.07 135.07 260.676 Q138.149 265.26 138.149 274.009 Q138.149 282.736 135.07 287.343 Q132.015 291.926 126.205 291.926 Q120.394 291.926 117.316 287.343 Q114.26 282.736 114.26 274.009 Q114.26 265.26 117.316 260.676 Q120.394 256.07 126.205 256.07 Z" fill="#000000" fill-rule="evenodd" fill-opacity="1"></path><path clip-path="url(#clip380)" d="M146.366 285.375 L151.251 285.375 L151.251 291.255 L146.366 291.255 L146.366 285.375 Z" fill="#000000" fill-rule="evenodd" fill-opacity="1"></path><path clip-path="url(#clip380)" d="M161.482 256.695 L179.839 256.695 L179.839 260.63 L165.765 260.63 L165.765 269.102 Q166.783 268.755 167.802 268.593 Q168.82 268.408 169.839 268.408 Q175.626 268.408 179.005 271.579 Q182.385 274.75 182.385 280.167 Q182.385 285.746 178.913 288.847 Q175.44 291.926 169.121 291.926 Q166.945 291.926 164.677 291.556 Q162.431 291.185 160.024 290.445 L160.024 285.746 Q162.107 286.88 164.329 287.435 Q166.552 287.991 169.028 287.991 Q173.033 287.991 175.371 285.884 Q177.709 283.778 177.709 280.167 Q177.709 276.556 175.371 274.449 Q173.033 272.343 169.028 272.343 Q167.153 272.343 165.278 272.76 Q163.427 273.176 161.482 274.056 L161.482 256.695 Z" fill="#000000" fill-rule="evenodd" fill-opacity="1"></path><path clip-path="url(#clip380)" d="M204.445 260.769 L192.639 279.218 L204.445 279.218 L204.445 260.769 M203.218 256.695 L209.098 256.695 L209.098 279.218 L214.028 279.218 L214.028 283.107 L209.098 283.107 L209.098 291.255 L204.445 291.255 L204.445 283.107 L188.843 283.107 L188.843 278.593 L203.218 256.695 Z" fill="#000000" fill-rule="evenodd" fill-opacity="1"></path><path clip-path="url(#clip380)" d="M18.0438 1094.51 L24.314 1094.51 Q22.5634 1098.17 21.704 1101.41 Q20.8447 1104.66 20.8447 1107.68 Q20.8447 1112.94 22.8817 1115.8 Q24.9187 1118.63 28.6745 1118.63 Q31.8255 1118.63 33.4488 1116.76 Q35.0402 1114.85 36.0269 1109.56 L36.8226 1105.68 Q38.1912 1098.49 41.6605 1095.08 Q45.098 1091.64 50.8908 1091.64 Q57.7976 1091.64 61.3624 1096.29 Q64.9272 1100.91 64.9272 1109.85 Q64.9272 1113.22 64.1633 1117.04 Q63.3994 1120.83 61.9035 1124.9 L55.2831 1124.9 Q57.4793 1120.99 58.5933 1117.23 Q59.7073 1113.48 59.7073 1109.85 Q59.7073 1104.34 57.543 1101.35 Q55.3786 1098.36 51.3682 1098.36 Q47.8671 1098.36 45.8937 1100.52 Q43.9204 1102.66 42.9337 1107.56 L42.1698 1111.47 Q40.7375 1118.67 37.682 1121.88 Q34.6264 1125.09 29.1837 1125.09 Q22.8817 1125.09 19.2532 1120.67 Q15.6248 1116.21 15.6248 1108.42 Q15.6248 1105.07 16.2295 1101.61 Q16.8343 1098.14 18.0438 1094.51 Z" fill="#000000" fill-rule="evenodd" fill-opacity="1"></path><path clip-path="url(#clip380)" d="M58.657 1076.21 L77.5631 1076.21 L77.5631 1082.09 L28.3562 1082.09 L28.3562 1076.21 L33.7671 1076.21 Q30.5842 1074.36 29.0564 1071.56 Q27.4968 1068.73 27.4968 1064.81 Q27.4968 1058.32 32.6531 1054.28 Q37.8093 1050.2 46.212 1050.2 Q54.6147 1050.2 59.771 1054.28 Q64.9272 1058.32 64.9272 1064.81 Q64.9272 1068.73 63.3994 1071.56 Q61.8398 1074.36 58.657 1076.21 M46.212 1056.28 Q39.7508 1056.28 36.0905 1058.96 Q32.3984 1061.6 32.3984 1066.24 Q32.3984 1070.89 36.0905 1073.56 Q39.7508 1076.21 46.212 1076.21 Q52.6732 1076.21 56.3653 1073.56 Q60.0256 1070.89 60.0256 1066.24 Q60.0256 1061.6 56.3653 1058.96 Q52.6732 1056.28 46.212 1056.28 Z" fill="#000000" fill-rule="evenodd" fill-opacity="1"></path><path clip-path="url(#clip380)" d="M44.7161 1010 L47.5806 1010 L47.5806 1036.93 Q53.6281 1036.55 56.8109 1033.3 Q59.9619 1030.02 59.9619 1024.2 Q59.9619 1020.82 59.1344 1017.67 Q58.3069 1014.49 56.6518 1011.37 L62.1899 1011.37 Q63.5267 1014.52 64.227 1017.83 Q64.9272 1021.14 64.9272 1024.55 Q64.9272 1033.08 59.9619 1038.08 Q54.9967 1043.04 46.5303 1043.04 Q37.7774 1043.04 32.6531 1038.33 Q27.4968 1033.59 27.4968 1025.57 Q27.4968 1018.37 32.1438 1014.2 Q36.7589 1010 44.7161 1010 M42.9973 1015.86 Q38.1912 1015.92 35.3266 1018.56 Q32.4621 1021.17 32.4621 1025.5 Q32.4621 1030.41 35.2312 1033.37 Q38.0002 1036.29 43.0292 1036.74 L42.9973 1015.86 Z" fill="#000000" fill-rule="evenodd" fill-opacity="1"></path><path clip-path="url(#clip380)" d="M46.0847 984.19 Q46.0847 991.288 47.7079 994.025 Q49.3312 996.762 53.2461 996.762 Q56.3653 996.762 58.2114 994.725 Q60.0256 992.656 60.0256 989.123 Q60.0256 984.254 56.5881 981.325 Q53.1188 978.365 47.3897 978.365 L46.0847 978.365 L46.0847 984.19 M43.6657 972.509 L64.0042 972.509 L64.0042 978.365 L58.5933 978.365 Q61.8398 980.371 63.3994 983.362 Q64.9272 986.354 64.9272 990.683 Q64.9272 996.158 61.8716 999.404 Q58.7843 1002.62 53.6281 1002.62 Q47.6125 1002.62 44.5569 998.608 Q41.5014 994.566 41.5014 986.577 L41.5014 978.365 L40.9285 978.365 Q36.8862 978.365 34.6901 981.039 Q32.4621 983.681 32.4621 988.487 Q32.4621 991.542 33.1941 994.439 Q33.9262 997.335 35.3903 1000.01 L29.9795 1000.01 Q28.7381 996.794 28.1334 993.77 Q27.4968 990.747 27.4968 987.882 Q27.4968 980.148 31.5072 976.328 Q35.5176 972.509 43.6657 972.509 Z" fill="#000000" fill-rule="evenodd" fill-opacity="1"></path><path clip-path="url(#clip380)" d="M33.8307 939.789 Q33.2578 940.776 33.0032 941.954 Q32.7167 943.099 32.7167 944.5 Q32.7167 949.465 35.9632 952.139 Q39.1779 954.78 45.2253 954.78 L64.0042 954.78 L64.0042 960.669 L28.3562 960.669 L28.3562 954.78 L33.8944 954.78 Q30.6479 952.934 29.0883 949.974 Q27.4968 947.014 27.4968 942.781 Q27.4968 942.176 27.5923 941.444 Q27.656 940.712 27.8151 939.821 L33.8307 939.789 Z" fill="#000000" fill-rule="evenodd" fill-opacity="1"></path><path clip-path="url(#clip380)" d="M35.1993 907.038 Q31.2526 904.841 29.3747 901.786 Q27.4968 898.73 27.4968 894.593 Q27.4968 889.023 31.4117 885.999 Q35.2948 882.975 42.4881 882.975 L64.0042 882.975 L64.0042 888.864 L42.679 888.864 Q37.5546 888.864 35.072 890.678 Q32.5894 892.492 32.5894 896.216 Q32.5894 900.767 35.6131 903.409 Q38.6368 906.051 43.8567 906.051 L64.0042 906.051 L64.0042 911.939 L42.679 911.939 Q37.5228 911.939 35.072 913.753 Q32.5894 915.568 32.5894 919.355 Q32.5894 923.843 35.6449 926.485 Q38.6686 929.127 43.8567 929.127 L64.0042 929.127 L64.0042 935.015 L28.3562 935.015 L28.3562 929.127 L33.8944 929.127 Q30.616 927.121 29.0564 924.321 Q27.4968 921.52 27.4968 917.668 Q27.4968 913.785 29.4702 911.08 Q31.4436 908.343 35.1993 907.038 Z" fill="#000000" fill-rule="evenodd" fill-opacity="1"></path><path clip-path="url(#clip380)" d="M46.0847 855.093 Q46.0847 862.191 47.7079 864.929 Q49.3312 867.666 53.2461 867.666 Q56.3653 867.666 58.2114 865.629 Q60.0256 863.56 60.0256 860.027 Q60.0256 855.157 56.5881 852.229 Q53.1188 849.269 47.3897 849.269 L46.0847 849.269 L46.0847 855.093 M43.6657 843.412 L64.0042 843.412 L64.0042 849.269 L58.5933 849.269 Q61.8398 851.274 63.3994 854.266 Q64.9272 857.258 64.9272 861.587 Q64.9272 867.061 61.8716 870.308 Q58.7843 873.522 53.6281 873.522 Q47.6125 873.522 44.5569 869.512 Q41.5014 865.47 41.5014 857.481 L41.5014 849.269 L40.9285 849.269 Q36.8862 849.269 34.6901 851.942 Q32.4621 854.584 32.4621 859.39 Q32.4621 862.446 33.1941 865.342 Q33.9262 868.239 35.3903 870.912 L29.9795 870.912 Q28.7381 867.698 28.1334 864.674 Q27.4968 861.65 27.4968 858.786 Q27.4968 851.051 31.5072 847.232 Q35.5176 843.412 43.6657 843.412 Z" fill="#000000" fill-rule="evenodd" fill-opacity="1"></path><path clip-path="url(#clip380)" d="M42.4881 801.717 L64.0042 801.717 L64.0042 807.573 L42.679 807.573 Q37.6183 807.573 35.1038 809.547 Q32.5894 811.52 32.5894 815.467 Q32.5894 820.209 35.6131 822.947 Q38.6368 825.684 43.8567 825.684 L64.0042 825.684 L64.0042 831.572 L28.3562 831.572 L28.3562 825.684 L33.8944 825.684 Q30.6797 823.583 29.0883 820.75 Q27.4968 817.886 27.4968 814.162 Q27.4968 808.019 31.3163 804.868 Q35.1038 801.717 42.4881 801.717 Z" fill="#000000" fill-rule="evenodd" fill-opacity="1"></path><path clip-path="url(#clip380)" d="M20.1444 733.477 L26.9239 733.477 Q23.9002 736.723 22.4043 740.415 Q20.9083 744.076 20.9083 748.213 Q20.9083 756.361 25.9054 760.69 Q30.8707 765.019 40.2919 765.019 Q49.6813 765.019 54.6784 760.69 Q59.6436 756.361 59.6436 748.213 Q59.6436 744.076 58.1477 740.415 Q56.6518 736.723 53.6281 733.477 L60.3439 733.477 Q62.6355 736.85 63.7814 740.638 Q64.9272 744.394 64.9272 748.595 Q64.9272 759.385 58.3387 765.592 Q51.7183 771.798 40.2919 771.798 Q28.8336 771.798 22.2451 765.592 Q15.6248 759.385 15.6248 748.595 Q15.6248 744.33 16.7706 740.574 Q17.8846 736.787 20.1444 733.477 Z" fill="#000000" fill-rule="evenodd" fill-opacity="1"></path><path clip-path="url(#clip380)" d="M32.4621 709.987 Q32.4621 714.698 36.1542 717.435 Q39.8145 720.172 46.212 720.172 Q52.6095 720.172 56.3017 717.467 Q59.9619 714.73 59.9619 709.987 Q59.9619 705.308 56.2698 702.571 Q52.5777 699.834 46.212 699.834 Q39.8781 699.834 36.186 702.571 Q32.4621 705.308 32.4621 709.987 M27.4968 709.987 Q27.4968 702.348 32.4621 697.988 Q37.4273 693.627 46.212 693.627 Q54.9649 693.627 59.9619 697.988 Q64.9272 702.348 64.9272 709.987 Q64.9272 717.658 59.9619 722.018 Q54.9649 726.347 46.212 726.347 Q37.4273 726.347 32.4621 722.018 Q27.4968 717.658 27.4968 709.987 Z" fill="#000000" fill-rule="evenodd" fill-opacity="1"></path><path clip-path="url(#clip380)" d="M33.8307 663.263 Q33.2578 664.25 33.0032 665.427 Q32.7167 666.573 32.7167 667.974 Q32.7167 672.939 35.9632 675.612 Q39.1779 678.254 45.2253 678.254 L64.0042 678.254 L64.0042 684.142 L28.3562 684.142 L28.3562 678.254 L33.8944 678.254 Q30.6479 676.408 29.0883 673.448 Q27.4968 670.488 27.4968 666.255 Q27.4968 665.65 27.5923 664.918 Q27.656 664.186 27.8151 663.295 L33.8307 663.263 Z" fill="#000000" fill-rule="evenodd" fill-opacity="1"></path><path clip-path="url(#clip380)" d="M33.8307 637.609 Q33.2578 638.596 33.0032 639.773 Q32.7167 640.919 32.7167 642.32 Q32.7167 647.285 35.9632 649.959 Q39.1779 652.6 45.2253 652.6 L64.0042 652.6 L64.0042 658.489 L28.3562 658.489 L28.3562 652.6 L33.8944 652.6 Q30.6479 650.754 29.0883 647.794 Q27.4968 644.834 27.4968 640.601 Q27.4968 639.996 27.5923 639.264 Q27.656 638.532 27.8151 637.641 L33.8307 637.609 Z" fill="#000000" fill-rule="evenodd" fill-opacity="1"></path><path clip-path="url(#clip380)" d="M44.7161 602.407 L47.5806 602.407 L47.5806 629.334 Q53.6281 628.952 56.8109 625.705 Q59.9619 622.427 59.9619 616.602 Q59.9619 613.228 59.1344 610.077 Q58.3069 606.895 56.6518 603.775 L62.1899 603.775 Q63.5267 606.926 64.227 610.237 Q64.9272 613.547 64.9272 616.952 Q64.9272 625.482 59.9619 630.48 Q54.9967 635.445 46.5303 635.445 Q37.7774 635.445 32.6531 630.734 Q27.4968 625.992 27.4968 617.971 Q27.4968 610.778 32.1438 606.608 Q36.7589 602.407 44.7161 602.407 M42.9973 608.263 Q38.1912 608.327 35.3266 610.969 Q32.4621 613.579 32.4621 617.907 Q32.4621 622.809 35.2312 625.769 Q38.0002 628.697 43.0292 629.143 L42.9973 608.263 Z" fill="#000000" fill-rule="evenodd" fill-opacity="1"></path><path clip-path="url(#clip380)" d="M14.479 592.795 L14.479 586.938 L64.0042 586.938 L64.0042 592.795 L14.479 592.795 Z" fill="#000000" fill-rule="evenodd" fill-opacity="1"></path><path clip-path="url(#clip380)" d="M46.0847 558.483 Q46.0847 565.581 47.7079 568.318 Q49.3312 571.056 53.2461 571.056 Q56.3653 571.056 58.2114 569.019 Q60.0256 566.95 60.0256 563.417 Q60.0256 558.547 56.5881 555.619 Q53.1188 552.659 47.3897 552.659 L46.0847 552.659 L46.0847 558.483 M43.6657 546.802 L64.0042 546.802 L64.0042 552.659 L58.5933 552.659 Q61.8398 554.664 63.3994 557.656 Q64.9272 560.648 64.9272 564.976 Q64.9272 570.451 61.8716 573.697 Q58.7843 576.912 53.6281 576.912 Q47.6125 576.912 44.5569 572.902 Q41.5014 568.859 41.5014 560.871 L41.5014 552.659 L40.9285 552.659 Q36.8862 552.659 34.6901 555.332 Q32.4621 557.974 32.4621 562.78 Q32.4621 565.836 33.1941 568.732 Q33.9262 571.629 35.3903 574.302 L29.9795 574.302 Q28.7381 571.087 28.1334 568.064 Q27.4968 565.04 27.4968 562.175 Q27.4968 554.441 31.5072 550.622 Q35.5176 546.802 43.6657 546.802 Z" fill="#000000" fill-rule="evenodd" fill-opacity="1"></path><path clip-path="url(#clip380)" d="M18.2347 528.947 L28.3562 528.947 L28.3562 516.883 L32.9077 516.883 L32.9077 528.947 L52.2594 528.947 Q56.6199 528.947 57.8613 527.769 Q59.1026 526.559 59.1026 522.899 L59.1026 516.883 L64.0042 516.883 L64.0042 522.899 Q64.0042 529.679 61.4897 532.257 Q58.9434 534.835 52.2594 534.835 L32.9077 534.835 L32.9077 539.132 L28.3562 539.132 L28.3562 534.835 L18.2347 534.835 L18.2347 528.947 Z" fill="#000000" fill-rule="evenodd" fill-opacity="1"></path><path clip-path="url(#clip380)" d="M28.3562 509.181 L28.3562 503.325 L64.0042 503.325 L64.0042 509.181 L28.3562 509.181 M14.479 509.181 L14.479 503.325 L21.895 503.325 L21.895 509.181 L14.479 509.181 Z" fill="#000000" fill-rule="evenodd" fill-opacity="1"></path><path clip-path="url(#clip380)" d="M32.4621 477.257 Q32.4621 481.968 36.1542 484.705 Q39.8145 487.442 46.212 487.442 Q52.6095 487.442 56.3017 484.737 Q59.9619 481.999 59.9619 477.257 Q59.9619 472.578 56.2698 469.841 Q52.5777 467.104 46.212 467.104 Q39.8781 467.104 36.186 469.841 Q32.4621 472.578 32.4621 477.257 M27.4968 477.257 Q27.4968 469.618 32.4621 465.258 Q37.4273 460.897 46.212 460.897 Q54.9649 460.897 59.9619 465.258 Q64.9272 469.618 64.9272 477.257 Q64.9272 484.928 59.9619 489.288 Q54.9649 493.617 46.212 493.617 Q37.4273 493.617 32.4621 489.288 Q27.4968 484.928 27.4968 477.257 Z" fill="#000000" fill-rule="evenodd" fill-opacity="1"></path><path clip-path="url(#clip380)" d="M42.4881 421.557 L64.0042 421.557 L64.0042 427.413 L42.679 427.413 Q37.6183 427.413 35.1038 429.387 Q32.5894 431.36 32.5894 435.307 Q32.5894 440.049 35.6131 442.787 Q38.6368 445.524 43.8567 445.524 L64.0042 445.524 L64.0042 451.412 L28.3562 451.412 L28.3562 445.524 L33.8944 445.524 Q30.6797 443.423 29.0883 440.59 Q27.4968 437.726 27.4968 434.002 Q27.4968 427.859 31.3163 424.708 Q35.1038 421.557 42.4881 421.557 Z" fill="#000000" fill-rule="evenodd" fill-opacity="1"></path><path clip-path="url(#clip380)" d="M482.968 14.0809 L482.968 22.0612 Q478.309 19.8332 474.177 18.7395 Q470.045 17.6457 466.197 17.6457 Q459.513 17.6457 455.867 20.2383 Q452.262 22.8309 452.262 27.611 Q452.262 31.6214 454.652 33.6873 Q457.082 35.7128 463.807 36.9686 L468.749 37.9813 Q477.904 39.7232 482.238 44.1387 Q486.613 48.5136 486.613 55.8863 Q486.613 64.6767 480.699 69.2137 Q474.825 73.7508 463.442 73.7508 Q459.148 73.7508 454.287 72.7785 Q449.467 71.8063 444.281 69.9024 L444.281 61.4765 Q449.264 64.2716 454.044 65.6895 Q458.824 67.1073 463.442 67.1073 Q470.45 67.1073 474.258 64.3527 Q478.066 61.598 478.066 56.4939 Q478.066 52.0379 475.311 49.5264 Q472.597 47.0148 466.359 45.759 L461.376 44.7868 Q452.221 42.9639 448.13 39.075 Q444.038 35.1862 444.038 28.2591 Q444.038 20.2383 449.669 15.6203 Q455.34 11.0023 465.265 11.0023 Q469.519 11.0023 473.934 11.7719 Q478.35 12.5416 482.968 14.0809 Z" fill="#000000" fill-rule="evenodd" fill-opacity="1"></path><path clip-path="url(#clip380)" d="M506.26 65.7705 L506.26 89.8329 L498.766 89.8329 L498.766 27.2059 L506.26 27.2059 L506.26 34.0924 Q508.61 30.0415 512.175 28.0971 Q515.78 26.1121 520.763 26.1121 Q529.026 26.1121 534.171 32.6746 Q539.356 39.2371 539.356 49.9314 Q539.356 60.6258 534.171 67.1883 Q529.026 73.7508 520.763 73.7508 Q515.78 73.7508 512.175 71.8063 Q508.61 69.8214 506.26 65.7705 M531.619 49.9314 Q531.619 41.7081 528.216 37.0496 Q524.854 32.3505 518.94 32.3505 Q513.025 32.3505 509.623 37.0496 Q506.26 41.7081 506.26 49.9314 Q506.26 58.1548 509.623 62.8538 Q513.025 67.5124 518.94 67.5124 Q524.854 67.5124 528.216 62.8538 Q531.619 58.1548 531.619 49.9314 Z" fill="#000000" fill-rule="evenodd" fill-opacity="1"></path><path clip-path="url(#clip380)" d="M590.519 48.0275 L590.519 51.6733 L556.248 51.6733 Q556.735 59.3701 560.866 63.421 Q565.039 67.4314 572.452 67.4314 Q576.746 67.4314 580.756 66.3781 Q584.807 65.3249 588.777 63.2184 L588.777 70.267 Q584.767 71.9684 580.554 72.8596 Q576.341 73.7508 572.006 73.7508 Q561.15 73.7508 554.79 67.4314 Q548.471 61.1119 548.471 50.3365 Q548.471 39.1965 554.466 32.6746 Q560.502 26.1121 570.71 26.1121 Q579.865 26.1121 585.172 32.0264 Q590.519 37.9003 590.519 48.0275 M583.065 45.84 Q582.984 39.7232 579.622 36.0774 Q576.3 32.4315 570.791 32.4315 Q564.553 32.4315 560.785 35.9558 Q557.059 39.4801 556.492 45.8805 L583.065 45.84 Z" fill="#000000" fill-rule="evenodd" fill-opacity="1"></path><path clip-path="url(#clip380)" d="M623.372 49.7694 Q614.338 49.7694 610.855 51.8354 Q607.371 53.9013 607.371 58.8839 Q607.371 62.8538 609.963 65.2034 Q612.597 67.5124 617.093 67.5124 Q623.291 67.5124 627.018 63.1374 Q630.785 58.7219 630.785 51.4303 L630.785 49.7694 L623.372 49.7694 M638.239 46.6907 L638.239 72.576 L630.785 72.576 L630.785 65.6895 Q628.233 69.8214 624.425 71.8063 Q620.617 73.7508 615.108 73.7508 Q608.141 73.7508 604.009 69.8619 Q599.917 65.9325 599.917 59.3701 Q599.917 51.7138 605.021 47.825 Q610.166 43.9361 620.334 43.9361 L630.785 43.9361 L630.785 43.2069 Q630.785 38.0623 627.382 35.2672 Q624.02 32.4315 617.903 32.4315 Q614.014 32.4315 610.328 33.3632 Q606.642 34.295 603.239 36.1584 L603.239 29.2718 Q607.33 27.692 611.179 26.9223 Q615.027 26.1121 618.673 26.1121 Q628.517 26.1121 633.378 31.2163 Q638.239 36.3204 638.239 46.6907 Z" fill="#000000" fill-rule="evenodd" fill-opacity="1"></path><path clip-path="url(#clip380)" d="M679.882 34.1734 Q678.626 33.4443 677.127 33.1202 Q675.669 32.7556 673.887 32.7556 Q667.567 32.7556 664.165 36.8875 Q660.802 40.9789 660.802 48.6757 L660.802 72.576 L653.308 72.576 L653.308 27.2059 L660.802 27.2059 L660.802 34.2544 Q663.152 30.1225 666.919 28.1376 Q670.686 26.1121 676.074 26.1121 Q676.844 26.1121 677.776 26.2337 Q678.707 26.3147 679.842 26.5172 L679.882 34.1734 Z" fill="#000000" fill-rule="evenodd" fill-opacity="1"></path><path clip-path="url(#clip380)" d="M721.566 35.9153 Q724.361 30.8922 728.25 28.5022 Q732.139 26.1121 737.405 26.1121 Q744.494 26.1121 748.342 31.0947 Q752.191 36.0368 752.191 45.1919 L752.191 72.576 L744.697 72.576 L744.697 45.4349 Q744.697 38.913 742.387 35.7533 Q740.078 32.5936 735.339 32.5936 Q729.546 32.5936 726.184 36.4419 Q722.822 40.2903 722.822 46.9338 L722.822 72.576 L715.327 72.576 L715.327 45.4349 Q715.327 38.8725 713.018 35.7533 Q710.709 32.5936 705.889 32.5936 Q700.177 32.5936 696.815 36.4824 Q693.453 40.3308 693.453 46.9338 L693.453 72.576 L685.958 72.576 L685.958 27.2059 L693.453 27.2059 L693.453 34.2544 Q696.005 30.082 699.569 28.0971 Q703.134 26.1121 708.036 26.1121 Q712.978 26.1121 716.421 28.6237 Q719.905 31.1352 721.566 35.9153 Z" fill="#000000" fill-rule="evenodd" fill-opacity="1"></path><path clip-path="url(#clip380)" d="M787.677 49.7694 Q778.643 49.7694 775.159 51.8354 Q771.676 53.9013 771.676 58.8839 Q771.676 62.8538 774.268 65.2034 Q776.901 67.5124 781.398 67.5124 Q787.596 67.5124 791.322 63.1374 Q795.09 58.7219 795.09 51.4303 L795.09 49.7694 L787.677 49.7694 M802.543 46.6907 L802.543 72.576 L795.09 72.576 L795.09 65.6895 Q792.538 69.8214 788.73 71.8063 Q784.922 73.7508 779.413 73.7508 Q772.445 73.7508 768.313 69.8619 Q764.222 65.9325 764.222 59.3701 Q764.222 51.7138 769.326 47.825 Q774.471 43.9361 784.638 43.9361 L795.09 43.9361 L795.09 43.2069 Q795.09 38.0623 791.687 35.2672 Q788.325 32.4315 782.208 32.4315 Q778.319 32.4315 774.633 33.3632 Q770.946 34.295 767.544 36.1584 L767.544 29.2718 Q771.635 27.692 775.483 26.9223 Q779.332 26.1121 782.978 26.1121 Q792.821 26.1121 797.682 31.2163 Q802.543 36.3204 802.543 46.6907 Z" fill="#000000" fill-rule="evenodd" fill-opacity="1"></path><path clip-path="url(#clip380)" d="M855.61 45.1919 L855.61 72.576 L848.157 72.576 L848.157 45.4349 Q848.157 38.994 845.645 35.7938 Q843.133 32.5936 838.11 32.5936 Q832.075 32.5936 828.591 36.4419 Q825.107 40.2903 825.107 46.9338 L825.107 72.576 L817.613 72.576 L817.613 27.2059 L825.107 27.2059 L825.107 34.2544 Q827.781 30.163 831.386 28.1376 Q835.032 26.1121 839.771 26.1121 Q847.589 26.1121 851.6 30.9732 Q855.61 35.7938 855.61 45.1919 Z" fill="#000000" fill-rule="evenodd" fill-opacity="1"></path><path clip-path="url(#clip380)" d="M942.462 16.7545 L942.462 25.383 Q938.33 21.5346 933.631 19.6307 Q928.972 17.7268 923.706 17.7268 Q913.336 17.7268 907.826 24.0867 Q902.317 30.4061 902.317 42.3968 Q902.317 54.3469 907.826 60.7069 Q913.336 67.0263 923.706 67.0263 Q928.972 67.0263 933.631 65.1223 Q938.33 63.2184 942.462 59.3701 L942.462 67.9175 Q938.168 70.8341 933.347 72.2924 Q928.567 73.7508 923.22 73.7508 Q909.487 73.7508 901.588 65.3654 Q893.689 56.9395 893.689 42.3968 Q893.689 27.8135 901.588 19.4281 Q909.487 11.0023 923.22 11.0023 Q928.648 11.0023 933.428 12.4606 Q938.249 13.8784 942.462 16.7545 Z" fill="#000000" fill-rule="evenodd" fill-opacity="1"></path><path clip-path="url(#clip380)" d="M972.357 32.4315 Q966.362 32.4315 962.878 37.1306 Q959.394 41.7891 959.394 49.9314 Q959.394 58.0738 962.838 62.7728 Q966.321 67.4314 972.357 67.4314 Q978.312 67.4314 981.796 62.7323 Q985.28 58.0333 985.28 49.9314 Q985.28 41.8701 981.796 37.1711 Q978.312 32.4315 972.357 32.4315 M972.357 26.1121 Q982.079 26.1121 987.629 32.4315 Q993.179 38.7509 993.179 49.9314 Q993.179 61.0714 987.629 67.4314 Q982.079 73.7508 972.357 73.7508 Q962.595 73.7508 957.045 67.4314 Q951.536 61.0714 951.536 49.9314 Q951.536 38.7509 957.045 32.4315 Q962.595 26.1121 972.357 26.1121 Z" fill="#000000" fill-rule="evenodd" fill-opacity="1"></path><path clip-path="url(#clip380)" d="M1031.82 34.1734 Q1030.57 33.4443 1029.07 33.1202 Q1027.61 32.7556 1025.83 32.7556 Q1019.51 32.7556 1016.11 36.8875 Q1012.74 40.9789 1012.74 48.6757 L1012.74 72.576 L1005.25 72.576 L1005.25 27.2059 L1012.74 27.2059 L1012.74 34.2544 Q1015.09 30.1225 1018.86 28.1376 Q1022.63 26.1121 1028.02 26.1121 Q1028.79 26.1121 1029.72 26.2337 Q1030.65 26.3147 1031.78 26.5172 L1031.82 34.1734 Z" fill="#000000" fill-rule="evenodd" fill-opacity="1"></path><path clip-path="url(#clip380)" d="M1064.47 34.1734 Q1063.22 33.4443 1061.72 33.1202 Q1060.26 32.7556 1058.48 32.7556 Q1052.16 32.7556 1048.76 36.8875 Q1045.4 40.9789 1045.4 48.6757 L1045.4 72.576 L1037.9 72.576 L1037.9 27.2059 L1045.4 27.2059 L1045.4 34.2544 Q1047.74 30.1225 1051.51 28.1376 Q1055.28 26.1121 1060.67 26.1121 Q1061.44 26.1121 1062.37 26.2337 Q1063.3 26.3147 1064.43 26.5172 L1064.47 34.1734 Z" fill="#000000" fill-rule="evenodd" fill-opacity="1"></path><path clip-path="url(#clip380)" d="M1109.28 48.0275 L1109.28 51.6733 L1075.01 51.6733 Q1075.49 59.3701 1079.63 63.421 Q1083.8 67.4314 1091.21 67.4314 Q1095.5 67.4314 1099.52 66.3781 Q1103.57 65.3249 1107.54 63.2184 L1107.54 70.267 Q1103.53 71.9684 1099.31 72.8596 Q1095.1 73.7508 1090.77 73.7508 Q1079.91 73.7508 1073.55 67.4314 Q1067.23 61.1119 1067.23 50.3365 Q1067.23 39.1965 1073.22 32.6746 Q1079.26 26.1121 1089.47 26.1121 Q1098.62 26.1121 1103.93 32.0264 Q1109.28 37.9003 1109.28 48.0275 M1101.82 45.84 Q1101.74 39.7232 1098.38 36.0774 Q1095.06 32.4315 1089.55 32.4315 Q1083.31 32.4315 1079.54 35.9558 Q1075.82 39.4801 1075.25 45.8805 L1101.82 45.84 Z" fill="#000000" fill-rule="evenodd" fill-opacity="1"></path><path clip-path="url(#clip380)" d="M1121.51 9.54393 L1128.97 9.54393 L1128.97 72.576 L1121.51 72.576 L1121.51 9.54393 Z" fill="#000000" fill-rule="evenodd" fill-opacity="1"></path><path clip-path="url(#clip380)" d="M1165.18 49.7694 Q1156.15 49.7694 1152.66 51.8354 Q1149.18 53.9013 1149.18 58.8839 Q1149.18 62.8538 1151.77 65.2034 Q1154.4 67.5124 1158.9 67.5124 Q1165.1 67.5124 1168.83 63.1374 Q1172.59 58.7219 1172.59 51.4303 L1172.59 49.7694 L1165.18 49.7694 M1180.05 46.6907 L1180.05 72.576 L1172.59 72.576 L1172.59 65.6895 Q1170.04 69.8214 1166.23 71.8063 Q1162.43 73.7508 1156.92 73.7508 Q1149.95 73.7508 1145.82 69.8619 Q1141.73 65.9325 1141.73 59.3701 Q1141.73 51.7138 1146.83 47.825 Q1151.97 43.9361 1162.14 43.9361 L1172.59 43.9361 L1172.59 43.2069 Q1172.59 38.0623 1169.19 35.2672 Q1165.83 32.4315 1159.71 32.4315 Q1155.82 32.4315 1152.14 33.3632 Q1148.45 34.295 1145.05 36.1584 L1145.05 29.2718 Q1149.14 27.692 1152.99 26.9223 Q1156.84 26.1121 1160.48 26.1121 Q1170.33 26.1121 1175.19 31.2163 Q1180.05 36.3204 1180.05 46.6907 Z" fill="#000000" fill-rule="evenodd" fill-opacity="1"></path><path clip-path="url(#clip380)" d="M1202.77 14.324 L1202.77 27.2059 L1218.13 27.2059 L1218.13 32.9987 L1202.77 32.9987 L1202.77 57.6282 Q1202.77 63.1779 1204.27 64.7578 Q1205.81 66.3376 1210.47 66.3376 L1218.13 66.3376 L1218.13 72.576 L1210.47 72.576 Q1201.84 72.576 1198.56 69.3758 Q1195.28 66.1351 1195.28 57.6282 L1195.28 32.9987 L1189.81 32.9987 L1189.81 27.2059 L1195.28 27.2059 L1195.28 14.324 L1202.77 14.324 Z" fill="#000000" fill-rule="evenodd" fill-opacity="1"></path><path clip-path="url(#clip380)" d="M1227.93 27.2059 L1235.38 27.2059 L1235.38 72.576 L1227.93 72.576 L1227.93 27.2059 M1227.93 9.54393 L1235.38 9.54393 L1235.38 18.9825 L1227.93 18.9825 L1227.93 9.54393 Z" fill="#000000" fill-rule="evenodd" fill-opacity="1"></path><path clip-path="url(#clip380)" d="M1268.56 32.4315 Q1262.56 32.4315 1259.08 37.1306 Q1255.6 41.7891 1255.6 49.9314 Q1255.6 58.0738 1259.04 62.7728 Q1262.52 67.4314 1268.56 67.4314 Q1274.51 67.4314 1278 62.7323 Q1281.48 58.0333 1281.48 49.9314 Q1281.48 41.8701 1278 37.1711 Q1274.51 32.4315 1268.56 32.4315 M1268.56 26.1121 Q1278.28 26.1121 1283.83 32.4315 Q1289.38 38.7509 1289.38 49.9314 Q1289.38 61.0714 1283.83 67.4314 Q1278.28 73.7508 1268.56 73.7508 Q1258.8 73.7508 1253.25 67.4314 Q1247.74 61.0714 1247.74 49.9314 Q1247.74 38.7509 1253.25 32.4315 Q1258.8 26.1121 1268.56 26.1121 Z" fill="#000000" fill-rule="evenodd" fill-opacity="1"></path><path clip-path="url(#clip380)" d="M1339.45 45.1919 L1339.45 72.576 L1332 72.576 L1332 45.4349 Q1332 38.994 1329.49 35.7938 Q1326.97 32.5936 1321.95 32.5936 Q1315.91 32.5936 1312.43 36.4419 Q1308.95 40.2903 1308.95 46.9338 L1308.95 72.576 L1301.45 72.576 L1301.45 27.2059 L1308.95 27.2059 L1308.95 34.2544 Q1311.62 30.163 1315.23 28.1376 Q1318.87 26.1121 1323.61 26.1121 Q1331.43 26.1121 1335.44 30.9732 Q1339.45 35.7938 1339.45 45.1919 Z" fill="#000000" fill-rule="evenodd" fill-opacity="1"></path><path clip-path="url(#clip380)" d="M1356.22 62.2867 L1364.77 62.2867 L1364.77 69.2543 L1358.12 82.2172 L1352.9 82.2172 L1356.22 69.2543 L1356.22 62.2867 Z" fill="#000000" fill-rule="evenodd" fill-opacity="1"></path><path clip-path="url(#clip380)" d="M1422.98 72.576 L1399.89 12.096 L1408.44 12.096 L1427.6 63.0159 L1446.8 12.096 L1455.31 12.096 L1432.26 72.576 L1422.98 72.576 Z" fill="#000000" fill-rule="evenodd" fill-opacity="1"></path><path clip-path="url(#clip380)" d="M1510.8 49.7694 Q1501.77 49.7694 1498.29 51.8354 Q1494.8 53.9013 1494.8 58.8839 Q1494.8 62.8538 1497.4 65.2034 Q1500.03 67.5124 1504.52 67.5124 Q1510.72 67.5124 1514.45 63.1374 Q1518.22 58.7219 1518.22 51.4303 L1518.22 49.7694 L1510.8 49.7694 M1525.67 46.6907 L1525.67 72.576 L1518.22 72.576 L1518.22 65.6895 Q1515.66 69.8214 1511.86 71.8063 Q1508.05 73.7508 1502.54 73.7508 Q1495.57 73.7508 1491.44 69.8619 Q1487.35 65.9325 1487.35 59.3701 Q1487.35 51.7138 1492.45 47.825 Q1497.6 43.9361 1507.77 43.9361 L1518.22 43.9361 L1518.22 43.2069 Q1518.22 38.0623 1514.81 35.2672 Q1511.45 32.4315 1505.33 32.4315 Q1501.45 32.4315 1497.76 33.3632 Q1494.07 34.295 1490.67 36.1584 L1490.67 29.2718 Q1494.76 27.692 1498.61 26.9223 Q1502.46 26.1121 1506.1 26.1121 Q1515.95 26.1121 1520.81 31.2163 Q1525.67 36.3204 1525.67 46.6907 Z" fill="#000000" fill-rule="evenodd" fill-opacity="1"></path><path clip-path="url(#clip380)" d="M1578.74 45.1919 L1578.74 72.576 L1571.28 72.576 L1571.28 45.4349 Q1571.28 38.994 1568.77 35.7938 Q1566.26 32.5936 1561.24 32.5936 Q1555.2 32.5936 1551.72 36.4419 Q1548.23 40.2903 1548.23 46.9338 L1548.23 72.576 L1540.74 72.576 L1540.74 27.2059 L1548.23 27.2059 L1548.23 34.2544 Q1550.91 30.163 1554.51 28.1376 Q1558.16 26.1121 1562.9 26.1121 Q1570.72 26.1121 1574.73 30.9732 Q1578.74 35.7938 1578.74 45.1919 Z" fill="#000000" fill-rule="evenodd" fill-opacity="1"></path><path clip-path="url(#clip380)" d="M1623.46 34.0924 L1623.46 9.54393 L1630.91 9.54393 L1630.91 72.576 L1623.46 72.576 L1623.46 65.7705 Q1621.11 69.8214 1617.5 71.8063 Q1613.94 73.7508 1608.92 73.7508 Q1600.69 73.7508 1595.51 67.1883 Q1590.36 60.6258 1590.36 49.9314 Q1590.36 39.2371 1595.51 32.6746 Q1600.69 26.1121 1608.92 26.1121 Q1613.94 26.1121 1617.5 28.0971 Q1621.11 30.0415 1623.46 34.0924 M1598.06 49.9314 Q1598.06 58.1548 1601.42 62.8538 Q1604.83 67.5124 1610.74 67.5124 Q1616.65 67.5124 1620.06 62.8538 Q1623.46 58.1548 1623.46 49.9314 Q1623.46 41.7081 1620.06 37.0496 Q1616.65 32.3505 1610.74 32.3505 Q1604.83 32.3505 1601.42 37.0496 Q1598.06 41.7081 1598.06 49.9314 Z" fill="#000000" fill-rule="evenodd" fill-opacity="1"></path><path clip-path="url(#clip380)" d="M1688.56 72.576 L1665.47 12.096 L1674.01 12.096 L1693.18 63.0159 L1712.38 12.096 L1720.88 12.096 L1697.83 72.576 L1688.56 72.576 Z" fill="#000000" fill-rule="evenodd" fill-opacity="1"></path><path clip-path="url(#clip380)" d="M1697.83 6.22219 L1703.83 6.22219 L1713.75 21.4536 L1708.12 21.4536 L1700.83 11.5289 L1693.54 21.4536 L1687.91 21.4536 L1697.83 6.22219 M1700.83 26.1121 L1700.83 26.1121 Z" fill="#000000" fill-rule="evenodd" fill-opacity="1"></path><path clip-path="url(#clip380)" d="M1731.29 62.2867 L1739.84 62.2867 L1739.84 69.2543 L1733.2 82.2172 L1727.97 82.2172 L1731.29 69.2543 L1731.29 62.2867 Z" fill="#000000" fill-rule="evenodd" fill-opacity="1"></path><path clip-path="url(#clip380)" d="M1776.79 27.2059 L1784.69 27.2059 L1798.86 65.2844 L1813.04 27.2059 L1820.94 27.2059 L1803.93 72.576 L1793.8 72.576 L1776.79 27.2059 Z" fill="#000000" fill-rule="evenodd" fill-opacity="1"></path><path clip-path="url(#clip380)" d="M1851.85 49.7694 Q1842.82 49.7694 1839.33 51.8354 Q1835.85 53.9013 1835.85 58.8839 Q1835.85 62.8538 1838.44 65.2034 Q1841.07 67.5124 1845.57 67.5124 Q1851.77 67.5124 1855.49 63.1374 Q1859.26 58.7219 1859.26 51.4303 L1859.26 49.7694 L1851.85 49.7694 M1866.72 46.6907 L1866.72 72.576 L1859.26 72.576 L1859.26 65.6895 Q1856.71 69.8214 1852.9 71.8063 Q1849.09 73.7508 1843.59 73.7508 Q1836.62 73.7508 1832.49 69.8619 Q1828.39 65.9325 1828.39 59.3701 Q1828.39 51.7138 1833.5 47.825 Q1838.64 43.9361 1848.81 43.9361 L1859.26 43.9361 L1859.26 43.2069 Q1859.26 38.0623 1855.86 35.2672 Q1852.5 32.4315 1846.38 32.4315 Q1842.49 32.4315 1838.81 33.3632 Q1835.12 34.295 1831.72 36.1584 L1831.72 29.2718 Q1835.81 27.692 1839.66 26.9223 Q1843.5 26.1121 1847.15 26.1121 Q1856.99 26.1121 1861.85 31.2163 Q1866.72 36.3204 1866.72 46.6907 Z" fill="#000000" fill-rule="evenodd" fill-opacity="1"></path><path clip-path="url(#clip380)" d="M1908.36 34.1734 Q1907.1 33.4443 1905.6 33.1202 Q1904.15 32.7556 1902.36 32.7556 Q1896.04 32.7556 1892.64 36.8875 Q1889.28 40.9789 1889.28 48.6757 L1889.28 72.576 L1881.79 72.576 L1881.79 27.2059 L1889.28 27.2059 L1889.28 34.2544 Q1891.63 30.1225 1895.4 28.1376 Q1899.16 26.1121 1904.55 26.1121 Q1905.32 26.1121 1906.25 26.2337 Q1907.18 26.3147 1908.32 26.5172 L1908.36 34.1734 Z" fill="#000000" fill-rule="evenodd" fill-opacity="1"></path><path clip-path="url(#clip380)" d="M1935.05 76.7889 Q1931.9 84.8907 1928.9 87.3618 Q1925.9 89.8329 1920.88 89.8329 L1914.92 89.8329 L1914.92 83.5945 L1919.3 83.5945 Q1922.38 83.5945 1924.08 82.1361 Q1925.78 80.6778 1927.84 75.2496 L1929.18 71.8468 L1910.83 27.2059 L1918.73 27.2059 L1932.91 62.6918 L1947.09 27.2059 L1954.99 27.2059 L1935.05 76.7889 Z" fill="#000000" fill-rule="evenodd" fill-opacity="1"></path><path clip-path="url(#clip380)" d="M1965.27 27.2059 L1972.73 27.2059 L1972.73 72.576 L1965.27 72.576 L1965.27 27.2059 M1965.27 9.54393 L1972.73 9.54393 L1972.73 18.9825 L1965.27 18.9825 L1965.27 9.54393 Z" fill="#000000" fill-rule="evenodd" fill-opacity="1"></path><path clip-path="url(#clip380)" d="M2026.04 45.1919 L2026.04 72.576 L2018.58 72.576 L2018.58 45.4349 Q2018.58 38.994 2016.07 35.7938 Q2013.56 32.5936 2008.54 32.5936 Q2002.5 32.5936 1999.02 36.4419 Q1995.53 40.2903 1995.53 46.9338 L1995.53 72.576 L1988.04 72.576 L1988.04 27.2059 L1995.53 27.2059 L1995.53 34.2544 Q1998.21 30.163 2001.81 28.1376 Q2005.46 26.1121 2010.2 26.1121 Q2018.02 26.1121 2022.03 30.9732 Q2026.04 35.7938 2026.04 45.1919 Z" fill="#000000" fill-rule="evenodd" fill-opacity="1"></path><path clip-path="url(#clip380)" d="M2070.76 49.3643 Q2070.76 41.2625 2067.4 36.8065 Q2064.08 32.3505 2058.04 32.3505 Q2052.04 32.3505 2048.68 36.8065 Q2045.36 41.2625 2045.36 49.3643 Q2045.36 57.4256 2048.68 61.8816 Q2052.04 66.3376 2058.04 66.3376 Q2064.08 66.3376 2067.4 61.8816 Q2070.76 57.4256 2070.76 49.3643 M2078.21 66.9452 Q2078.21 78.5308 2073.07 84.1616 Q2067.92 89.8329 2057.31 89.8329 Q2053.38 89.8329 2049.9 89.2252 Q2046.41 88.6581 2043.13 87.4428 L2043.13 80.1917 Q2046.41 81.9741 2049.61 82.8248 Q2052.81 83.6755 2056.14 83.6755 Q2063.47 83.6755 2067.11 79.8271 Q2070.76 76.0193 2070.76 68.282 L2070.76 64.5957 Q2068.45 68.6061 2064.85 70.5911 Q2061.24 72.576 2056.22 72.576 Q2047.87 72.576 2042.77 66.2161 Q2037.66 59.8562 2037.66 49.3643 Q2037.66 38.832 2042.77 32.472 Q2047.87 26.1121 2056.22 26.1121 Q2061.24 26.1121 2064.85 28.0971 Q2068.45 30.082 2070.76 34.0924 L2070.76 27.2059 L2078.21 27.2059 L2078.21 66.9452 Z" fill="#000000" fill-rule="evenodd" fill-opacity="1"></path><path clip-path="url(#clip380)" d="M2137.8 16.633 L2158.75 72.576 L2150.85 72.576 L2138.13 39.0345 L2122.49 72.576 L2114.59 72.576 L2134.48 29.0693 L2131.48 21.0485 Q2129.58 15.9444 2125.24 15.9444 L2121.36 15.9444 L2121.36 9.54393 L2126.1 9.62495 Q2135.25 9.74648 2137.8 16.633 Z" fill="#000000" fill-rule="evenodd" fill-opacity="1"></path><circle clip-path="url(#clip382)" cx="309.539" cy="719.193" r="14" fill="#009af9" fill-rule="evenodd" fill-opacity="1" stroke="#000000" stroke-opacity="1" stroke-width="3.2"></circle>
<circle clip-path="url(#clip382)" cx="592.926" cy="1386.4" r="14" fill="#009af9" fill-rule="evenodd" fill-opacity="1" stroke="#000000" stroke-opacity="1" stroke-width="3.2"></circle>
<circle clip-path="url(#clip382)" cx="876.312" cy="465.475" r="14" fill="#009af9" fill-rule="evenodd" fill-opacity="1" stroke="#000000" stroke-opacity="1" stroke-width="3.2"></circle>
<circle clip-path="url(#clip382)" cx="1159.7" cy="700.765" r="14" fill="#009af9" fill-rule="evenodd" fill-opacity="1" stroke="#000000" stroke-opacity="1" stroke-width="3.2"></circle>
<circle clip-path="url(#clip382)" cx="1443.09" cy="403.938" r="14" fill="#009af9" fill-rule="evenodd" fill-opacity="1" stroke="#000000" stroke-opacity="1" stroke-width="3.2"></circle>
<circle clip-path="url(#clip382)" cx="1726.47" cy="445.401" r="14" fill="#009af9" fill-rule="evenodd" fill-opacity="1" stroke="#000000" stroke-opacity="1" stroke-width="3.2"></circle>
<circle clip-path="url(#clip382)" cx="2009.86" cy="461.032" r="14" fill="#009af9" fill-rule="evenodd" fill-opacity="1" stroke="#000000" stroke-opacity="1" stroke-width="3.2"></circle>
<circle clip-path="url(#clip382)" cx="2293.24" cy="160.256" r="14" fill="#009af9" fill-rule="evenodd" fill-opacity="1" stroke="#000000" stroke-opacity="1" stroke-width="3.2"></circle>
</svg>