<svg xmlns="http://www.w3.org/2000/svg" xmlns:xlink="http://www.w3.org/1999/xlink" width="600" height="400" viewBox="0 0 2400 1600">
<defs>
  <clipPath id="clip700">
    <rect x="0" y="0" width="2400" height="1600"></rect>
  </clipPath>
</defs>
<path clip-path="url(#clip700)" d="
M0 1600 L2400 1600 L2400 0 L0 0  Z
  " fill="#ffffff" fill-rule="evenodd" fill-opacity="1"></path>
<defs>
  <clipPath id="clip701">
    <rect x="480" y="0" width="1681" height="1600"></rect>
  </clipPath>
</defs>
<path clip-path="url(#clip700)" d="
M279.704 1423.18 L2352.76 1423.18 L2352.76 123.472 L279.704 123.472  Z
  " fill="#ffffff" fill-rule="evenodd" fill-opacity="1"></path>
<defs>
  <clipPath id="clip702">
    <rect x="279" y="123" width="2074" height="1301"></rect>
  </clipPath>
</defs>
<polyline clip-path="url(#clip702)" style="stroke:#000000; stroke-linecap:butt; stroke-linejoin:round; stroke-width:2; stroke-opacity:0.1; fill:none" points="
  617.762,1423.18 617.762,123.472 
  "></polyline>
<polyline clip-path="url(#clip702)" style="stroke:#000000; stroke-linecap:butt; stroke-linejoin:round; stroke-width:2; stroke-opacity:0.1; fill:none" points="
  1176.54,1423.18 1176.54,123.472 
  "></polyline>
<polyline clip-path="url(#clip702)" style="stroke:#000000; stroke-linecap:butt; stroke-linejoin:round; stroke-width:2; stroke-opacity:0.1; fill:none" points="
  1735.31,1423.18 1735.31,123.472 
  "></polyline>
<polyline clip-path="url(#clip702)" style="stroke:#000000; stroke-linecap:butt; stroke-linejoin:round; stroke-width:2; stroke-opacity:0.1; fill:none" points="
  2294.08,1423.18 2294.08,123.472 
  "></polyline>
<polyline clip-path="url(#clip700)" style="stroke:#000000; stroke-linecap:butt; stroke-linejoin:round; stroke-width:4; stroke-opacity:1; fill:none" points="
  279.704,1423.18 2352.76,1423.18 
  "></polyline>
<polyline clip-path="url(#clip700)" style="stroke:#000000; stroke-linecap:butt; stroke-linejoin:round; stroke-width:4; stroke-opacity:1; fill:none" points="
  617.762,1423.18 617.762,1404.28 
  "></polyline>
<polyline clip-path="url(#clip700)" style="stroke:#000000; stroke-linecap:butt; stroke-linejoin:round; stroke-width:4; stroke-opacity:1; fill:none" points="
  1176.54,1423.18 1176.54,1404.28 
  "></polyline>
<polyline clip-path="url(#clip700)" style="stroke:#000000; stroke-linecap:butt; stroke-linejoin:round; stroke-width:4; stroke-opacity:1; fill:none" points="
  1735.31,1423.18 1735.31,1404.28 
  "></polyline>
<polyline clip-path="url(#clip700)" style="stroke:#000000; stroke-linecap:butt; stroke-linejoin:round; stroke-width:4; stroke-opacity:1; fill:none" points="
  2294.08,1423.18 2294.08,1404.28 
  "></polyline>
<path clip-path="url(#clip700)" d="M620.771 1455.09 L608.966 1473.54 L620.771 1473.54 L620.771 1455.09 M619.545 1451.02 L625.424 1451.02 L625.424 1473.54 L630.355 1473.54 L630.355 1477.43 L625.424 1477.43 L625.424 1485.58 L620.771 1485.58 L620.771 1477.43 L605.17 1477.43 L605.17 1472.92 L619.545 1451.02 Z" fill="#000000" fill-rule="evenodd" fill-opacity="1"></path><path clip-path="url(#clip700)" d="M1176.94 1466.44 Q1173.79 1466.44 1171.94 1468.59 Q1170.11 1470.74 1170.11 1474.49 Q1170.11 1478.22 1171.94 1480.39 Q1173.79 1482.55 1176.94 1482.55 Q1180.09 1482.55 1181.92 1480.39 Q1183.77 1478.22 1183.77 1474.49 Q1183.77 1470.74 1181.92 1468.59 Q1180.09 1466.44 1176.94 1466.44 M1186.22 1451.78 L1186.22 1456.04 Q1184.46 1455.21 1182.66 1454.77 Q1180.88 1454.33 1179.12 1454.33 Q1174.49 1454.33 1172.03 1457.45 Q1169.6 1460.58 1169.26 1466.9 Q1170.62 1464.89 1172.68 1463.82 Q1174.74 1462.73 1177.22 1462.73 Q1182.43 1462.73 1185.44 1465.9 Q1188.47 1469.05 1188.47 1474.49 Q1188.47 1479.82 1185.32 1483.03 Q1182.17 1486.25 1176.94 1486.25 Q1170.95 1486.25 1167.77 1481.67 Q1164.6 1477.06 1164.6 1468.33 Q1164.6 1460.14 1168.49 1455.28 Q1172.38 1450.39 1178.93 1450.39 Q1180.69 1450.39 1182.47 1450.74 Q1184.28 1451.09 1186.22 1451.78 Z" fill="#000000" fill-rule="evenodd" fill-opacity="1"></path><path clip-path="url(#clip700)" d="M1735.31 1469.17 Q1731.98 1469.17 1730.06 1470.95 Q1728.16 1472.73 1728.16 1475.86 Q1728.16 1478.98 1730.06 1480.77 Q1731.98 1482.55 1735.31 1482.55 Q1738.64 1482.55 1740.57 1480.77 Q1742.49 1478.96 1742.49 1475.86 Q1742.49 1472.73 1740.57 1470.95 Q1738.67 1469.17 1735.31 1469.17 M1730.63 1467.18 Q1727.63 1466.44 1725.94 1464.38 Q1724.27 1462.32 1724.27 1459.35 Q1724.27 1455.21 1727.21 1452.8 Q1730.17 1450.39 1735.31 1450.39 Q1740.47 1450.39 1743.41 1452.8 Q1746.35 1455.21 1746.35 1459.35 Q1746.35 1462.32 1744.66 1464.38 Q1743 1466.44 1740.01 1467.18 Q1743.39 1467.96 1745.26 1470.26 Q1747.16 1472.55 1747.16 1475.86 Q1747.16 1480.88 1744.08 1483.57 Q1741.03 1486.25 1735.31 1486.25 Q1729.59 1486.25 1726.51 1483.57 Q1723.46 1480.88 1723.46 1475.86 Q1723.46 1472.55 1725.36 1470.26 Q1727.25 1467.96 1730.63 1467.18 M1728.92 1459.79 Q1728.92 1462.48 1730.59 1463.98 Q1732.28 1465.49 1735.31 1465.49 Q1738.32 1465.49 1740.01 1463.98 Q1741.72 1462.48 1741.72 1459.79 Q1741.72 1457.11 1740.01 1455.6 Q1738.32 1454.1 1735.31 1454.1 Q1732.28 1454.1 1730.59 1455.6 Q1728.92 1457.11 1728.92 1459.79 Z" fill="#000000" fill-rule="evenodd" fill-opacity="1"></path><path clip-path="url(#clip700)" d="M2268.77 1481.64 L2276.41 1481.64 L2276.41 1455.28 L2268.1 1456.95 L2268.1 1452.69 L2276.36 1451.02 L2281.04 1451.02 L2281.04 1481.64 L2288.68 1481.64 L2288.68 1485.58 L2268.77 1485.58 L2268.77 1481.64 Z" fill="#000000" fill-rule="evenodd" fill-opacity="1"></path><path clip-path="url(#clip700)" d="M2308.12 1454.1 Q2304.51 1454.1 2302.68 1457.66 Q2300.88 1461.2 2300.88 1468.33 Q2300.88 1475.44 2302.68 1479.01 Q2304.51 1482.55 2308.12 1482.55 Q2311.76 1482.55 2313.56 1479.01 Q2315.39 1475.44 2315.39 1468.33 Q2315.39 1461.2 2313.56 1457.66 Q2311.76 1454.1 2308.12 1454.1 M2308.12 1450.39 Q2313.93 1450.39 2316.99 1455 Q2320.07 1459.58 2320.07 1468.33 Q2320.07 1477.06 2316.99 1481.67 Q2313.93 1486.25 2308.12 1486.25 Q2302.31 1486.25 2299.24 1481.67 Q2296.18 1477.06 2296.18 1468.33 Q2296.18 1459.58 2299.24 1455 Q2302.31 1450.39 2308.12 1450.39 Z" fill="#000000" fill-rule="evenodd" fill-opacity="1"></path><path clip-path="url(#clip700)" d="M1309.61 1546.53 L1309.61 1568.04 L1303.75 1568.04 L1303.75 1546.72 Q1303.75 1541.66 1301.78 1539.14 Q1299.81 1536.63 1295.86 1536.63 Q1291.12 1536.63 1288.38 1539.65 Q1285.64 1542.68 1285.64 1547.9 L1285.64 1568.04 L1279.75 1568.04 L1279.75 1532.4 L1285.64 1532.4 L1285.64 1537.93 Q1287.74 1534.72 1290.58 1533.13 Q1293.44 1531.54 1297.16 1531.54 Q1303.31 1531.54 1306.46 1535.36 Q1309.61 1539.14 1309.61 1546.53 Z" fill="#000000" fill-rule="evenodd" fill-opacity="1"></path><path clip-path="url(#clip700)" d="M1321.07 1518.52 L1326.96 1518.52 L1326.96 1547.77 L1344.43 1532.4 L1351.91 1532.4 L1333 1549.07 L1352.71 1568.04 L1345.07 1568.04 L1326.96 1550.63 L1326.96 1568.04 L1321.07 1568.04 L1321.07 1518.52 Z" fill="#000000" fill-rule="evenodd" fill-opacity="1"></path><polyline clip-path="url(#clip702)" style="stroke:#000000; stroke-linecap:butt; stroke-linejoin:round; stroke-width:2; stroke-opacity:0.1; fill:none" points="
  279.704,1269.28 2352.76,1269.28 
  "></polyline>
<polyline clip-path="url(#clip702)" style="stroke:#000000; stroke-linecap:butt; stroke-linejoin:round; stroke-width:2; stroke-opacity:0.1; fill:none" points="
  279.704,996.493 2352.76,996.493 
  "></polyline>
<polyline clip-path="url(#clip702)" style="stroke:#000000; stroke-linecap:butt; stroke-linejoin:round; stroke-width:2; stroke-opacity:0.1; fill:none" points="
  279.704,723.709 2352.76,723.709 
  "></polyline>
<polyline clip-path="url(#clip702)" style="stroke:#000000; stroke-linecap:butt; stroke-linejoin:round; stroke-width:2; stroke-opacity:0.1; fill:none" points="
  279.704,450.926 2352.76,450.926 
  "></polyline>
<polyline clip-path="url(#clip702)" style="stroke:#000000; stroke-linecap:butt; stroke-linejoin:round; stroke-width:2; stroke-opacity:0.1; fill:none" points="
  279.704,178.142 2352.76,178.142 
  "></polyline>
<polyline clip-path="url(#clip700)" style="stroke:#000000; stroke-linecap:butt; stroke-linejoin:round; stroke-width:4; stroke-opacity:1; fill:none" points="
  279.704,1423.18 279.704,123.472 
  "></polyline>
<polyline clip-path="url(#clip700)" style="stroke:#000000; stroke-linecap:butt; stroke-linejoin:round; stroke-width:4; stroke-opacity:1; fill:none" points="
  279.704,1269.28 298.602,1269.28 
  "></polyline>
<polyline clip-path="url(#clip700)" style="stroke:#000000; stroke-linecap:butt; stroke-linejoin:round; stroke-width:4; stroke-opacity:1; fill:none" points="
  279.704,996.493 298.602,996.493 
  "></polyline>
<polyline clip-path="url(#clip700)" style="stroke:#000000; stroke-linecap:butt; stroke-linejoin:round; stroke-width:4; stroke-opacity:1; fill:none" points="
  279.704,723.709 298.602,723.709 
  "></polyline>
<polyline clip-path="url(#clip700)" style="stroke:#000000; stroke-linecap:butt; stroke-linejoin:round; stroke-width:4; stroke-opacity:1; fill:none" points="
  279.704,450.926 298.602,450.926 
  "></polyline>
<polyline clip-path="url(#clip700)" style="stroke:#000000; stroke-linecap:butt; stroke-linejoin:round; stroke-width:4; stroke-opacity:1; fill:none" points="
  279.704,178.142 298.602,178.142 
  "></polyline>
<path clip-path="url(#clip700)" d="M127.2 1255.07 Q123.589 1255.07 121.76 1258.64 Q119.955 1262.18 119.955 1269.31 Q119.955 1276.42 121.76 1279.98 Q123.589 1283.52 127.2 1283.52 Q130.834 1283.52 132.64 1279.98 Q134.468 1276.42 134.468 1269.31 Q134.468 1262.18 132.64 1258.64 Q130.834 1255.07 127.2 1255.07 M127.2 1251.37 Q133.01 1251.37 136.066 1255.98 Q139.144 1260.56 139.144 1269.31 Q139.144 1278.04 136.066 1282.64 Q133.01 1287.23 127.2 1287.23 Q121.39 1287.23 118.311 1282.64 Q115.256 1278.04 115.256 1269.31 Q115.256 1260.56 118.311 1255.98 Q121.39 1251.37 127.2 1251.37 Z" fill="#000000" fill-rule="evenodd" fill-opacity="1"></path><path clip-path="url(#clip700)" d="M147.362 1280.68 L152.246 1280.68 L152.246 1286.56 L147.362 1286.56 L147.362 1280.68 Z" fill="#000000" fill-rule="evenodd" fill-opacity="1"></path><path clip-path="url(#clip700)" d="M175.278 1256.07 L163.473 1274.52 L175.278 1274.52 L175.278 1256.07 M174.052 1252 L179.931 1252 L179.931 1274.52 L184.862 1274.52 L184.862 1278.41 L179.931 1278.41 L179.931 1286.56 L175.278 1286.56 L175.278 1278.41 L159.677 1278.41 L159.677 1273.89 L174.052 1252 Z" fill="#000000" fill-rule="evenodd" fill-opacity="1"></path><path clip-path="url(#clip700)" d="M196.621 1282.62 L212.94 1282.62 L212.94 1286.56 L190.996 1286.56 L190.996 1282.62 Q193.658 1279.87 198.241 1275.24 Q202.848 1270.58 204.028 1269.24 Q206.274 1266.72 207.153 1264.98 Q208.056 1263.22 208.056 1261.53 Q208.056 1258.78 206.112 1257.04 Q204.19 1255.31 201.088 1255.31 Q198.889 1255.31 196.436 1256.07 Q194.005 1256.83 191.227 1258.38 L191.227 1253.66 Q194.051 1252.53 196.505 1251.95 Q198.959 1251.37 200.996 1251.37 Q206.366 1251.37 209.561 1254.06 Q212.755 1256.74 212.755 1261.23 Q212.755 1263.36 211.945 1265.28 Q211.158 1267.18 209.051 1269.77 Q208.473 1270.44 205.371 1273.66 Q202.269 1276.86 196.621 1282.62 Z" fill="#000000" fill-rule="evenodd" fill-opacity="1"></path><path clip-path="url(#clip700)" d="M222.801 1252 L241.158 1252 L241.158 1255.93 L227.084 1255.93 L227.084 1264.4 Q228.102 1264.06 229.121 1263.89 Q230.139 1263.71 231.158 1263.71 Q236.945 1263.71 240.324 1266.88 Q243.704 1270.05 243.704 1275.47 Q243.704 1281.05 240.232 1284.15 Q236.76 1287.23 230.44 1287.23 Q228.264 1287.23 225.996 1286.86 Q223.75 1286.49 221.343 1285.75 L221.343 1281.05 Q223.426 1282.18 225.648 1282.74 Q227.871 1283.29 230.347 1283.29 Q234.352 1283.29 236.69 1281.19 Q239.028 1279.08 239.028 1275.47 Q239.028 1271.86 236.69 1269.75 Q234.352 1267.64 230.347 1267.64 Q228.473 1267.64 226.598 1268.06 Q224.746 1268.48 222.801 1269.36 L222.801 1252 Z" fill="#000000" fill-rule="evenodd" fill-opacity="1"></path><path clip-path="url(#clip700)" d="M126.205 982.291 Q122.593 982.291 120.765 985.856 Q118.959 989.398 118.959 996.527 Q118.959 1003.63 120.765 1007.2 Q122.593 1010.74 126.205 1010.74 Q129.839 1010.74 131.644 1007.2 Q133.473 1003.63 133.473 996.527 Q133.473 989.398 131.644 985.856 Q129.839 982.291 126.205 982.291 M126.205 978.588 Q132.015 978.588 135.07 983.194 Q138.149 987.777 138.149 996.527 Q138.149 1005.25 135.07 1009.86 Q132.015 1014.44 126.205 1014.44 Q120.394 1014.44 117.316 1009.86 Q114.26 1005.25 114.26 996.527 Q114.26 987.777 117.316 983.194 Q120.394 978.588 126.205 978.588 Z" fill="#000000" fill-rule="evenodd" fill-opacity="1"></path><path clip-path="url(#clip700)" d="M146.366 1007.89 L151.251 1007.89 L151.251 1013.77 L146.366 1013.77 L146.366 1007.89 Z" fill="#000000" fill-rule="evenodd" fill-opacity="1"></path><path clip-path="url(#clip700)" d="M174.283 983.287 L162.477 1001.74 L174.283 1001.74 L174.283 983.287 M173.056 979.213 L178.936 979.213 L178.936 1001.74 L183.866 1001.74 L183.866 1005.62 L178.936 1005.62 L178.936 1013.77 L174.283 1013.77 L174.283 1005.62 L158.681 1005.62 L158.681 1001.11 L173.056 979.213 Z" fill="#000000" fill-rule="evenodd" fill-opacity="1"></path><path clip-path="url(#clip700)" d="M191.644 979.213 L210 979.213 L210 983.148 L195.926 983.148 L195.926 991.62 Q196.945 991.273 197.963 991.111 Q198.982 990.925 200 990.925 Q205.787 990.925 209.167 994.097 Q212.547 997.268 212.547 1002.68 Q212.547 1008.26 209.074 1011.37 Q205.602 1014.44 199.283 1014.44 Q197.107 1014.44 194.838 1014.07 Q192.593 1013.7 190.186 1012.96 L190.186 1008.26 Q192.269 1009.4 194.491 1009.95 Q196.713 1010.51 199.19 1010.51 Q203.195 1010.51 205.533 1008.4 Q207.871 1006.3 207.871 1002.68 Q207.871 999.074 205.533 996.967 Q203.195 994.861 199.19 994.861 Q197.315 994.861 195.44 995.277 Q193.588 995.694 191.644 996.574 L191.644 979.213 Z" fill="#000000" fill-rule="evenodd" fill-opacity="1"></path><path clip-path="url(#clip700)" d="M231.76 982.291 Q228.148 982.291 226.32 985.856 Q224.514 989.398 224.514 996.527 Q224.514 1003.63 226.32 1007.2 Q228.148 1010.74 231.76 1010.74 Q235.394 1010.74 237.199 1007.2 Q239.028 1003.63 239.028 996.527 Q239.028 989.398 237.199 985.856 Q235.394 982.291 231.76 982.291 M231.76 978.588 Q237.57 978.588 240.625 983.194 Q243.704 987.777 243.704 996.527 Q243.704 1005.25 240.625 1009.86 Q237.57 1014.44 231.76 1014.44 Q225.949 1014.44 222.871 1009.86 Q219.815 1005.25 219.815 996.527 Q219.815 987.777 222.871 983.194 Q225.949 978.588 231.76 978.588 Z" fill="#000000" fill-rule="evenodd" fill-opacity="1"></path><path clip-path="url(#clip700)" d="M127.2 709.508 Q123.589 709.508 121.76 713.073 Q119.955 716.614 119.955 723.744 Q119.955 730.85 121.76 734.415 Q123.589 737.957 127.2 737.957 Q130.834 737.957 132.64 734.415 Q134.468 730.85 134.468 723.744 Q134.468 716.614 132.64 713.073 Q130.834 709.508 127.2 709.508 M127.2 705.804 Q133.01 705.804 136.066 710.411 Q139.144 714.994 139.144 723.744 Q139.144 732.471 136.066 737.077 Q133.01 741.66 127.2 741.66 Q121.39 741.66 118.311 737.077 Q115.256 732.471 115.256 723.744 Q115.256 714.994 118.311 710.411 Q121.39 705.804 127.2 705.804 Z" fill="#000000" fill-rule="evenodd" fill-opacity="1"></path><path clip-path="url(#clip700)" d="M147.362 735.11 L152.246 735.11 L152.246 740.989 L147.362 740.989 L147.362 735.11 Z" fill="#000000" fill-rule="evenodd" fill-opacity="1"></path><path clip-path="url(#clip700)" d="M175.278 710.503 L163.473 728.952 L175.278 728.952 L175.278 710.503 M174.052 706.429 L179.931 706.429 L179.931 728.952 L184.862 728.952 L184.862 732.841 L179.931 732.841 L179.931 740.989 L175.278 740.989 L175.278 732.841 L159.677 732.841 L159.677 728.327 L174.052 706.429 Z" fill="#000000" fill-rule="evenodd" fill-opacity="1"></path><path clip-path="url(#clip700)" d="M191.413 706.429 L213.635 706.429 L213.635 708.42 L201.088 740.989 L196.204 740.989 L208.01 710.364 L191.413 710.364 L191.413 706.429 Z" fill="#000000" fill-rule="evenodd" fill-opacity="1"></path><path clip-path="url(#clip700)" d="M222.801 706.429 L241.158 706.429 L241.158 710.364 L227.084 710.364 L227.084 718.837 Q228.102 718.489 229.121 718.327 Q230.139 718.142 231.158 718.142 Q236.945 718.142 240.324 721.313 Q243.704 724.485 243.704 729.901 Q243.704 735.48 240.232 738.582 Q236.76 741.66 230.44 741.66 Q228.264 741.66 225.996 741.29 Q223.75 740.92 221.343 740.179 L221.343 735.48 Q223.426 736.614 225.648 737.17 Q227.871 737.725 230.347 737.725 Q234.352 737.725 236.69 735.619 Q239.028 733.512 239.028 729.901 Q239.028 726.29 236.69 724.184 Q234.352 722.077 230.347 722.077 Q228.473 722.077 226.598 722.494 Q224.746 722.911 222.801 723.79 L222.801 706.429 Z" fill="#000000" fill-rule="evenodd" fill-opacity="1"></path><path clip-path="url(#clip700)" d="M126.205 436.724 Q122.593 436.724 120.765 440.289 Q118.959 443.831 118.959 450.961 Q118.959 458.067 120.765 461.632 Q122.593 465.173 126.205 465.173 Q129.839 465.173 131.644 461.632 Q133.473 458.067 133.473 450.961 Q133.473 443.831 131.644 440.289 Q129.839 436.724 126.205 436.724 M126.205 433.021 Q132.015 433.021 135.07 437.627 Q138.149 442.211 138.149 450.961 Q138.149 459.687 135.07 464.294 Q132.015 468.877 126.205 468.877 Q120.394 468.877 117.316 464.294 Q114.26 459.687 114.26 450.961 Q114.26 442.211 117.316 437.627 Q120.394 433.021 126.205 433.021 Z" fill="#000000" fill-rule="evenodd" fill-opacity="1"></path><path clip-path="url(#clip700)" d="M146.366 462.326 L151.251 462.326 L151.251 468.206 L146.366 468.206 L146.366 462.326 Z" fill="#000000" fill-rule="evenodd" fill-opacity="1"></path><path clip-path="url(#clip700)" d="M161.482 433.646 L179.839 433.646 L179.839 437.581 L165.765 437.581 L165.765 446.053 Q166.783 445.706 167.802 445.544 Q168.82 445.359 169.839 445.359 Q175.626 445.359 179.005 448.53 Q182.385 451.701 182.385 457.118 Q182.385 462.697 178.913 465.798 Q175.44 468.877 169.121 468.877 Q166.945 468.877 164.677 468.507 Q162.431 468.136 160.024 467.396 L160.024 462.697 Q162.107 463.831 164.329 464.386 Q166.552 464.942 169.028 464.942 Q173.033 464.942 175.371 462.835 Q177.709 460.729 177.709 457.118 Q177.709 453.507 175.371 451.4 Q173.033 449.294 169.028 449.294 Q167.153 449.294 165.278 449.711 Q163.427 450.127 161.482 451.007 L161.482 433.646 Z" fill="#000000" fill-rule="evenodd" fill-opacity="1"></path><path clip-path="url(#clip700)" d="M201.598 436.724 Q197.987 436.724 196.158 440.289 Q194.352 443.831 194.352 450.961 Q194.352 458.067 196.158 461.632 Q197.987 465.173 201.598 465.173 Q205.232 465.173 207.037 461.632 Q208.866 458.067 208.866 450.961 Q208.866 443.831 207.037 440.289 Q205.232 436.724 201.598 436.724 M201.598 433.021 Q207.408 433.021 210.463 437.627 Q213.542 442.211 213.542 450.961 Q213.542 459.687 210.463 464.294 Q207.408 468.877 201.598 468.877 Q195.787 468.877 192.709 464.294 Q189.653 459.687 189.653 450.961 Q189.653 442.211 192.709 437.627 Q195.787 433.021 201.598 433.021 Z" fill="#000000" fill-rule="evenodd" fill-opacity="1"></path><path clip-path="url(#clip700)" d="M231.76 436.724 Q228.148 436.724 226.32 440.289 Q224.514 443.831 224.514 450.961 Q224.514 458.067 226.32 461.632 Q228.148 465.173 231.76 465.173 Q235.394 465.173 237.199 461.632 Q239.028 458.067 239.028 450.961 Q239.028 443.831 237.199 440.289 Q235.394 436.724 231.76 436.724 M231.76 433.021 Q237.57 433.021 240.625 437.627 Q243.704 442.211 243.704 450.961 Q243.704 459.687 240.625 464.294 Q237.57 468.877 231.76 468.877 Q225.949 468.877 222.871 464.294 Q219.815 459.687 219.815 450.961 Q219.815 442.211 222.871 437.627 Q225.949 433.021 231.76 433.021 Z" fill="#000000" fill-rule="evenodd" fill-opacity="1"></path><path clip-path="url(#clip700)" d="M127.2 163.941 Q123.589 163.941 121.76 167.506 Q119.955 171.048 119.955 178.177 Q119.955 185.284 121.76 188.848 Q123.589 192.39 127.2 192.39 Q130.834 192.39 132.64 188.848 Q134.468 185.284 134.468 178.177 Q134.468 171.048 132.64 167.506 Q130.834 163.941 127.2 163.941 M127.2 160.237 Q133.01 160.237 136.066 164.844 Q139.144 169.427 139.144 178.177 Q139.144 186.904 136.066 191.51 Q133.01 196.094 127.2 196.094 Q121.39 196.094 118.311 191.51 Q115.256 186.904 115.256 178.177 Q115.256 169.427 118.311 164.844 Q121.39 160.237 127.2 160.237 Z" fill="#000000" fill-rule="evenodd" fill-opacity="1"></path><path clip-path="url(#clip700)" d="M147.362 189.543 L152.246 189.543 L152.246 195.422 L147.362 195.422 L147.362 189.543 Z" fill="#000000" fill-rule="evenodd" fill-opacity="1"></path><path clip-path="url(#clip700)" d="M162.477 160.862 L180.834 160.862 L180.834 164.798 L166.76 164.798 L166.76 173.27 Q167.778 172.923 168.797 172.76 Q169.815 172.575 170.834 172.575 Q176.621 172.575 180.001 175.747 Q183.38 178.918 183.38 184.334 Q183.38 189.913 179.908 193.015 Q176.436 196.094 170.116 196.094 Q167.94 196.094 165.672 195.723 Q163.427 195.353 161.019 194.612 L161.019 189.913 Q163.102 191.047 165.325 191.603 Q167.547 192.159 170.024 192.159 Q174.028 192.159 176.366 190.052 Q178.704 187.946 178.704 184.334 Q178.704 180.723 176.366 178.617 Q174.028 176.51 170.024 176.51 Q168.149 176.51 166.274 176.927 Q164.422 177.344 162.477 178.223 L162.477 160.862 Z" fill="#000000" fill-rule="evenodd" fill-opacity="1"></path><path clip-path="url(#clip700)" d="M196.621 191.487 L212.94 191.487 L212.94 195.422 L190.996 195.422 L190.996 191.487 Q193.658 188.733 198.241 184.103 Q202.848 179.45 204.028 178.108 Q206.274 175.585 207.153 173.848 Q208.056 172.089 208.056 170.399 Q208.056 167.645 206.112 165.909 Q204.19 164.173 201.088 164.173 Q198.889 164.173 196.436 164.936 Q194.005 165.7 191.227 167.251 L191.227 162.529 Q194.051 161.395 196.505 160.816 Q198.959 160.237 200.996 160.237 Q206.366 160.237 209.561 162.923 Q212.755 165.608 212.755 170.098 Q212.755 172.228 211.945 174.149 Q211.158 176.048 209.051 178.64 Q208.473 179.311 205.371 182.529 Q202.269 185.723 196.621 191.487 Z" fill="#000000" fill-rule="evenodd" fill-opacity="1"></path><path clip-path="url(#clip700)" d="M222.801 160.862 L241.158 160.862 L241.158 164.798 L227.084 164.798 L227.084 173.27 Q228.102 172.923 229.121 172.76 Q230.139 172.575 231.158 172.575 Q236.945 172.575 240.324 175.747 Q243.704 178.918 243.704 184.334 Q243.704 189.913 240.232 193.015 Q236.76 196.094 230.44 196.094 Q228.264 196.094 225.996 195.723 Q223.75 195.353 221.343 194.612 L221.343 189.913 Q223.426 191.047 225.648 191.603 Q227.871 192.159 230.347 192.159 Q234.352 192.159 236.69 190.052 Q239.028 187.946 239.028 184.334 Q239.028 180.723 236.69 178.617 Q234.352 176.51 230.347 176.51 Q228.473 176.51 226.598 176.927 Q224.746 177.344 222.801 178.223 L222.801 160.862 Z" fill="#000000" fill-rule="evenodd" fill-opacity="1"></path><path clip-path="url(#clip700)" d="M18.0438 1094.51 L24.314 1094.51 Q22.5634 1098.17 21.704 1101.41 Q20.8447 1104.66 20.8447 1107.68 Q20.8447 1112.94 22.8817 1115.8 Q24.9187 1118.63 28.6745 1118.63 Q31.8255 1118.63 33.4488 1116.76 Q35.0402 1114.85 36.0269 1109.56 L36.8226 1105.68 Q38.1912 1098.49 41.6605 1095.08 Q45.098 1091.64 50.8908 1091.64 Q57.7976 1091.64 61.3624 1096.29 Q64.9272 1100.91 64.9272 1109.85 Q64.9272 1113.22 64.1633 1117.04 Q63.3994 1120.83 61.9035 1124.9 L55.2831 1124.9 Q57.4793 1120.99 58.5933 1117.23 Q59.7073 1113.48 59.7073 1109.85 Q59.7073 1104.34 57.543 1101.35 Q55.3786 1098.36 51.3682 1098.36 Q47.8671 1098.36 45.8937 1100.52 Q43.9204 1102.66 42.9337 1107.56 L42.1698 1111.47 Q40.7375 1118.67 37.682 1121.88 Q34.6264 1125.09 29.1837 1125.09 Q22.8817 1125.09 19.2532 1120.67 Q15.6248 1116.21 15.6248 1108.42 Q15.6248 1105.07 16.2295 1101.61 Q16.8343 1098.14 18.0438 1094.51 Z" fill="#000000" fill-rule="evenodd" fill-opacity="1"></path><path clip-path="url(#clip700)" d="M58.657 1076.21 L77.5631 1076.21 L77.5631 1082.09 L28.3562 1082.09 L28.3562 1076.21 L33.7671 1076.21 Q30.5842 1074.36 29.0564 1071.56 Q27.4968 1068.73 27.4968 1064.81 Q27.4968 1058.32 32.6531 1054.28 Q37.8093 1050.2 46.212 1050.2 Q54.6147 1050.2 59.771 1054.28 Q64.9272 1058.32 64.9272 1064.81 Q64.9272 1068.73 63.3994 1071.56 Q61.8398 1074.36 58.657 1076.21 M46.212 1056.28 Q39.7508 1056.28 36.0905 1058.96 Q32.3984 1061.6 32.3984 1066.24 Q32.3984 1070.89 36.0905 1073.56 Q39.7508 1076.21 46.212 1076.21 Q52.6732 1076.21 56.3653 1073.56 Q60.0256 1070.89 60.0256 1066.24 Q60.0256 1061.6 56.3653 1058.96 Q52.6732 1056.28 46.212 1056.28 Z" fill="#000000" fill-rule="evenodd" fill-opacity="1"></path><path clip-path="url(#clip700)" d="M44.7161 1010 L47.5806 1010 L47.5806 1036.93 Q53.6281 1036.55 56.8109 1033.3 Q59.9619 1030.02 59.9619 1024.2 Q59.9619 1020.82 59.1344 1017.67 Q58.3069 1014.49 56.6518 1011.37 L62.1899 1011.37 Q63.5267 1014.52 64.227 1017.83 Q64.9272 1021.14 64.9272 1024.55 Q64.9272 1033.08 59.9619 1038.08 Q54.9967 1043.04 46.5303 1043.04 Q37.7774 1043.04 32.6531 1038.33 Q27.4968 1033.59 27.4968 1025.57 Q27.4968 1018.37 32.1438 1014.2 Q36.7589 1010 44.7161 1010 M42.9973 1015.86 Q38.1912 1015.92 35.3266 1018.56 Q32.4621 1021.17 32.4621 1025.5 Q32.4621 1030.41 35.2312 1033.37 Q38.0002 1036.29 43.0292 1036.74 L42.9973 1015.86 Z" fill="#000000" fill-rule="evenodd" fill-opacity="1"></path><path clip-path="url(#clip700)" d="M46.0847 984.19 Q46.0847 991.288 47.7079 994.025 Q49.3312 996.762 53.2461 996.762 Q56.3653 996.762 58.2114 994.725 Q60.0256 992.656 60.0256 989.123 Q60.0256 984.254 56.5881 981.325 Q53.1188 978.365 47.3897 978.365 L46.0847 978.365 L46.0847 984.19 M43.6657 972.509 L64.0042 972.509 L64.0042 978.365 L58.5933 978.365 Q61.8398 980.371 63.3994 983.362 Q64.9272 986.354 64.9272 990.683 Q64.9272 996.158 61.8716 999.404 Q58.7843 1002.62 53.6281 1002.62 Q47.6125 1002.62 44.5569 998.608 Q41.5014 994.566 41.5014 986.577 L41.5014 978.365 L40.9285 978.365 Q36.8862 978.365 34.6901 981.039 Q32.4621 983.681 32.4621 988.487 Q32.4621 991.542 33.1941 994.439 Q33.9262 997.335 35.3903 1000.01 L29.9795 1000.01 Q28.7381 996.794 28.1334 993.77 Q27.4968 990.747 27.4968 987.882 Q27.4968 980.148 31.5072 976.328 Q35.5176 972.509 43.6657 972.509 Z" fill="#000000" fill-rule="evenodd" fill-opacity="1"></path><path clip-path="url(#clip700)" d="M33.8307 939.789 Q33.2578 940.776 33.0032 941.954 Q32.7167 943.099 32.7167 944.5 Q32.7167 949.465 35.9632 952.139 Q39.1779 954.78 45.2253 954.78 L64.0042 954.78 L64.0042 960.669 L28.3562 960.669 L28.3562 954.78 L33.8944 954.78 Q30.6479 952.934 29.0883 949.974 Q27.4968 947.014 27.4968 942.781 Q27.4968 942.176 27.5923 941.444 Q27.656 940.712 27.8151 939.821 L33.8307 939.789 Z" fill="#000000" fill-rule="evenodd" fill-opacity="1"></path><path clip-path="url(#clip700)" d="M35.1993 907.038 Q31.2526 904.841 29.3747 901.786 Q27.4968 898.73 27.4968 894.593 Q27.4968 889.023 31.4117 885.999 Q35.2948 882.975 42.4881 882.975 L64.0042 882.975 L64.0042 888.864 L42.679 888.864 Q37.5546 888.864 35.072 890.678 Q32.5894 892.492 32.5894 896.216 Q32.5894 900.767 35.6131 903.409 Q38.6368 906.051 43.8567 906.051 L64.0042 906.051 L64.0042 911.939 L42.679 911.939 Q37.5228 911.939 35.072 913.753 Q32.5894 915.568 32.5894 919.355 Q32.5894 923.843 35.6449 926.485 Q38.6686 929.127 43.8567 929.127 L64.0042 929.127 L64.0042 935.015 L28.3562 935.015 L28.3562 929.127 L33.8944 929.127 Q30.616 927.121 29.0564 924.321 Q27.4968 921.52 27.4968 917.668 Q27.4968 913.785 29.4702 911.08 Q31.4436 908.343 35.1993 907.038 Z" fill="#000000" fill-rule="evenodd" fill-opacity="1"></path><path clip-path="url(#clip700)" d="M46.0847 855.093 Q46.0847 862.191 47.7079 864.929 Q49.3312 867.666 53.2461 867.666 Q56.3653 867.666 58.2114 865.629 Q60.0256 863.56 60.0256 860.027 Q60.0256 855.157 56.5881 852.229 Q53.1188 849.269 47.3897 849.269 L46.0847 849.269 L46.0847 855.093 M43.6657 843.412 L64.0042 843.412 L64.0042 849.269 L58.5933 849.269 Q61.8398 851.274 63.3994 854.266 Q64.9272 857.258 64.9272 861.587 Q64.9272 867.061 61.8716 870.308 Q58.7843 873.522 53.6281 873.522 Q47.6125 873.522 44.5569 869.512 Q41.5014 865.47 41.5014 857.481 L41.5014 849.269 L40.9285 849.269 Q36.8862 849.269 34.6901 851.942 Q32.4621 854.584 32.4621 859.39 Q32.4621 862.446 33.1941 865.342 Q33.9262 868.239 35.3903 870.912 L29.9795 870.912 Q28.7381 867.698 28.1334 864.674 Q27.4968 861.65 27.4968 858.786 Q27.4968 851.051 31.5072 847.232 Q35.5176 843.412 43.6657 843.412 Z" fill="#000000" fill-rule="evenodd" fill-opacity="1"></path><path clip-path="url(#clip700)" d="M42.4881 801.717 L64.0042 801.717 L64.0042 807.573 L42.679 807.573 Q37.6183 807.573 35.1038 809.547 Q32.5894 811.52 32.5894 815.467 Q32.5894 820.209 35.6131 822.947 Q38.6368 825.684 43.8567 825.684 L64.0042 825.684 L64.0042 831.572 L28.3562 831.572 L28.3562 825.684 L33.8944 825.684 Q30.6797 823.583 29.0883 820.75 Q27.4968 817.886 27.4968 814.162 Q27.4968 808.019 31.3163 804.868 Q35.1038 801.717 42.4881 801.717 Z" fill="#000000" fill-rule="evenodd" fill-opacity="1"></path><path clip-path="url(#clip700)" d="M20.1444 733.477 L26.9239 733.477 Q23.9002 736.723 22.4043 740.415 Q20.9083 744.076 20.9083 748.213 Q20.9083 756.361 25.9054 760.69 Q30.8707 765.019 40.2919 765.019 Q49.6813 765.019 54.6784 760.69 Q59.6436 756.361 59.6436 748.213 Q59.6436 744.076 58.1477 740.415 Q56.6518 736.723 53.6281 733.477 L60.3439 733.477 Q62.6355 736.85 63.7814 740.638 Q64.9272 744.394 64.9272 748.595 Q64.9272 759.385 58.3387 765.592 Q51.7183 771.798 40.2919 771.798 Q28.8336 771.798 22.2451 765.592 Q15.6248 759.385 15.6248 748.595 Q15.6248 744.33 16.7706 740.574 Q17.8846 736.787 20.1444 733.477 Z" fill="#000000" fill-rule="evenodd" fill-opacity="1"></path><path clip-path="url(#clip700)" d="M32.4621 709.987 Q32.4621 714.698 36.1542 717.435 Q39.8145 720.172 46.212 720.172 Q52.6095 720.172 56.3017 717.467 Q59.9619 714.73 59.9619 709.987 Q59.9619 705.308 56.2698 702.571 Q52.5777 699.834 46.212 699.834 Q39.8781 699.834 36.186 702.571 Q32.4621 705.308 32.4621 709.987 M27.4968 709.987 Q27.4968 702.348 32.4621 697.988 Q37.4273 693.627 46.212 693.627 Q54.9649 693.627 59.9619 697.988 Q64.9272 702.348 64.9272 709.987 Q64.9272 717.658 59.9619 722.018 Q54.9649 726.347 46.212 726.347 Q37.4273 726.347 32.4621 722.018 Q27.4968 717.658 27.4968 709.987 Z" fill="#000000" fill-rule="evenodd" fill-opacity="1"></path><path clip-path="url(#clip700)" d="M33.8307 663.263 Q33.2578 664.25 33.0032 665.427 Q32.7167 666.573 32.7167 667.974 Q32.7167 672.939 35.9632 675.612 Q39.1779 678.254 45.2253 678.254 L64.0042 678.254 L64.0042 684.142 L28.3562 684.142 L28.3562 678.254 L33.8944 678.254 Q30.6479 676.408 29.0883 673.448 Q27.4968 670.488 27.4968 666.255 Q27.4968 665.65 27.5923 664.918 Q27.656 664.186 27.8151 663.295 L33.8307 663.263 Z" fill="#000000" fill-rule="evenodd" fill-opacity="1"></path><path clip-path="url(#clip700)" d="M33.8307 637.609 Q33.2578 638.596 33.0032 639.773 Q32.7167 640.919 32.7167 642.32 Q32.7167 647.285 35.9632 649.959 Q39.1779 652.6 45.2253 652.6 L64.0042 652.6 L64.0042 658.489 L28.3562 658.489 L28.3562 652.6 L33.8944 652.6 Q30.6479 650.754 29.0883 647.794 Q27.4968 644.834 27.4968 640.601 Q27.4968 639.996 27.5923 639.264 Q27.656 638.532 27.8151 637.641 L33.8307 637.609 Z" fill="#000000" fill-rule="evenodd" fill-opacity="1"></path><path clip-path="url(#clip700)" d="M44.7161 602.407 L47.5806 602.407 L47.5806 629.334 Q53.6281 628.952 56.8109 625.705 Q59.9619 622.427 59.9619 616.602 Q59.9619 613.228 59.1344 610.077 Q58.3069 606.895 56.6518 603.775 L62.1899 603.775 Q63.5267 606.926 64.227 610.237 Q64.9272 613.547 64.9272 616.952 Q64.9272 625.482 59.9619 630.48 Q54.9967 635.445 46.5303 635.445 Q37.7774 635.445 32.6531 630.734 Q27.4968 625.992 27.4968 617.971 Q27.4968 610.778 32.1438 606.608 Q36.7589 602.407 44.7161 602.407 M42.9973 608.263 Q38.1912 608.327 35.3266 610.969 Q32.4621 613.579 32.4621 617.907 Q32.4621 622.809 35.2312 625.769 Q38.0002 628.697 43.0292 629.143 L42.9973 608.263 Z" fill="#000000" fill-rule="evenodd" fill-opacity="1"></path><path clip-path="url(#clip700)" d="M14.479 592.795 L14.479 586.938 L64.0042 586.938 L64.0042 592.795 L14.479 592.795 Z" fill="#000000" fill-rule="evenodd" fill-opacity="1"></path><path clip-path="url(#clip700)" d="M46.0847 558.483 Q46.0847 565.581 47.7079 568.318 Q49.3312 571.056 53.2461 571.056 Q56.3653 571.056 58.2114 569.019 Q60.0256 566.95 60.0256 563.417 Q60.0256 558.547 56.5881 555.619 Q53.1188 552.659 47.3897 552.659 L46.0847 552.659 L46.0847 558.483 M43.6657 546.802 L64.0042 546.802 L64.0042 552.659 L58.5933 552.659 Q61.8398 554.664 63.3994 557.656 Q64.9272 560.648 64.9272 564.976 Q64.9272 570.451 61.8716 573.697 Q58.7843 576.912 53.6281 576.912 Q47.6125 576.912 44.5569 572.902 Q41.5014 568.859 41.5014 560.871 L41.5014 552.659 L40.9285 552.659 Q36.8862 552.659 34.6901 555.332 Q32.4621 557.974 32.4621 562.78 Q32.4621 565.836 33.1941 568.732 Q33.9262 571.629 35.3903 574.302 L29.9795 574.302 Q28.7381 571.087 28.1334 568.064 Q27.4968 565.04 27.4968 562.175 Q27.4968 554.441 31.5072 550.622 Q35.5176 546.802 43.6657 546.802 Z" fill="#000000" fill-rule="evenodd" fill-opacity="1"></path><path clip-path="url(#clip700)" d="M18.2347 528.947 L28.3562 528.947 L28.3562 516.883 L32.9077 516.883 L32.9077 528.947 L52.2594 528.947 Q56.6199 528.947 57.8613 527.769 Q59.1026 526.559 59.1026 522.899 L59.1026 516.883 L64.0042 516.883 L64.0042 522.899 Q64.0042 529.679 61.4897 532.257 Q58.9434 534.835 52.2594 534.835 L32.9077 534.835 L32.9077 539.132 L28.3562 539.132 L28.3562 534.835 L18.2347 534.835 L18.2347 528.947 Z" fill="#000000" fill-rule="evenodd" fill-opacity="1"></path><path clip-path="url(#clip700)" d="M28.3562 509.181 L28.3562 503.325 L64.0042 503.325 L64.0042 509.181 L28.3562 509.181 M14.479 509.181 L14.479 503.325 L21.895 503.325 L21.895 509.181 L14.479 509.181 Z" fill="#000000" fill-rule="evenodd" fill-opacity="1"></path><path clip-path="url(#clip700)" d="M32.4621 477.257 Q32.4621 481.968 36.1542 484.705 Q39.8145 487.442 46.212 487.442 Q52.6095 487.442 56.3017 484.737 Q59.9619 481.999 59.9619 477.257 Q59.9619 472.578 56.2698 469.841 Q52.5777 467.104 46.212 467.104 Q39.8781 467.104 36.186 469.841 Q32.4621 472.578 32.4621 477.257 M27.4968 477.257 Q27.4968 469.618 32.4621 465.258 Q37.4273 460.897 46.212 460.897 Q54.9649 460.897 59.9619 465.258 Q64.9272 469.618 64.9272 477.257 Q64.9272 484.928 59.9619 489.288 Q54.9649 493.617 46.212 493.617 Q37.4273 493.617 32.4621 489.288 Q27.4968 484.928 27.4968 477.257 Z" fill="#000000" fill-rule="evenodd" fill-opacity="1"></path><path clip-path="url(#clip700)" d="M42.4881 421.557 L64.0042 421.557 L64.0042 427.413 L42.679 427.413 Q37.6183 427.413 35.1038 429.387 Q32.5894 431.36 32.5894 435.307 Q32.5894 440.049 35.6131 442.787 Q38.6368 445.524 43.8567 445.524 L64.0042 445.524 L64.0042 451.412 L28.3562 451.412 L28.3562 445.524 L33.8944 445.524 Q30.6797 443.423 29.0883 440.59 Q27.4968 437.726 27.4968 434.002 Q27.4968 427.859 31.3163 424.708 Q35.1038 421.557 42.4881 421.557 Z" fill="#000000" fill-rule="evenodd" fill-opacity="1"></path><path clip-path="url(#clip700)" d="M470.928 14.0809 L470.928 22.0612 Q466.269 19.8332 462.137 18.7395 Q458.005 17.6457 454.157 17.6457 Q447.473 17.6457 443.827 20.2383 Q440.222 22.8309 440.222 27.611 Q440.222 31.6214 442.612 33.6873 Q445.042 35.7128 451.767 36.9686 L456.709 37.9813 Q465.864 39.7232 470.199 44.1387 Q474.574 48.5136 474.574 55.8863 Q474.574 64.6767 468.659 69.2137 Q462.785 73.7508 451.402 73.7508 Q447.108 73.7508 442.247 72.7785 Q437.427 71.8063 432.242 69.9024 L432.242 61.4765 Q437.224 64.2716 442.004 65.6895 Q446.784 67.1073 451.402 67.1073 Q458.41 67.1073 462.218 64.3527 Q466.026 61.598 466.026 56.4939 Q466.026 52.0379 463.272 49.5264 Q460.557 47.0148 454.319 45.759 L449.336 44.7868 Q440.181 42.9639 436.09 39.075 Q431.999 35.1862 431.999 28.2591 Q431.999 20.2383 437.629 15.6203 Q443.301 11.0023 453.225 11.0023 Q457.479 11.0023 461.894 11.7719 Q466.31 12.5416 470.928 14.0809 Z" fill="#000000" fill-rule="evenodd" fill-opacity="1"></path><path clip-path="url(#clip700)" d="M494.22 65.7705 L494.22 89.8329 L486.726 89.8329 L486.726 27.2059 L494.22 27.2059 L494.22 34.0924 Q496.57 30.0415 500.135 28.0971 Q503.74 26.1121 508.723 26.1121 Q516.987 26.1121 522.131 32.6746 Q527.316 39.2371 527.316 49.9314 Q527.316 60.6258 522.131 67.1883 Q516.987 73.7508 508.723 73.7508 Q503.74 73.7508 500.135 71.8063 Q496.57 69.8214 494.22 65.7705 M519.579 49.9314 Q519.579 41.7081 516.176 37.0496 Q512.814 32.3505 506.9 32.3505 Q500.985 32.3505 497.583 37.0496 Q494.22 41.7081 494.22 49.9314 Q494.22 58.1548 497.583 62.8538 Q500.985 67.5124 506.9 67.5124 Q512.814 67.5124 516.176 62.8538 Q519.579 58.1548 519.579 49.9314 Z" fill="#000000" fill-rule="evenodd" fill-opacity="1"></path><path clip-path="url(#clip700)" d="M578.479 48.0275 L578.479 51.6733 L544.209 51.6733 Q544.695 59.3701 548.827 63.421 Q552.999 67.4314 560.412 67.4314 Q564.706 67.4314 568.717 66.3781 Q572.767 65.3249 576.737 63.2184 L576.737 70.267 Q572.727 71.9684 568.514 72.8596 Q564.301 73.7508 559.967 73.7508 Q549.11 73.7508 542.75 67.4314 Q536.431 61.1119 536.431 50.3365 Q536.431 39.1965 542.426 32.6746 Q548.462 26.1121 558.67 26.1121 Q567.825 26.1121 573.132 32.0264 Q578.479 37.9003 578.479 48.0275 M571.026 45.84 Q570.945 39.7232 567.582 36.0774 Q564.261 32.4315 558.751 32.4315 Q552.513 32.4315 548.746 35.9558 Q545.019 39.4801 544.452 45.8805 L571.026 45.84 Z" fill="#000000" fill-rule="evenodd" fill-opacity="1"></path><path clip-path="url(#clip700)" d="M611.332 49.7694 Q602.299 49.7694 598.815 51.8354 Q595.331 53.9013 595.331 58.8839 Q595.331 62.8538 597.924 65.2034 Q600.557 67.5124 605.053 67.5124 Q611.251 67.5124 614.978 63.1374 Q618.745 58.7219 618.745 51.4303 L618.745 49.7694 L611.332 49.7694 M626.199 46.6907 L626.199 72.576 L618.745 72.576 L618.745 65.6895 Q616.193 69.8214 612.385 71.8063 Q608.577 73.7508 603.068 73.7508 Q596.101 73.7508 591.969 69.8619 Q587.877 65.9325 587.877 59.3701 Q587.877 51.7138 592.981 47.825 Q598.126 43.9361 608.294 43.9361 L618.745 43.9361 L618.745 43.2069 Q618.745 38.0623 615.342 35.2672 Q611.98 32.4315 605.863 32.4315 Q601.974 32.4315 598.288 33.3632 Q594.602 34.295 591.199 36.1584 L591.199 29.2718 Q595.29 27.692 599.139 26.9223 Q602.987 26.1121 606.633 26.1121 Q616.477 26.1121 621.338 31.2163 Q626.199 36.3204 626.199 46.6907 Z" fill="#000000" fill-rule="evenodd" fill-opacity="1"></path><path clip-path="url(#clip700)" d="M667.842 34.1734 Q666.586 33.4443 665.088 33.1202 Q663.629 32.7556 661.847 32.7556 Q655.527 32.7556 652.125 36.8875 Q648.762 40.9789 648.762 48.6757 L648.762 72.576 L641.268 72.576 L641.268 27.2059 L648.762 27.2059 L648.762 34.2544 Q651.112 30.1225 654.879 28.1376 Q658.647 26.1121 664.034 26.1121 Q664.804 26.1121 665.736 26.2337 Q666.667 26.3147 667.802 26.5172 L667.842 34.1734 Z" fill="#000000" fill-rule="evenodd" fill-opacity="1"></path><path clip-path="url(#clip700)" d="M709.526 35.9153 Q712.321 30.8922 716.21 28.5022 Q720.099 26.1121 725.365 26.1121 Q732.454 26.1121 736.302 31.0947 Q740.151 36.0368 740.151 45.1919 L740.151 72.576 L732.657 72.576 L732.657 45.4349 Q732.657 38.913 730.348 35.7533 Q728.039 32.5936 723.299 32.5936 Q717.506 32.5936 714.144 36.4419 Q710.782 40.2903 710.782 46.9338 L710.782 72.576 L703.288 72.576 L703.288 45.4349 Q703.288 38.8725 700.979 35.7533 Q698.67 32.5936 693.849 32.5936 Q688.137 32.5936 684.775 36.4824 Q681.413 40.3308 681.413 46.9338 L681.413 72.576 L673.919 72.576 L673.919 27.2059 L681.413 27.2059 L681.413 34.2544 Q683.965 30.082 687.53 28.0971 Q691.094 26.1121 695.996 26.1121 Q700.938 26.1121 704.381 28.6237 Q707.865 31.1352 709.526 35.9153 Z" fill="#000000" fill-rule="evenodd" fill-opacity="1"></path><path clip-path="url(#clip700)" d="M775.637 49.7694 Q766.603 49.7694 763.119 51.8354 Q759.636 53.9013 759.636 58.8839 Q759.636 62.8538 762.228 65.2034 Q764.861 67.5124 769.358 67.5124 Q775.556 67.5124 779.283 63.1374 Q783.05 58.7219 783.05 51.4303 L783.05 49.7694 L775.637 49.7694 M790.504 46.6907 L790.504 72.576 L783.05 72.576 L783.05 65.6895 Q780.498 69.8214 776.69 71.8063 Q772.882 73.7508 767.373 73.7508 Q760.405 73.7508 756.273 69.8619 Q752.182 65.9325 752.182 59.3701 Q752.182 51.7138 757.286 47.825 Q762.431 43.9361 772.599 43.9361 L783.05 43.9361 L783.05 43.2069 Q783.05 38.0623 779.647 35.2672 Q776.285 32.4315 770.168 32.4315 Q766.279 32.4315 762.593 33.3632 Q758.907 34.295 755.504 36.1584 L755.504 29.2718 Q759.595 27.692 763.444 26.9223 Q767.292 26.1121 770.938 26.1121 Q780.781 26.1121 785.642 31.2163 Q790.504 36.3204 790.504 46.6907 Z" fill="#000000" fill-rule="evenodd" fill-opacity="1"></path><path clip-path="url(#clip700)" d="M843.57 45.1919 L843.57 72.576 L836.117 72.576 L836.117 45.4349 Q836.117 38.994 833.605 35.7938 Q831.094 32.5936 826.07 32.5936 Q820.035 32.5936 816.551 36.4419 Q813.067 40.2903 813.067 46.9338 L813.067 72.576 L805.573 72.576 L805.573 27.2059 L813.067 27.2059 L813.067 34.2544 Q815.741 30.163 819.346 28.1376 Q822.992 26.1121 827.731 26.1121 Q835.55 26.1121 839.56 30.9732 Q843.57 35.7938 843.57 45.1919 Z" fill="#000000" fill-rule="evenodd" fill-opacity="1"></path><path clip-path="url(#clip700)" d="M930.422 16.7545 L930.422 25.383 Q926.29 21.5346 921.591 19.6307 Q916.932 17.7268 911.666 17.7268 Q901.296 17.7268 895.787 24.0867 Q890.277 30.4061 890.277 42.3968 Q890.277 54.3469 895.787 60.7069 Q901.296 67.0263 911.666 67.0263 Q916.932 67.0263 921.591 65.1223 Q926.29 63.2184 930.422 59.3701 L930.422 67.9175 Q926.128 70.8341 921.307 72.2924 Q916.527 73.7508 911.18 73.7508 Q897.447 73.7508 889.548 65.3654 Q881.649 56.9395 881.649 42.3968 Q881.649 27.8135 889.548 19.4281 Q897.447 11.0023 911.18 11.0023 Q916.608 11.0023 921.388 12.4606 Q926.209 13.8784 930.422 16.7545 Z" fill="#000000" fill-rule="evenodd" fill-opacity="1"></path><path clip-path="url(#clip700)" d="M960.317 32.4315 Q954.322 32.4315 950.838 37.1306 Q947.355 41.7891 947.355 49.9314 Q947.355 58.0738 950.798 62.7728 Q954.282 67.4314 960.317 67.4314 Q966.272 67.4314 969.756 62.7323 Q973.24 58.0333 973.24 49.9314 Q973.24 41.8701 969.756 37.1711 Q966.272 32.4315 960.317 32.4315 M960.317 26.1121 Q970.04 26.1121 975.589 32.4315 Q981.139 38.7509 981.139 49.9314 Q981.139 61.0714 975.589 67.4314 Q970.04 73.7508 960.317 73.7508 Q950.555 73.7508 945.005 67.4314 Q939.496 61.0714 939.496 49.9314 Q939.496 38.7509 945.005 32.4315 Q950.555 26.1121 960.317 26.1121 Z" fill="#000000" fill-rule="evenodd" fill-opacity="1"></path><path clip-path="url(#clip700)" d="M1019.78 34.1734 Q1018.53 33.4443 1017.03 33.1202 Q1015.57 32.7556 1013.79 32.7556 Q1007.47 32.7556 1004.07 36.8875 Q1000.7 40.9789 1000.7 48.6757 L1000.7 72.576 L993.211 72.576 L993.211 27.2059 L1000.7 27.2059 L1000.7 34.2544 Q1003.05 30.1225 1006.82 28.1376 Q1010.59 26.1121 1015.98 26.1121 Q1016.75 26.1121 1017.68 26.2337 Q1018.61 26.3147 1019.74 26.5172 L1019.78 34.1734 Z" fill="#000000" fill-rule="evenodd" fill-opacity="1"></path><path clip-path="url(#clip700)" d="M1052.44 34.1734 Q1051.18 33.4443 1049.68 33.1202 Q1048.22 32.7556 1046.44 32.7556 Q1040.12 32.7556 1036.72 36.8875 Q1033.36 40.9789 1033.36 48.6757 L1033.36 72.576 L1025.86 72.576 L1025.86 27.2059 L1033.36 27.2059 L1033.36 34.2544 Q1035.7 30.1225 1039.47 28.1376 Q1043.24 26.1121 1048.63 26.1121 Q1049.4 26.1121 1050.33 26.2337 Q1051.26 26.3147 1052.39 26.5172 L1052.44 34.1734 Z" fill="#000000" fill-rule="evenodd" fill-opacity="1"></path><path clip-path="url(#clip700)" d="M1097.24 48.0275 L1097.24 51.6733 L1062.97 51.6733 Q1063.45 59.3701 1067.59 63.421 Q1071.76 67.4314 1079.17 67.4314 Q1083.46 67.4314 1087.48 66.3781 Q1091.53 65.3249 1095.5 63.2184 L1095.5 70.267 Q1091.49 71.9684 1087.27 72.8596 Q1083.06 73.7508 1078.73 73.7508 Q1067.87 73.7508 1061.51 67.4314 Q1055.19 61.1119 1055.19 50.3365 Q1055.19 39.1965 1061.18 32.6746 Q1067.22 26.1121 1077.43 26.1121 Q1086.58 26.1121 1091.89 32.0264 Q1097.24 37.9003 1097.24 48.0275 M1089.78 45.84 Q1089.7 39.7232 1086.34 36.0774 Q1083.02 32.4315 1077.51 32.4315 Q1071.27 32.4315 1067.5 35.9558 Q1063.78 39.4801 1063.21 45.8805 L1089.78 45.84 Z" fill="#000000" fill-rule="evenodd" fill-opacity="1"></path><path clip-path="url(#clip700)" d="M1109.47 9.54393 L1116.93 9.54393 L1116.93 72.576 L1109.47 72.576 L1109.47 9.54393 Z" fill="#000000" fill-rule="evenodd" fill-opacity="1"></path><path clip-path="url(#clip700)" d="M1153.14 49.7694 Q1144.11 49.7694 1140.62 51.8354 Q1137.14 53.9013 1137.14 58.8839 Q1137.14 62.8538 1139.73 65.2034 Q1142.37 67.5124 1146.86 67.5124 Q1153.06 67.5124 1156.79 63.1374 Q1160.55 58.7219 1160.55 51.4303 L1160.55 49.7694 L1153.14 49.7694 M1168.01 46.6907 L1168.01 72.576 L1160.55 72.576 L1160.55 65.6895 Q1158 69.8214 1154.19 71.8063 Q1150.39 73.7508 1144.88 73.7508 Q1137.91 73.7508 1133.78 69.8619 Q1129.69 65.9325 1129.69 59.3701 Q1129.69 51.7138 1134.79 47.825 Q1139.93 43.9361 1150.1 43.9361 L1160.55 43.9361 L1160.55 43.2069 Q1160.55 38.0623 1157.15 35.2672 Q1153.79 32.4315 1147.67 32.4315 Q1143.78 32.4315 1140.1 33.3632 Q1136.41 34.295 1133.01 36.1584 L1133.01 29.2718 Q1137.1 27.692 1140.95 26.9223 Q1144.8 26.1121 1148.44 26.1121 Q1158.29 26.1121 1163.15 31.2163 Q1168.01 36.3204 1168.01 46.6907 Z" fill="#000000" fill-rule="evenodd" fill-opacity="1"></path><path clip-path="url(#clip700)" d="M1190.73 14.324 L1190.73 27.2059 L1206.09 27.2059 L1206.09 32.9987 L1190.73 32.9987 L1190.73 57.6282 Q1190.73 63.1779 1192.23 64.7578 Q1193.77 66.3376 1198.43 66.3376 L1206.09 66.3376 L1206.09 72.576 L1198.43 72.576 Q1189.8 72.576 1186.52 69.3758 Q1183.24 66.1351 1183.24 57.6282 L1183.24 32.9987 L1177.77 32.9987 L1177.77 27.2059 L1183.24 27.2059 L1183.24 14.324 L1190.73 14.324 Z" fill="#000000" fill-rule="evenodd" fill-opacity="1"></path><path clip-path="url(#clip700)" d="M1215.89 27.2059 L1223.34 27.2059 L1223.34 72.576 L1215.89 72.576 L1215.89 27.2059 M1215.89 9.54393 L1223.34 9.54393 L1223.34 18.9825 L1215.89 18.9825 L1215.89 9.54393 Z" fill="#000000" fill-rule="evenodd" fill-opacity="1"></path><path clip-path="url(#clip700)" d="M1256.52 32.4315 Q1250.52 32.4315 1247.04 37.1306 Q1243.56 41.7891 1243.56 49.9314 Q1243.56 58.0738 1247 62.7728 Q1250.48 67.4314 1256.52 67.4314 Q1262.47 67.4314 1265.96 62.7323 Q1269.44 58.0333 1269.44 49.9314 Q1269.44 41.8701 1265.96 37.1711 Q1262.47 32.4315 1256.52 32.4315 M1256.52 26.1121 Q1266.24 26.1121 1271.79 32.4315 Q1277.34 38.7509 1277.34 49.9314 Q1277.34 61.0714 1271.79 67.4314 Q1266.24 73.7508 1256.52 73.7508 Q1246.76 73.7508 1241.21 67.4314 Q1235.7 61.0714 1235.7 49.9314 Q1235.7 38.7509 1241.21 32.4315 Q1246.76 26.1121 1256.52 26.1121 Z" fill="#000000" fill-rule="evenodd" fill-opacity="1"></path><path clip-path="url(#clip700)" d="M1327.41 45.1919 L1327.41 72.576 L1319.96 72.576 L1319.96 45.4349 Q1319.96 38.994 1317.45 35.7938 Q1314.93 32.5936 1309.91 32.5936 Q1303.87 32.5936 1300.39 36.4419 Q1296.91 40.2903 1296.91 46.9338 L1296.91 72.576 L1289.41 72.576 L1289.41 27.2059 L1296.91 27.2059 L1296.91 34.2544 Q1299.58 30.163 1303.19 28.1376 Q1306.83 26.1121 1311.57 26.1121 Q1319.39 26.1121 1323.4 30.9732 Q1327.41 35.7938 1327.41 45.1919 Z" fill="#000000" fill-rule="evenodd" fill-opacity="1"></path><path clip-path="url(#clip700)" d="M1344.18 62.2867 L1352.73 62.2867 L1352.73 69.2543 L1346.09 82.2172 L1340.86 82.2172 L1344.18 69.2543 L1344.18 62.2867 Z" fill="#000000" fill-rule="evenodd" fill-opacity="1"></path><path clip-path="url(#clip700)" d="M1410.94 72.576 L1387.85 12.096 L1396.4 12.096 L1415.56 63.0159 L1434.76 12.096 L1443.27 12.096 L1420.22 72.576 L1410.94 72.576 Z" fill="#000000" fill-rule="evenodd" fill-opacity="1"></path><path clip-path="url(#clip700)" d="M1498.76 49.7694 Q1489.73 49.7694 1486.25 51.8354 Q1482.76 53.9013 1482.76 58.8839 Q1482.76 62.8538 1485.36 65.2034 Q1487.99 67.5124 1492.48 67.5124 Q1498.68 67.5124 1502.41 63.1374 Q1506.18 58.7219 1506.18 51.4303 L1506.18 49.7694 L1498.76 49.7694 M1513.63 46.6907 L1513.63 72.576 L1506.18 72.576 L1506.18 65.6895 Q1503.62 69.8214 1499.82 71.8063 Q1496.01 73.7508 1490.5 73.7508 Q1483.53 73.7508 1479.4 69.8619 Q1475.31 65.9325 1475.31 59.3701 Q1475.31 51.7138 1480.41 47.825 Q1485.56 43.9361 1495.73 43.9361 L1506.18 43.9361 L1506.18 43.2069 Q1506.18 38.0623 1502.77 35.2672 Q1499.41 32.4315 1493.29 32.4315 Q1489.41 32.4315 1485.72 33.3632 Q1482.03 34.295 1478.63 36.1584 L1478.63 29.2718 Q1482.72 27.692 1486.57 26.9223 Q1490.42 26.1121 1494.06 26.1121 Q1503.91 26.1121 1508.77 31.2163 Q1513.63 36.3204 1513.63 46.6907 Z" fill="#000000" fill-rule="evenodd" fill-opacity="1"></path><path clip-path="url(#clip700)" d="M1566.7 45.1919 L1566.7 72.576 L1559.24 72.576 L1559.24 45.4349 Q1559.24 38.994 1556.73 35.7938 Q1554.22 32.5936 1549.2 32.5936 Q1543.16 32.5936 1539.68 36.4419 Q1536.19 40.2903 1536.19 46.9338 L1536.19 72.576 L1528.7 72.576 L1528.7 27.2059 L1536.19 27.2059 L1536.19 34.2544 Q1538.87 30.163 1542.47 28.1376 Q1546.12 26.1121 1550.86 26.1121 Q1558.68 26.1121 1562.69 30.9732 Q1566.7 35.7938 1566.7 45.1919 Z" fill="#000000" fill-rule="evenodd" fill-opacity="1"></path><path clip-path="url(#clip700)" d="M1611.42 34.0924 L1611.42 9.54393 L1618.87 9.54393 L1618.87 72.576 L1611.42 72.576 L1611.42 65.7705 Q1609.07 69.8214 1605.46 71.8063 Q1601.9 73.7508 1596.88 73.7508 Q1588.65 73.7508 1583.47 67.1883 Q1578.32 60.6258 1578.32 49.9314 Q1578.32 39.2371 1583.47 32.6746 Q1588.65 26.1121 1596.88 26.1121 Q1601.9 26.1121 1605.46 28.0971 Q1609.07 30.0415 1611.42 34.0924 M1586.02 49.9314 Q1586.02 58.1548 1589.38 62.8538 Q1592.79 67.5124 1598.7 67.5124 Q1604.61 67.5124 1608.02 62.8538 Q1611.42 58.1548 1611.42 49.9314 Q1611.42 41.7081 1608.02 37.0496 Q1604.61 32.3505 1598.7 32.3505 Q1592.79 32.3505 1589.38 37.0496 Q1586.02 41.7081 1586.02 49.9314 Z" fill="#000000" fill-rule="evenodd" fill-opacity="1"></path><path clip-path="url(#clip700)" d="M1676.52 72.576 L1653.43 12.096 L1661.97 12.096 L1681.14 63.0159 L1700.34 12.096 L1708.84 12.096 L1685.79 72.576 L1676.52 72.576 Z" fill="#000000" fill-rule="evenodd" fill-opacity="1"></path><path clip-path="url(#clip700)" d="M1685.79 6.22219 L1691.79 6.22219 L1701.71 21.4536 L1696.08 21.4536 L1688.79 11.5289 L1681.5 21.4536 L1675.87 21.4536 L1685.79 6.22219 M1688.79 26.1121 L1688.79 26.1121 Z" fill="#000000" fill-rule="evenodd" fill-opacity="1"></path><path clip-path="url(#clip700)" d="M1719.25 62.2867 L1727.8 62.2867 L1727.8 69.2543 L1721.16 82.2172 L1715.93 82.2172 L1719.25 69.2543 L1719.25 62.2867 Z" fill="#000000" fill-rule="evenodd" fill-opacity="1"></path><path clip-path="url(#clip700)" d="M1764.75 27.2059 L1772.65 27.2059 L1786.82 65.2844 L1801 27.2059 L1808.9 27.2059 L1791.89 72.576 L1781.76 72.576 L1764.75 27.2059 Z" fill="#000000" fill-rule="evenodd" fill-opacity="1"></path><path clip-path="url(#clip700)" d="M1839.81 49.7694 Q1830.78 49.7694 1827.29 51.8354 Q1823.81 53.9013 1823.81 58.8839 Q1823.81 62.8538 1826.4 65.2034 Q1829.03 67.5124 1833.53 67.5124 Q1839.73 67.5124 1843.46 63.1374 Q1847.22 58.7219 1847.22 51.4303 L1847.22 49.7694 L1839.81 49.7694 M1854.68 46.6907 L1854.68 72.576 L1847.22 72.576 L1847.22 65.6895 Q1844.67 69.8214 1840.86 71.8063 Q1837.05 73.7508 1831.55 73.7508 Q1824.58 73.7508 1820.45 69.8619 Q1816.35 65.9325 1816.35 59.3701 Q1816.35 51.7138 1821.46 47.825 Q1826.6 43.9361 1836.77 43.9361 L1847.22 43.9361 L1847.22 43.2069 Q1847.22 38.0623 1843.82 35.2672 Q1840.46 32.4315 1834.34 32.4315 Q1830.45 32.4315 1826.77 33.3632 Q1823.08 34.295 1819.68 36.1584 L1819.68 29.2718 Q1823.77 27.692 1827.62 26.9223 Q1831.46 26.1121 1835.11 26.1121 Q1844.95 26.1121 1849.82 31.2163 Q1854.68 36.3204 1854.68 46.6907 Z" fill="#000000" fill-rule="evenodd" fill-opacity="1"></path><path clip-path="url(#clip700)" d="M1896.32 34.1734 Q1895.06 33.4443 1893.56 33.1202 Q1892.11 32.7556 1890.32 32.7556 Q1884 32.7556 1880.6 36.8875 Q1877.24 40.9789 1877.24 48.6757 L1877.24 72.576 L1869.75 72.576 L1869.75 27.2059 L1877.24 27.2059 L1877.24 34.2544 Q1879.59 30.1225 1883.36 28.1376 Q1887.12 26.1121 1892.51 26.1121 Q1893.28 26.1121 1894.21 26.2337 Q1895.14 26.3147 1896.28 26.5172 L1896.32 34.1734 Z" fill="#000000" fill-rule="evenodd" fill-opacity="1"></path><path clip-path="url(#clip700)" d="M1923.01 76.7889 Q1919.86 84.8907 1916.86 87.3618 Q1913.86 89.8329 1908.84 89.8329 L1902.88 89.8329 L1902.88 83.5945 L1907.26 83.5945 Q1910.34 83.5945 1912.04 82.1361 Q1913.74 80.6778 1915.8 75.2496 L1917.14 71.8468 L1898.79 27.2059 L1906.69 27.2059 L1920.87 62.6918 L1935.05 27.2059 L1942.95 27.2059 L1923.01 76.7889 Z" fill="#000000" fill-rule="evenodd" fill-opacity="1"></path><path clip-path="url(#clip700)" d="M1953.23 27.2059 L1960.69 27.2059 L1960.69 72.576 L1953.23 72.576 L1953.23 27.2059 M1953.23 9.54393 L1960.69 9.54393 L1960.69 18.9825 L1953.23 18.9825 L1953.23 9.54393 Z" fill="#000000" fill-rule="evenodd" fill-opacity="1"></path><path clip-path="url(#clip700)" d="M2014 45.1919 L2014 72.576 L2006.54 72.576 L2006.54 45.4349 Q2006.54 38.994 2004.03 35.7938 Q2001.52 32.5936 1996.5 32.5936 Q1990.46 32.5936 1986.98 36.4419 Q1983.49 40.2903 1983.49 46.9338 L1983.49 72.576 L1976 72.576 L1976 27.2059 L1983.49 27.2059 L1983.49 34.2544 Q1986.17 30.163 1989.77 28.1376 Q1993.42 26.1121 1998.16 26.1121 Q2005.98 26.1121 2009.99 30.9732 Q2014 35.7938 2014 45.1919 Z" fill="#000000" fill-rule="evenodd" fill-opacity="1"></path><path clip-path="url(#clip700)" d="M2058.72 49.3643 Q2058.72 41.2625 2055.36 36.8065 Q2052.04 32.3505 2046 32.3505 Q2040 32.3505 2036.64 36.8065 Q2033.32 41.2625 2033.32 49.3643 Q2033.32 57.4256 2036.64 61.8816 Q2040 66.3376 2046 66.3376 Q2052.04 66.3376 2055.36 61.8816 Q2058.72 57.4256 2058.72 49.3643 M2066.17 66.9452 Q2066.17 78.5308 2061.03 84.1616 Q2055.88 89.8329 2045.27 89.8329 Q2041.34 89.8329 2037.86 89.2252 Q2034.37 88.6581 2031.09 87.4428 L2031.09 80.1917 Q2034.37 81.9741 2037.57 82.8248 Q2040.77 83.6755 2044.1 83.6755 Q2051.43 83.6755 2055.07 79.8271 Q2058.72 76.0193 2058.72 68.282 L2058.72 64.5957 Q2056.41 68.6061 2052.81 70.5911 Q2049.2 72.576 2044.18 72.576 Q2035.83 72.576 2030.73 66.2161 Q2025.62 59.8562 2025.62 49.3643 Q2025.62 38.832 2030.73 32.472 Q2035.83 26.1121 2044.18 26.1121 Q2049.2 26.1121 2052.81 28.0971 Q2056.41 30.082 2058.72 34.0924 L2058.72 27.2059 L2066.17 27.2059 L2066.17 66.9452 Z" fill="#000000" fill-rule="evenodd" fill-opacity="1"></path><path clip-path="url(#clip700)" d="M2145.61 45.1919 L2145.61 72.576 L2138.16 72.576 L2138.16 45.4349 Q2138.16 38.994 2135.65 35.7938 Q2133.14 32.5936 2128.11 32.5936 Q2122.08 32.5936 2118.59 36.4419 Q2115.11 40.2903 2115.11 46.9338 L2115.11 72.576 L2107.61 72.576 L2107.61 27.2059 L2115.11 27.2059 L2115.11 34.2544 Q2117.78 30.163 2121.39 28.1376 Q2125.03 26.1121 2129.77 26.1121 Q2137.59 26.1121 2141.6 30.9732 Q2145.61 35.7938 2145.61 45.1919 Z" fill="#000000" fill-rule="evenodd" fill-opacity="1"></path><path clip-path="url(#clip700)" d="M2160.2 9.54393 L2167.69 9.54393 L2167.69 46.7717 L2189.93 27.2059 L2199.45 27.2059 L2175.39 48.4326 L2200.46 72.576 L2190.74 72.576 L2167.69 50.4176 L2167.69 72.576 L2160.2 72.576 L2160.2 9.54393 Z" fill="#000000" fill-rule="evenodd" fill-opacity="1"></path><circle clip-path="url(#clip702)" cx="338.375" cy="1386.4" r="14" fill="#009af9" fill-rule="evenodd" fill-opacity="1" stroke="#000000" stroke-opacity="1" stroke-width="3.2"></circle>
<circle clip-path="url(#clip702)" cx="617.762" cy="1030.7" r="14" fill="#009af9" fill-rule="evenodd" fill-opacity="1" stroke="#000000" stroke-opacity="1" stroke-width="3.2"></circle>
<circle clip-path="url(#clip702)" cx="897.149" cy="778.666" r="14" fill="#009af9" fill-rule="evenodd" fill-opacity="1" stroke="#000000" stroke-opacity="1" stroke-width="3.2"></circle>
<circle clip-path="url(#clip702)" cx="1176.54" cy="704.332" r="14" fill="#009af9" fill-rule="evenodd" fill-opacity="1" stroke="#000000" stroke-opacity="1" stroke-width="3.2"></circle>
<circle clip-path="url(#clip702)" cx="1455.92" cy="487.835" r="14" fill="#009af9" fill-rule="evenodd" fill-opacity="1" stroke="#000000" stroke-opacity="1" stroke-width="3.2"></circle>
<circle clip-path="url(#clip702)" cx="1735.31" cy="435.464" r="14" fill="#009af9" fill-rule="evenodd" fill-opacity="1" stroke="#000000" stroke-opacity="1" stroke-width="3.2"></circle>
<circle clip-path="url(#clip702)" cx="2014.7" cy="404.551" r="14" fill="#009af9" fill-rule="evenodd" fill-opacity="1" stroke="#000000" stroke-opacity="1" stroke-width="3.2"></circle>
<circle clip-path="url(#clip702)" cx="2294.08" cy="160.256" r="14" fill="#009af9" fill-rule="evenodd" fill-opacity="1" stroke="#000000" stroke-opacity="1" stroke-width="3.2"></circle>
</svg>