<svg xmlns="http://www.w3.org/2000/svg" xmlns:xlink="http://www.w3.org/1999/xlink" width="600" height="400" viewBox="0 0 2400 1600">
<defs>
  <clipPath id="clip140">
    <rect x="0" y="0" width="2400" height="1600"></rect>
  </clipPath>
</defs>
<path clip-path="url(#clip140)" d="
M0 1600 L2400 1600 L2400 0 L0 0  Z
  " fill="#ffffff" fill-rule="evenodd" fill-opacity="1"></path>
<defs>
  <clipPath id="clip141">
    <rect x="480" y="0" width="1681" height="1600"></rect>
  </clipPath>
</defs>
<path clip-path="url(#clip140)" d="
M279.704 1410.9 L2352.76 1410.9 L2352.76 123.472 L279.704 123.472  Z
  " fill="#ffffff" fill-rule="evenodd" fill-opacity="1"></path>
<defs>
  <clipPath id="clip142">
    <rect x="279" y="123" width="2074" height="1288"></rect>
  </clipPath>
</defs>
<polyline clip-path="url(#clip142)" style="stroke:#000000; stroke-linecap:butt; stroke-linejoin:round; stroke-width:2; stroke-opacity:0.1; fill:none" points="
  338.375,1410.9 338.375,123.472 
  "></polyline>
<polyline clip-path="url(#clip142)" style="stroke:#000000; stroke-linecap:butt; stroke-linejoin:round; stroke-width:2; stroke-opacity:0.1; fill:none" points="
  827.303,1410.9 827.303,123.472 
  "></polyline>
<polyline clip-path="url(#clip142)" style="stroke:#000000; stroke-linecap:butt; stroke-linejoin:round; stroke-width:2; stroke-opacity:0.1; fill:none" points="
  1316.23,1410.9 1316.23,123.472 
  "></polyline>
<polyline clip-path="url(#clip142)" style="stroke:#000000; stroke-linecap:butt; stroke-linejoin:round; stroke-width:2; stroke-opacity:0.1; fill:none" points="
  1805.16,1410.9 1805.16,123.472 
  "></polyline>
<polyline clip-path="url(#clip142)" style="stroke:#000000; stroke-linecap:butt; stroke-linejoin:round; stroke-width:2; stroke-opacity:0.1; fill:none" points="
  2294.08,1410.9 2294.08,123.472 
  "></polyline>
<polyline clip-path="url(#clip140)" style="stroke:#000000; stroke-linecap:butt; stroke-linejoin:round; stroke-width:4; stroke-opacity:1; fill:none" points="
  279.704,1410.9 2352.76,1410.9 
  "></polyline>
<polyline clip-path="url(#clip140)" style="stroke:#000000; stroke-linecap:butt; stroke-linejoin:round; stroke-width:4; stroke-opacity:1; fill:none" points="
  338.375,1410.9 338.375,1392 
  "></polyline>
<polyline clip-path="url(#clip140)" style="stroke:#000000; stroke-linecap:butt; stroke-linejoin:round; stroke-width:4; stroke-opacity:1; fill:none" points="
  827.303,1410.9 827.303,1392 
  "></polyline>
<polyline clip-path="url(#clip140)" style="stroke:#000000; stroke-linecap:butt; stroke-linejoin:round; stroke-width:4; stroke-opacity:1; fill:none" points="
  1316.23,1410.9 1316.23,1392 
  "></polyline>
<polyline clip-path="url(#clip140)" style="stroke:#000000; stroke-linecap:butt; stroke-linejoin:round; stroke-width:4; stroke-opacity:1; fill:none" points="
  1805.16,1410.9 1805.16,1392 
  "></polyline>
<polyline clip-path="url(#clip140)" style="stroke:#000000; stroke-linecap:butt; stroke-linejoin:round; stroke-width:4; stroke-opacity:1; fill:none" points="
  2294.08,1410.9 2294.08,1392 
  "></polyline>
<path clip-path="url(#clip140)" d="M245.274 1485.02 L252.913 1485.02 L252.913 1458.66 L244.603 1460.32 L244.603 1456.06 L252.866 1454.4 L257.542 1454.4 L257.542 1485.02 L265.181 1485.02 L265.181 1488.96 L245.274 1488.96 L245.274 1485.02 Z" fill="#000000" fill-rule="evenodd" fill-opacity="1"></path><path clip-path="url(#clip140)" d="M274.626 1483.08 L279.51 1483.08 L279.51 1488.96 L274.626 1488.96 L274.626 1483.08 Z" fill="#000000" fill-rule="evenodd" fill-opacity="1"></path><path clip-path="url(#clip140)" d="M299.695 1457.48 Q296.084 1457.48 294.255 1461.04 Q292.45 1464.58 292.45 1471.71 Q292.45 1478.82 294.255 1482.38 Q296.084 1485.92 299.695 1485.92 Q303.329 1485.92 305.135 1482.38 Q306.963 1478.82 306.963 1471.71 Q306.963 1464.58 305.135 1461.04 Q303.329 1457.48 299.695 1457.48 M299.695 1453.77 Q305.505 1453.77 308.561 1458.38 Q311.639 1462.96 311.639 1471.71 Q311.639 1480.44 308.561 1485.04 Q305.505 1489.63 299.695 1489.63 Q293.885 1489.63 290.806 1485.04 Q287.75 1480.44 287.75 1471.71 Q287.75 1462.96 290.806 1458.38 Q293.885 1453.77 299.695 1453.77 Z" fill="#000000" fill-rule="evenodd" fill-opacity="1"></path><path clip-path="url(#clip140)" d="M348.028 1463.49 L337.449 1474.12 L348.028 1484.7 L345.273 1487.5 L334.648 1476.87 L324.023 1487.5 L321.292 1484.7 L331.847 1474.12 L321.292 1463.49 L324.023 1460.69 L334.648 1471.32 L345.273 1460.69 L348.028 1463.49 Z" fill="#000000" fill-rule="evenodd" fill-opacity="1"></path><path clip-path="url(#clip140)" d="M360.389 1485.02 L368.028 1485.02 L368.028 1458.66 L359.718 1460.32 L359.718 1456.06 L367.982 1454.4 L372.657 1454.4 L372.657 1485.02 L380.296 1485.02 L380.296 1488.96 L360.389 1488.96 L360.389 1485.02 Z" fill="#000000" fill-rule="evenodd" fill-opacity="1"></path><path clip-path="url(#clip140)" d="M399.741 1457.48 Q396.13 1457.48 394.301 1461.04 Q392.495 1464.58 392.495 1471.71 Q392.495 1478.82 394.301 1482.38 Q396.13 1485.92 399.741 1485.92 Q403.375 1485.92 405.18 1482.38 Q407.009 1478.82 407.009 1471.71 Q407.009 1464.58 405.18 1461.04 Q403.375 1457.48 399.741 1457.48 M399.741 1453.77 Q405.551 1453.77 408.606 1458.38 Q411.685 1462.96 411.685 1471.71 Q411.685 1480.44 408.606 1485.04 Q405.551 1489.63 399.741 1489.63 Q393.93 1489.63 390.852 1485.04 Q387.796 1480.44 387.796 1471.71 Q387.796 1462.96 390.852 1458.38 Q393.93 1453.77 399.741 1453.77 Z" fill="#000000" fill-rule="evenodd" fill-opacity="1"></path><path clip-path="url(#clip140)" d="M424.361 1436.78 L414.769 1451.77 L424.361 1451.77 L424.361 1436.78 M423.365 1433.47 L428.142 1433.47 L428.142 1451.77 L432.148 1451.77 L432.148 1454.93 L428.142 1454.93 L428.142 1461.55 L424.361 1461.55 L424.361 1454.93 L411.685 1454.93 L411.685 1451.26 L423.365 1433.47 Z" fill="#000000" fill-rule="evenodd" fill-opacity="1"></path><path clip-path="url(#clip140)" d="M738.287 1485.02 L754.606 1485.02 L754.606 1488.96 L732.662 1488.96 L732.662 1485.02 Q735.324 1482.27 739.907 1477.64 Q744.514 1472.98 745.694 1471.64 Q747.94 1469.12 748.819 1467.38 Q749.722 1465.62 749.722 1463.93 Q749.722 1461.18 747.778 1459.44 Q745.856 1457.71 742.754 1457.71 Q740.555 1457.71 738.102 1458.47 Q735.671 1459.23 732.893 1460.79 L732.893 1456.06 Q735.717 1454.93 738.171 1454.35 Q740.625 1453.77 742.662 1453.77 Q748.032 1453.77 751.227 1456.46 Q754.421 1459.14 754.421 1463.63 Q754.421 1465.76 753.611 1467.68 Q752.824 1469.58 750.717 1472.17 Q750.139 1472.85 747.037 1476.06 Q743.935 1479.26 738.287 1485.02 Z" fill="#000000" fill-rule="evenodd" fill-opacity="1"></path><path clip-path="url(#clip140)" d="M764.421 1483.08 L769.305 1483.08 L769.305 1488.96 L764.421 1488.96 L764.421 1483.08 Z" fill="#000000" fill-rule="evenodd" fill-opacity="1"></path><path clip-path="url(#clip140)" d="M789.49 1457.48 Q785.879 1457.48 784.05 1461.04 Q782.245 1464.58 782.245 1471.71 Q782.245 1478.82 784.05 1482.38 Q785.879 1485.92 789.49 1485.92 Q793.124 1485.92 794.93 1482.38 Q796.759 1478.82 796.759 1471.71 Q796.759 1464.58 794.93 1461.04 Q793.124 1457.48 789.49 1457.48 M789.49 1453.77 Q795.3 1453.77 798.356 1458.38 Q801.435 1462.96 801.435 1471.71 Q801.435 1480.44 798.356 1485.04 Q795.3 1489.63 789.49 1489.63 Q783.68 1489.63 780.601 1485.04 Q777.546 1480.44 777.546 1471.71 Q777.546 1462.96 780.601 1458.38 Q783.68 1453.77 789.49 1453.77 Z" fill="#000000" fill-rule="evenodd" fill-opacity="1"></path><path clip-path="url(#clip140)" d="M837.823 1463.49 L827.245 1474.12 L837.823 1484.7 L835.069 1487.5 L824.444 1476.87 L813.819 1487.5 L811.087 1484.7 L821.643 1474.12 L811.087 1463.49 L813.819 1460.69 L824.444 1471.32 L835.069 1460.69 L837.823 1463.49 Z" fill="#000000" fill-rule="evenodd" fill-opacity="1"></path><path clip-path="url(#clip140)" d="M850.184 1485.02 L857.823 1485.02 L857.823 1458.66 L849.513 1460.32 L849.513 1456.06 L857.777 1454.4 L862.453 1454.4 L862.453 1485.02 L870.092 1485.02 L870.092 1488.96 L850.184 1488.96 L850.184 1485.02 Z" fill="#000000" fill-rule="evenodd" fill-opacity="1"></path><path clip-path="url(#clip140)" d="M889.536 1457.48 Q885.925 1457.48 884.096 1461.04 Q882.291 1464.58 882.291 1471.71 Q882.291 1478.82 884.096 1482.38 Q885.925 1485.92 889.536 1485.92 Q893.17 1485.92 894.976 1482.38 Q896.804 1478.82 896.804 1471.71 Q896.804 1464.58 894.976 1461.04 Q893.17 1457.48 889.536 1457.48 M889.536 1453.77 Q895.346 1453.77 898.402 1458.38 Q901.48 1462.96 901.48 1471.71 Q901.48 1480.44 898.402 1485.04 Q895.346 1489.63 889.536 1489.63 Q883.726 1489.63 880.647 1485.04 Q877.592 1480.44 877.592 1471.71 Q877.592 1462.96 880.647 1458.38 Q883.726 1453.77 889.536 1453.77 Z" fill="#000000" fill-rule="evenodd" fill-opacity="1"></path><path clip-path="url(#clip140)" d="M914.157 1436.78 L904.565 1451.77 L914.157 1451.77 L914.157 1436.78 M913.16 1433.47 L917.937 1433.47 L917.937 1451.77 L921.943 1451.77 L921.943 1454.93 L917.937 1454.93 L917.937 1461.55 L914.157 1461.55 L914.157 1454.93 L901.48 1454.93 L901.48 1451.26 L913.16 1433.47 Z" fill="#000000" fill-rule="evenodd" fill-opacity="1"></path><path clip-path="url(#clip140)" d="M1237.28 1470.32 Q1240.64 1471.04 1242.52 1473.31 Q1244.41 1475.58 1244.41 1478.91 Q1244.41 1484.03 1240.89 1486.83 Q1237.38 1489.63 1230.89 1489.63 Q1228.72 1489.63 1226.4 1489.19 Q1224.11 1488.77 1221.66 1487.91 L1221.66 1483.4 Q1223.6 1484.54 1225.92 1485.11 Q1228.23 1485.69 1230.76 1485.69 Q1235.15 1485.69 1237.45 1483.96 Q1239.76 1482.22 1239.76 1478.91 Q1239.76 1475.85 1237.61 1474.14 Q1235.48 1472.41 1231.66 1472.41 L1227.63 1472.41 L1227.63 1468.56 L1231.84 1468.56 Q1235.29 1468.56 1237.12 1467.2 Q1238.95 1465.81 1238.95 1463.22 Q1238.95 1460.55 1237.05 1459.14 Q1235.18 1457.71 1231.66 1457.71 Q1229.74 1457.71 1227.54 1458.12 Q1225.34 1458.54 1222.7 1459.42 L1222.7 1455.25 Q1225.36 1454.51 1227.68 1454.14 Q1230.02 1453.77 1232.08 1453.77 Q1237.4 1453.77 1240.5 1456.2 Q1243.6 1458.61 1243.6 1462.73 Q1243.6 1465.6 1241.96 1467.59 Q1240.32 1469.56 1237.28 1470.32 Z" fill="#000000" fill-rule="evenodd" fill-opacity="1"></path><path clip-path="url(#clip140)" d="M1253.28 1483.08 L1258.16 1483.08 L1258.16 1488.96 L1253.28 1488.96 L1253.28 1483.08 Z" fill="#000000" fill-rule="evenodd" fill-opacity="1"></path><path clip-path="url(#clip140)" d="M1278.35 1457.48 Q1274.74 1457.48 1272.91 1461.04 Q1271.1 1464.58 1271.1 1471.71 Q1271.1 1478.82 1272.91 1482.38 Q1274.74 1485.92 1278.35 1485.92 Q1281.98 1485.92 1283.79 1482.38 Q1285.62 1478.82 1285.62 1471.71 Q1285.62 1464.58 1283.79 1461.04 Q1281.98 1457.48 1278.35 1457.48 M1278.35 1453.77 Q1284.16 1453.77 1287.21 1458.38 Q1290.29 1462.96 1290.29 1471.71 Q1290.29 1480.44 1287.21 1485.04 Q1284.16 1489.63 1278.35 1489.63 Q1272.54 1489.63 1269.46 1485.04 Q1266.4 1480.44 1266.4 1471.71 Q1266.4 1462.96 1269.46 1458.38 Q1272.54 1453.77 1278.35 1453.77 Z" fill="#000000" fill-rule="evenodd" fill-opacity="1"></path><path clip-path="url(#clip140)" d="M1326.68 1463.49 L1316.1 1474.12 L1326.68 1484.7 L1323.93 1487.5 L1313.3 1476.87 L1302.68 1487.5 L1299.95 1484.7 L1310.5 1474.12 L1299.95 1463.49 L1302.68 1460.69 L1313.3 1471.32 L1323.93 1460.69 L1326.68 1463.49 Z" fill="#000000" fill-rule="evenodd" fill-opacity="1"></path><path clip-path="url(#clip140)" d="M1339.04 1485.02 L1346.68 1485.02 L1346.68 1458.66 L1338.37 1460.32 L1338.37 1456.06 L1346.63 1454.4 L1351.31 1454.4 L1351.31 1485.02 L1358.95 1485.02 L1358.95 1488.96 L1339.04 1488.96 L1339.04 1485.02 Z" fill="#000000" fill-rule="evenodd" fill-opacity="1"></path><path clip-path="url(#clip140)" d="M1378.39 1457.48 Q1374.78 1457.48 1372.95 1461.04 Q1371.15 1464.58 1371.15 1471.71 Q1371.15 1478.82 1372.95 1482.38 Q1374.78 1485.92 1378.39 1485.92 Q1382.03 1485.92 1383.83 1482.38 Q1385.66 1478.82 1385.66 1471.71 Q1385.66 1464.58 1383.83 1461.04 Q1382.03 1457.48 1378.39 1457.48 M1378.39 1453.77 Q1384.2 1453.77 1387.26 1458.38 Q1390.34 1462.96 1390.34 1471.71 Q1390.34 1480.44 1387.26 1485.04 Q1384.2 1489.63 1378.39 1489.63 Q1372.58 1489.63 1369.51 1485.04 Q1366.45 1480.44 1366.45 1471.71 Q1366.45 1462.96 1369.51 1458.38 Q1372.58 1453.77 1378.39 1453.77 Z" fill="#000000" fill-rule="evenodd" fill-opacity="1"></path><path clip-path="url(#clip140)" d="M1403.01 1436.78 L1393.42 1451.77 L1403.01 1451.77 L1403.01 1436.78 M1402.02 1433.47 L1406.8 1433.47 L1406.8 1451.77 L1410.8 1451.77 L1410.8 1454.93 L1406.8 1454.93 L1406.8 1461.55 L1403.01 1461.55 L1403.01 1454.93 L1390.34 1454.93 L1390.34 1451.26 L1402.02 1433.47 Z" fill="#000000" fill-rule="evenodd" fill-opacity="1"></path><path clip-path="url(#clip140)" d="M1725.54 1458.47 L1713.73 1476.92 L1725.54 1476.92 L1725.54 1458.47 M1724.31 1454.4 L1730.19 1454.4 L1730.19 1476.92 L1735.12 1476.92 L1735.12 1480.81 L1730.19 1480.81 L1730.19 1488.96 L1725.54 1488.96 L1725.54 1480.81 L1709.94 1480.81 L1709.94 1476.29 L1724.31 1454.4 Z" fill="#000000" fill-rule="evenodd" fill-opacity="1"></path><path clip-path="url(#clip140)" d="M1742.85 1483.08 L1747.74 1483.08 L1747.74 1488.96 L1742.85 1488.96 L1742.85 1483.08 Z" fill="#000000" fill-rule="evenodd" fill-opacity="1"></path><path clip-path="url(#clip140)" d="M1767.92 1457.48 Q1764.31 1457.48 1762.48 1461.04 Q1760.68 1464.58 1760.68 1471.71 Q1760.68 1478.82 1762.48 1482.38 Q1764.31 1485.92 1767.92 1485.92 Q1771.56 1485.92 1773.36 1482.38 Q1775.19 1478.82 1775.19 1471.71 Q1775.19 1464.58 1773.36 1461.04 Q1771.56 1457.48 1767.92 1457.48 M1767.92 1453.77 Q1773.73 1453.77 1776.79 1458.38 Q1779.87 1462.96 1779.87 1471.71 Q1779.87 1480.44 1776.79 1485.04 Q1773.73 1489.63 1767.92 1489.63 Q1762.11 1489.63 1759.03 1485.04 Q1755.98 1480.44 1755.98 1471.71 Q1755.98 1462.96 1759.03 1458.38 Q1762.11 1453.77 1767.92 1453.77 Z" fill="#000000" fill-rule="evenodd" fill-opacity="1"></path><path clip-path="url(#clip140)" d="M1816.26 1463.49 L1805.68 1474.12 L1816.26 1484.7 L1813.5 1487.5 L1802.88 1476.87 L1792.25 1487.5 L1789.52 1484.7 L1800.08 1474.12 L1789.52 1463.49 L1792.25 1460.69 L1802.88 1471.32 L1813.5 1460.69 L1816.26 1463.49 Z" fill="#000000" fill-rule="evenodd" fill-opacity="1"></path><path clip-path="url(#clip140)" d="M1828.62 1485.02 L1836.26 1485.02 L1836.26 1458.66 L1827.95 1460.32 L1827.95 1456.06 L1836.21 1454.4 L1840.89 1454.4 L1840.89 1485.02 L1848.53 1485.02 L1848.53 1488.96 L1828.62 1488.96 L1828.62 1485.02 Z" fill="#000000" fill-rule="evenodd" fill-opacity="1"></path><path clip-path="url(#clip140)" d="M1867.97 1457.48 Q1864.36 1457.48 1862.53 1461.04 Q1860.72 1464.58 1860.72 1471.71 Q1860.72 1478.82 1862.53 1482.38 Q1864.36 1485.92 1867.97 1485.92 Q1871.6 1485.92 1873.41 1482.38 Q1875.24 1478.82 1875.24 1471.71 Q1875.24 1464.58 1873.41 1461.04 Q1871.6 1457.48 1867.97 1457.48 M1867.97 1453.77 Q1873.78 1453.77 1876.84 1458.38 Q1879.91 1462.96 1879.91 1471.71 Q1879.91 1480.44 1876.84 1485.04 Q1873.78 1489.63 1867.97 1489.63 Q1862.16 1489.63 1859.08 1485.04 Q1856.03 1480.44 1856.03 1471.71 Q1856.03 1462.96 1859.08 1458.38 Q1862.16 1453.77 1867.97 1453.77 Z" fill="#000000" fill-rule="evenodd" fill-opacity="1"></path><path clip-path="url(#clip140)" d="M1892.59 1436.78 L1883 1451.77 L1892.59 1451.77 L1892.59 1436.78 M1891.59 1433.47 L1896.37 1433.47 L1896.37 1451.77 L1900.38 1451.77 L1900.38 1454.93 L1896.37 1454.93 L1896.37 1461.55 L1892.59 1461.55 L1892.59 1454.93 L1879.91 1454.93 L1879.91 1451.26 L1891.59 1433.47 Z" fill="#000000" fill-rule="evenodd" fill-opacity="1"></path><path clip-path="url(#clip140)" d="M2200.99 1454.4 L2219.35 1454.4 L2219.35 1458.33 L2205.28 1458.33 L2205.28 1466.8 Q2206.3 1466.46 2207.31 1466.29 Q2208.33 1466.11 2209.35 1466.11 Q2215.14 1466.11 2218.52 1469.28 Q2221.9 1472.45 2221.9 1477.87 Q2221.9 1483.45 2218.43 1486.55 Q2214.95 1489.63 2208.63 1489.63 Q2206.46 1489.63 2204.19 1489.26 Q2201.94 1488.89 2199.54 1488.15 L2199.54 1483.45 Q2201.62 1484.58 2203.84 1485.14 Q2206.06 1485.69 2208.54 1485.69 Q2212.55 1485.69 2214.88 1483.59 Q2217.22 1481.48 2217.22 1477.87 Q2217.22 1474.26 2214.88 1472.15 Q2212.55 1470.04 2208.54 1470.04 Q2206.67 1470.04 2204.79 1470.46 Q2202.94 1470.88 2200.99 1471.76 L2200.99 1454.4 Z" fill="#000000" fill-rule="evenodd" fill-opacity="1"></path><path clip-path="url(#clip140)" d="M2231.11 1483.08 L2235.99 1483.08 L2235.99 1488.96 L2231.11 1488.96 L2231.11 1483.08 Z" fill="#000000" fill-rule="evenodd" fill-opacity="1"></path><path clip-path="url(#clip140)" d="M2256.18 1457.48 Q2252.57 1457.48 2250.74 1461.04 Q2248.93 1464.58 2248.93 1471.71 Q2248.93 1478.82 2250.74 1482.38 Q2252.57 1485.92 2256.18 1485.92 Q2259.81 1485.92 2261.62 1482.38 Q2263.45 1478.82 2263.45 1471.71 Q2263.45 1464.58 2261.62 1461.04 Q2259.81 1457.48 2256.18 1457.48 M2256.18 1453.77 Q2261.99 1453.77 2265.05 1458.38 Q2268.12 1462.96 2268.12 1471.71 Q2268.12 1480.44 2265.05 1485.04 Q2261.99 1489.63 2256.18 1489.63 Q2250.37 1489.63 2247.29 1485.04 Q2244.24 1480.44 2244.24 1471.71 Q2244.24 1462.96 2247.29 1458.38 Q2250.37 1453.77 2256.18 1453.77 Z" fill="#000000" fill-rule="evenodd" fill-opacity="1"></path><path clip-path="url(#clip140)" d="M2304.51 1463.49 L2293.93 1474.12 L2304.51 1484.7 L2301.76 1487.5 L2291.13 1476.87 L2280.51 1487.5 L2277.78 1484.7 L2288.33 1474.12 L2277.78 1463.49 L2280.51 1460.69 L2291.13 1471.32 L2301.76 1460.69 L2304.51 1463.49 Z" fill="#000000" fill-rule="evenodd" fill-opacity="1"></path><path clip-path="url(#clip140)" d="M2316.87 1485.02 L2324.51 1485.02 L2324.51 1458.66 L2316.2 1460.32 L2316.2 1456.06 L2324.47 1454.4 L2329.14 1454.4 L2329.14 1485.02 L2336.78 1485.02 L2336.78 1488.96 L2316.87 1488.96 L2316.87 1485.02 Z" fill="#000000" fill-rule="evenodd" fill-opacity="1"></path><path clip-path="url(#clip140)" d="M2356.23 1457.48 Q2352.61 1457.48 2350.79 1461.04 Q2348.98 1464.58 2348.98 1471.71 Q2348.98 1478.82 2350.79 1482.38 Q2352.61 1485.92 2356.23 1485.92 Q2359.86 1485.92 2361.67 1482.38 Q2363.49 1478.82 2363.49 1471.71 Q2363.49 1464.58 2361.67 1461.04 Q2359.86 1457.48 2356.23 1457.48 M2356.23 1453.77 Q2362.04 1453.77 2365.09 1458.38 Q2368.17 1462.96 2368.17 1471.71 Q2368.17 1480.44 2365.09 1485.04 Q2362.04 1489.63 2356.23 1489.63 Q2350.42 1489.63 2347.34 1485.04 Q2344.28 1480.44 2344.28 1471.71 Q2344.28 1462.96 2347.34 1458.38 Q2350.42 1453.77 2356.23 1453.77 Z" fill="#000000" fill-rule="evenodd" fill-opacity="1"></path><path clip-path="url(#clip140)" d="M2380.85 1436.78 L2371.25 1451.77 L2380.85 1451.77 L2380.85 1436.78 M2379.85 1433.47 L2384.63 1433.47 L2384.63 1451.77 L2388.63 1451.77 L2388.63 1454.93 L2384.63 1454.93 L2384.63 1461.55 L2380.85 1461.55 L2380.85 1454.93 L2368.17 1454.93 L2368.17 1451.26 L2379.85 1433.47 Z" fill="#000000" fill-rule="evenodd" fill-opacity="1"></path><path clip-path="url(#clip140)" d="M1322.39 1552.67 L1322.39 1574.19 L1316.53 1574.19 L1316.53 1552.86 Q1316.53 1547.8 1314.56 1545.29 Q1312.59 1542.77 1308.64 1542.77 Q1303.9 1542.77 1301.16 1545.79 Q1298.42 1548.82 1298.42 1554.04 L1298.42 1574.19 L1292.53 1574.19 L1292.53 1538.54 L1298.42 1538.54 L1298.42 1544.08 Q1300.52 1540.86 1303.36 1539.27 Q1306.22 1537.68 1309.94 1537.68 Q1316.09 1537.68 1319.24 1541.5 Q1322.39 1545.29 1322.39 1552.67 Z" fill="#000000" fill-rule="evenodd" fill-opacity="1"></path><path clip-path="url(#clip140)" d="M1334.07 1538.54 L1339.93 1538.54 L1339.93 1574.19 L1334.07 1574.19 L1334.07 1538.54 M1334.07 1524.66 L1339.93 1524.66 L1339.93 1532.08 L1334.07 1532.08 L1334.07 1524.66 Z" fill="#000000" fill-rule="evenodd" fill-opacity="1"></path><polyline clip-path="url(#clip142)" style="stroke:#000000; stroke-linecap:butt; stroke-linejoin:round; stroke-width:2; stroke-opacity:0.1; fill:none" points="
  279.704,1210.23 2352.76,1210.23 
  "></polyline>
<polyline clip-path="url(#clip142)" style="stroke:#000000; stroke-linecap:butt; stroke-linejoin:round; stroke-width:2; stroke-opacity:0.1; fill:none" points="
  279.704,981.695 2352.76,981.695 
  "></polyline>
<polyline clip-path="url(#clip142)" style="stroke:#000000; stroke-linecap:butt; stroke-linejoin:round; stroke-width:2; stroke-opacity:0.1; fill:none" points="
  279.704,753.162 2352.76,753.162 
  "></polyline>
<polyline clip-path="url(#clip142)" style="stroke:#000000; stroke-linecap:butt; stroke-linejoin:round; stroke-width:2; stroke-opacity:0.1; fill:none" points="
  279.704,524.629 2352.76,524.629 
  "></polyline>
<polyline clip-path="url(#clip142)" style="stroke:#000000; stroke-linecap:butt; stroke-linejoin:round; stroke-width:2; stroke-opacity:0.1; fill:none" points="
  279.704,296.096 2352.76,296.096 
  "></polyline>
<polyline clip-path="url(#clip140)" style="stroke:#000000; stroke-linecap:butt; stroke-linejoin:round; stroke-width:4; stroke-opacity:1; fill:none" points="
  279.704,1410.9 279.704,123.472 
  "></polyline>
<polyline clip-path="url(#clip140)" style="stroke:#000000; stroke-linecap:butt; stroke-linejoin:round; stroke-width:4; stroke-opacity:1; fill:none" points="
  279.704,1210.23 298.602,1210.23 
  "></polyline>
<polyline clip-path="url(#clip140)" style="stroke:#000000; stroke-linecap:butt; stroke-linejoin:round; stroke-width:4; stroke-opacity:1; fill:none" points="
  279.704,981.695 298.602,981.695 
  "></polyline>
<polyline clip-path="url(#clip140)" style="stroke:#000000; stroke-linecap:butt; stroke-linejoin:round; stroke-width:4; stroke-opacity:1; fill:none" points="
  279.704,753.162 298.602,753.162 
  "></polyline>
<polyline clip-path="url(#clip140)" style="stroke:#000000; stroke-linecap:butt; stroke-linejoin:round; stroke-width:4; stroke-opacity:1; fill:none" points="
  279.704,524.629 298.602,524.629 
  "></polyline>
<polyline clip-path="url(#clip140)" style="stroke:#000000; stroke-linecap:butt; stroke-linejoin:round; stroke-width:4; stroke-opacity:1; fill:none" points="
  279.704,296.096 298.602,296.096 
  "></polyline>
<path clip-path="url(#clip140)" d="M127.2 1196.03 Q123.589 1196.03 121.76 1199.59 Q119.955 1203.13 119.955 1210.26 Q119.955 1217.37 121.76 1220.93 Q123.589 1224.48 127.2 1224.48 Q130.834 1224.48 132.64 1220.93 Q134.468 1217.37 134.468 1210.26 Q134.468 1203.13 132.64 1199.59 Q130.834 1196.03 127.2 1196.03 M127.2 1192.32 Q133.01 1192.32 136.066 1196.93 Q139.144 1201.51 139.144 1210.26 Q139.144 1218.99 136.066 1223.6 Q133.01 1228.18 127.2 1228.18 Q121.39 1228.18 118.311 1223.6 Q115.256 1218.99 115.256 1210.26 Q115.256 1201.51 118.311 1196.93 Q121.39 1192.32 127.2 1192.32 Z" fill="#000000" fill-rule="evenodd" fill-opacity="1"></path><path clip-path="url(#clip140)" d="M147.362 1221.63 L152.246 1221.63 L152.246 1227.51 L147.362 1227.51 L147.362 1221.63 Z" fill="#000000" fill-rule="evenodd" fill-opacity="1"></path><path clip-path="url(#clip140)" d="M162.477 1192.95 L180.834 1192.95 L180.834 1196.88 L166.76 1196.88 L166.76 1205.36 Q167.778 1205.01 168.797 1204.85 Q169.815 1204.66 170.834 1204.66 Q176.621 1204.66 180.001 1207.83 Q183.38 1211 183.38 1216.42 Q183.38 1222 179.908 1225.1 Q176.436 1228.18 170.116 1228.18 Q167.94 1228.18 165.672 1227.81 Q163.427 1227.44 161.019 1226.7 L161.019 1222 Q163.102 1223.13 165.325 1223.69 Q167.547 1224.24 170.024 1224.24 Q174.028 1224.24 176.366 1222.14 Q178.704 1220.03 178.704 1216.42 Q178.704 1212.81 176.366 1210.7 Q174.028 1208.6 170.024 1208.6 Q168.149 1208.6 166.274 1209.01 Q164.422 1209.43 162.477 1210.31 L162.477 1192.95 Z" fill="#000000" fill-rule="evenodd" fill-opacity="1"></path><path clip-path="url(#clip140)" d="M192.639 1192.95 L210.996 1192.95 L210.996 1196.88 L196.922 1196.88 L196.922 1205.36 Q197.94 1205.01 198.959 1204.85 Q199.977 1204.66 200.996 1204.66 Q206.783 1204.66 210.162 1207.83 Q213.542 1211 213.542 1216.42 Q213.542 1222 210.07 1225.1 Q206.598 1228.18 200.278 1228.18 Q198.102 1228.18 195.834 1227.81 Q193.588 1227.44 191.181 1226.7 L191.181 1222 Q193.264 1223.13 195.487 1223.69 Q197.709 1224.24 200.186 1224.24 Q204.19 1224.24 206.528 1222.14 Q208.866 1220.03 208.866 1216.42 Q208.866 1212.81 206.528 1210.7 Q204.19 1208.6 200.186 1208.6 Q198.311 1208.6 196.436 1209.01 Q194.584 1209.43 192.639 1210.31 L192.639 1192.95 Z" fill="#000000" fill-rule="evenodd" fill-opacity="1"></path><path clip-path="url(#clip140)" d="M222.801 1192.95 L241.158 1192.95 L241.158 1196.88 L227.084 1196.88 L227.084 1205.36 Q228.102 1205.01 229.121 1204.85 Q230.139 1204.66 231.158 1204.66 Q236.945 1204.66 240.324 1207.83 Q243.704 1211 243.704 1216.42 Q243.704 1222 240.232 1225.1 Q236.76 1228.18 230.44 1228.18 Q228.264 1228.18 225.996 1227.81 Q223.75 1227.44 221.343 1226.7 L221.343 1222 Q223.426 1223.13 225.648 1223.69 Q227.871 1224.24 230.347 1224.24 Q234.352 1224.24 236.69 1222.14 Q239.028 1220.03 239.028 1216.42 Q239.028 1212.81 236.69 1210.7 Q234.352 1208.6 230.347 1208.6 Q228.473 1208.6 226.598 1209.01 Q224.746 1209.43 222.801 1210.31 L222.801 1192.95 Z" fill="#000000" fill-rule="evenodd" fill-opacity="1"></path><path clip-path="url(#clip140)" d="M126.205 967.494 Q122.593 967.494 120.765 971.058 Q118.959 974.6 118.959 981.73 Q118.959 988.836 120.765 992.401 Q122.593 995.943 126.205 995.943 Q129.839 995.943 131.644 992.401 Q133.473 988.836 133.473 981.73 Q133.473 974.6 131.644 971.058 Q129.839 967.494 126.205 967.494 M126.205 963.79 Q132.015 963.79 135.07 968.396 Q138.149 972.98 138.149 981.73 Q138.149 990.456 135.07 995.063 Q132.015 999.646 126.205 999.646 Q120.394 999.646 117.316 995.063 Q114.26 990.456 114.26 981.73 Q114.26 972.98 117.316 968.396 Q120.394 963.79 126.205 963.79 Z" fill="#000000" fill-rule="evenodd" fill-opacity="1"></path><path clip-path="url(#clip140)" d="M146.366 993.095 L151.251 993.095 L151.251 998.975 L146.366 998.975 L146.366 993.095 Z" fill="#000000" fill-rule="evenodd" fill-opacity="1"></path><path clip-path="url(#clip140)" d="M161.482 964.415 L179.839 964.415 L179.839 968.35 L165.765 968.35 L165.765 976.822 Q166.783 976.475 167.802 976.313 Q168.82 976.128 169.839 976.128 Q175.626 976.128 179.005 979.299 Q182.385 982.47 182.385 987.887 Q182.385 993.466 178.913 996.567 Q175.44 999.646 169.121 999.646 Q166.945 999.646 164.677 999.276 Q162.431 998.905 160.024 998.165 L160.024 993.466 Q162.107 994.6 164.329 995.155 Q166.552 995.711 169.028 995.711 Q173.033 995.711 175.371 993.605 Q177.709 991.498 177.709 987.887 Q177.709 984.276 175.371 982.169 Q173.033 980.063 169.028 980.063 Q167.153 980.063 165.278 980.48 Q163.427 980.896 161.482 981.776 L161.482 964.415 Z" fill="#000000" fill-rule="evenodd" fill-opacity="1"></path><path clip-path="url(#clip140)" d="M202.176 979.831 Q199.028 979.831 197.176 981.984 Q195.348 984.137 195.348 987.887 Q195.348 991.614 197.176 993.79 Q199.028 995.943 202.176 995.943 Q205.324 995.943 207.153 993.79 Q209.005 991.614 209.005 987.887 Q209.005 984.137 207.153 981.984 Q205.324 979.831 202.176 979.831 M211.459 965.179 L211.459 969.438 Q209.699 968.605 207.894 968.165 Q206.112 967.725 204.352 967.725 Q199.723 967.725 197.269 970.85 Q194.838 973.975 194.491 980.294 Q195.857 978.281 197.917 977.216 Q199.977 976.128 202.454 976.128 Q207.662 976.128 210.672 979.299 Q213.704 982.447 213.704 987.887 Q213.704 993.211 210.556 996.429 Q207.408 999.646 202.176 999.646 Q196.181 999.646 193.01 995.063 Q189.838 990.456 189.838 981.73 Q189.838 973.535 193.727 968.674 Q197.616 963.79 204.167 963.79 Q205.926 963.79 207.709 964.137 Q209.514 964.484 211.459 965.179 Z" fill="#000000" fill-rule="evenodd" fill-opacity="1"></path><path clip-path="url(#clip140)" d="M231.76 967.494 Q228.148 967.494 226.32 971.058 Q224.514 974.6 224.514 981.73 Q224.514 988.836 226.32 992.401 Q228.148 995.943 231.76 995.943 Q235.394 995.943 237.199 992.401 Q239.028 988.836 239.028 981.73 Q239.028 974.6 237.199 971.058 Q235.394 967.494 231.76 967.494 M231.76 963.79 Q237.57 963.79 240.625 968.396 Q243.704 972.98 243.704 981.73 Q243.704 990.456 240.625 995.063 Q237.57 999.646 231.76 999.646 Q225.949 999.646 222.871 995.063 Q219.815 990.456 219.815 981.73 Q219.815 972.98 222.871 968.396 Q225.949 963.79 231.76 963.79 Z" fill="#000000" fill-rule="evenodd" fill-opacity="1"></path><path clip-path="url(#clip140)" d="M127.2 738.961 Q123.589 738.961 121.76 742.525 Q119.955 746.067 119.955 753.197 Q119.955 760.303 121.76 763.868 Q123.589 767.41 127.2 767.41 Q130.834 767.41 132.64 763.868 Q134.468 760.303 134.468 753.197 Q134.468 746.067 132.64 742.525 Q130.834 738.961 127.2 738.961 M127.2 735.257 Q133.01 735.257 136.066 739.863 Q139.144 744.447 139.144 753.197 Q139.144 761.923 136.066 766.53 Q133.01 771.113 127.2 771.113 Q121.39 771.113 118.311 766.53 Q115.256 761.923 115.256 753.197 Q115.256 744.447 118.311 739.863 Q121.39 735.257 127.2 735.257 Z" fill="#000000" fill-rule="evenodd" fill-opacity="1"></path><path clip-path="url(#clip140)" d="M147.362 764.562 L152.246 764.562 L152.246 770.442 L147.362 770.442 L147.362 764.562 Z" fill="#000000" fill-rule="evenodd" fill-opacity="1"></path><path clip-path="url(#clip140)" d="M162.477 735.882 L180.834 735.882 L180.834 739.817 L166.76 739.817 L166.76 748.289 Q167.778 747.942 168.797 747.78 Q169.815 747.595 170.834 747.595 Q176.621 747.595 180.001 750.766 Q183.38 753.937 183.38 759.354 Q183.38 764.933 179.908 768.035 Q176.436 771.113 170.116 771.113 Q167.94 771.113 165.672 770.743 Q163.427 770.372 161.019 769.632 L161.019 764.933 Q163.102 766.067 165.325 766.622 Q167.547 767.178 170.024 767.178 Q174.028 767.178 176.366 765.072 Q178.704 762.965 178.704 759.354 Q178.704 755.743 176.366 753.636 Q174.028 751.53 170.024 751.53 Q168.149 751.53 166.274 751.947 Q164.422 752.363 162.477 753.243 L162.477 735.882 Z" fill="#000000" fill-rule="evenodd" fill-opacity="1"></path><path clip-path="url(#clip140)" d="M203.172 751.298 Q200.024 751.298 198.172 753.451 Q196.343 755.604 196.343 759.354 Q196.343 763.081 198.172 765.257 Q200.024 767.41 203.172 767.41 Q206.32 767.41 208.149 765.257 Q210 763.081 210 759.354 Q210 755.604 208.149 753.451 Q206.32 751.298 203.172 751.298 M212.454 736.646 L212.454 740.905 Q210.695 740.072 208.889 739.632 Q207.107 739.192 205.348 739.192 Q200.718 739.192 198.264 742.317 Q195.834 745.442 195.487 751.761 Q196.852 749.748 198.912 748.683 Q200.973 747.595 203.449 747.595 Q208.658 747.595 211.667 750.766 Q214.699 753.914 214.699 759.354 Q214.699 764.678 211.551 767.896 Q208.403 771.113 203.172 771.113 Q197.176 771.113 194.005 766.53 Q190.834 761.923 190.834 753.197 Q190.834 745.002 194.723 740.141 Q198.612 735.257 205.162 735.257 Q206.922 735.257 208.704 735.604 Q210.51 735.951 212.454 736.646 Z" fill="#000000" fill-rule="evenodd" fill-opacity="1"></path><path clip-path="url(#clip140)" d="M222.801 735.882 L241.158 735.882 L241.158 739.817 L227.084 739.817 L227.084 748.289 Q228.102 747.942 229.121 747.78 Q230.139 747.595 231.158 747.595 Q236.945 747.595 240.324 750.766 Q243.704 753.937 243.704 759.354 Q243.704 764.933 240.232 768.035 Q236.76 771.113 230.44 771.113 Q228.264 771.113 225.996 770.743 Q223.75 770.372 221.343 769.632 L221.343 764.933 Q223.426 766.067 225.648 766.622 Q227.871 767.178 230.347 767.178 Q234.352 767.178 236.69 765.072 Q239.028 762.965 239.028 759.354 Q239.028 755.743 236.69 753.636 Q234.352 751.53 230.347 751.53 Q228.473 751.53 226.598 751.947 Q224.746 752.363 222.801 753.243 L222.801 735.882 Z" fill="#000000" fill-rule="evenodd" fill-opacity="1"></path><path clip-path="url(#clip140)" d="M126.205 510.428 Q122.593 510.428 120.765 513.992 Q118.959 517.534 118.959 524.664 Q118.959 531.77 120.765 535.335 Q122.593 538.877 126.205 538.877 Q129.839 538.877 131.644 535.335 Q133.473 531.77 133.473 524.664 Q133.473 517.534 131.644 513.992 Q129.839 510.428 126.205 510.428 M126.205 506.724 Q132.015 506.724 135.07 511.33 Q138.149 515.914 138.149 524.664 Q138.149 533.39 135.07 537.997 Q132.015 542.58 126.205 542.58 Q120.394 542.58 117.316 537.997 Q114.26 533.39 114.26 524.664 Q114.26 515.914 117.316 511.33 Q120.394 506.724 126.205 506.724 Z" fill="#000000" fill-rule="evenodd" fill-opacity="1"></path><path clip-path="url(#clip140)" d="M146.366 536.029 L151.251 536.029 L151.251 541.909 L146.366 541.909 L146.366 536.029 Z" fill="#000000" fill-rule="evenodd" fill-opacity="1"></path><path clip-path="url(#clip140)" d="M161.482 507.349 L179.839 507.349 L179.839 511.284 L165.765 511.284 L165.765 519.756 Q166.783 519.409 167.802 519.247 Q168.82 519.062 169.839 519.062 Q175.626 519.062 179.005 522.233 Q182.385 525.404 182.385 530.821 Q182.385 536.4 178.913 539.502 Q175.44 542.58 169.121 542.58 Q166.945 542.58 164.677 542.21 Q162.431 541.839 160.024 541.099 L160.024 536.4 Q162.107 537.534 164.329 538.089 Q166.552 538.645 169.028 538.645 Q173.033 538.645 175.371 536.539 Q177.709 534.432 177.709 530.821 Q177.709 527.21 175.371 525.103 Q173.033 522.997 169.028 522.997 Q167.153 522.997 165.278 523.414 Q163.427 523.83 161.482 524.71 L161.482 507.349 Z" fill="#000000" fill-rule="evenodd" fill-opacity="1"></path><path clip-path="url(#clip140)" d="M190.417 507.349 L212.639 507.349 L212.639 509.34 L200.093 541.909 L195.209 541.909 L207.014 511.284 L190.417 511.284 L190.417 507.349 Z" fill="#000000" fill-rule="evenodd" fill-opacity="1"></path><path clip-path="url(#clip140)" d="M231.76 510.428 Q228.148 510.428 226.32 513.992 Q224.514 517.534 224.514 524.664 Q224.514 531.77 226.32 535.335 Q228.148 538.877 231.76 538.877 Q235.394 538.877 237.199 535.335 Q239.028 531.77 239.028 524.664 Q239.028 517.534 237.199 513.992 Q235.394 510.428 231.76 510.428 M231.76 506.724 Q237.57 506.724 240.625 511.33 Q243.704 515.914 243.704 524.664 Q243.704 533.39 240.625 537.997 Q237.57 542.58 231.76 542.58 Q225.949 542.58 222.871 537.997 Q219.815 533.39 219.815 524.664 Q219.815 515.914 222.871 511.33 Q225.949 506.724 231.76 506.724 Z" fill="#000000" fill-rule="evenodd" fill-opacity="1"></path><path clip-path="url(#clip140)" d="M127.2 281.895 Q123.589 281.895 121.76 285.459 Q119.955 289.001 119.955 296.131 Q119.955 303.237 121.76 306.802 Q123.589 310.344 127.2 310.344 Q130.834 310.344 132.64 306.802 Q134.468 303.237 134.468 296.131 Q134.468 289.001 132.64 285.459 Q130.834 281.895 127.2 281.895 M127.2 278.191 Q133.01 278.191 136.066 282.797 Q139.144 287.381 139.144 296.131 Q139.144 304.857 136.066 309.464 Q133.01 314.047 127.2 314.047 Q121.39 314.047 118.311 309.464 Q115.256 304.857 115.256 296.131 Q115.256 287.381 118.311 282.797 Q121.39 278.191 127.2 278.191 Z" fill="#000000" fill-rule="evenodd" fill-opacity="1"></path><path clip-path="url(#clip140)" d="M147.362 307.496 L152.246 307.496 L152.246 313.376 L147.362 313.376 L147.362 307.496 Z" fill="#000000" fill-rule="evenodd" fill-opacity="1"></path><path clip-path="url(#clip140)" d="M162.477 278.816 L180.834 278.816 L180.834 282.751 L166.76 282.751 L166.76 291.223 Q167.778 290.876 168.797 290.714 Q169.815 290.529 170.834 290.529 Q176.621 290.529 180.001 293.7 Q183.38 296.871 183.38 302.288 Q183.38 307.867 179.908 310.969 Q176.436 314.047 170.116 314.047 Q167.94 314.047 165.672 313.677 Q163.427 313.306 161.019 312.566 L161.019 307.867 Q163.102 309.001 165.325 309.557 Q167.547 310.112 170.024 310.112 Q174.028 310.112 176.366 308.006 Q178.704 305.899 178.704 302.288 Q178.704 298.677 176.366 296.57 Q174.028 294.464 170.024 294.464 Q168.149 294.464 166.274 294.881 Q164.422 295.297 162.477 296.177 L162.477 278.816 Z" fill="#000000" fill-rule="evenodd" fill-opacity="1"></path><path clip-path="url(#clip140)" d="M191.413 278.816 L213.635 278.816 L213.635 280.807 L201.088 313.376 L196.204 313.376 L208.01 282.751 L191.413 282.751 L191.413 278.816 Z" fill="#000000" fill-rule="evenodd" fill-opacity="1"></path><path clip-path="url(#clip140)" d="M222.801 278.816 L241.158 278.816 L241.158 282.751 L227.084 282.751 L227.084 291.223 Q228.102 290.876 229.121 290.714 Q230.139 290.529 231.158 290.529 Q236.945 290.529 240.324 293.7 Q243.704 296.871 243.704 302.288 Q243.704 307.867 240.232 310.969 Q236.76 314.047 230.44 314.047 Q228.264 314.047 225.996 313.677 Q223.75 313.306 221.343 312.566 L221.343 307.867 Q223.426 309.001 225.648 309.557 Q227.871 310.112 230.347 310.112 Q234.352 310.112 236.69 308.006 Q239.028 305.899 239.028 302.288 Q239.028 298.677 236.69 296.57 Q234.352 294.464 230.347 294.464 Q228.473 294.464 226.598 294.881 Q224.746 295.297 222.801 296.177 L222.801 278.816 Z" fill="#000000" fill-rule="evenodd" fill-opacity="1"></path><path clip-path="url(#clip140)" d="M18.0438 1088.37 L24.314 1088.37 Q22.5634 1092.03 21.704 1095.27 Q20.8447 1098.52 20.8447 1101.54 Q20.8447 1106.79 22.8817 1109.66 Q24.9187 1112.49 28.6745 1112.49 Q31.8255 1112.49 33.4488 1110.61 Q35.0402 1108.7 36.0269 1103.42 L36.8226 1099.54 Q38.1912 1092.34 41.6605 1088.94 Q45.098 1085.5 50.8908 1085.5 Q57.7976 1085.5 61.3624 1090.15 Q64.9272 1094.76 64.9272 1103.71 Q64.9272 1107.08 64.1633 1110.9 Q63.3994 1114.69 61.9035 1118.76 L55.2831 1118.76 Q57.4793 1114.85 58.5933 1111.09 Q59.7073 1107.34 59.7073 1103.71 Q59.7073 1098.2 57.543 1095.21 Q55.3786 1092.22 51.3682 1092.22 Q47.8671 1092.22 45.8937 1094.38 Q43.9204 1096.51 42.9337 1101.42 L42.1698 1105.33 Q40.7375 1112.52 37.682 1115.74 Q34.6264 1118.95 29.1837 1118.95 Q22.8817 1118.95 19.2532 1114.53 Q15.6248 1110.07 15.6248 1102.28 Q15.6248 1098.93 16.2295 1095.46 Q16.8343 1091.99 18.0438 1088.37 Z" fill="#000000" fill-rule="evenodd" fill-opacity="1"></path><path clip-path="url(#clip140)" d="M58.657 1070.06 L77.5631 1070.06 L77.5631 1075.95 L28.3562 1075.95 L28.3562 1070.06 L33.7671 1070.06 Q30.5842 1068.22 29.0564 1065.42 Q27.4968 1062.59 27.4968 1058.67 Q27.4968 1052.18 32.6531 1048.13 Q37.8093 1044.06 46.212 1044.06 Q54.6147 1044.06 59.771 1048.13 Q64.9272 1052.18 64.9272 1058.67 Q64.9272 1062.59 63.3994 1065.42 Q61.8398 1068.22 58.657 1070.06 M46.212 1050.14 Q39.7508 1050.14 36.0905 1052.81 Q32.3984 1055.46 32.3984 1060.1 Q32.3984 1064.75 36.0905 1067.42 Q39.7508 1070.06 46.212 1070.06 Q52.6732 1070.06 56.3653 1067.42 Q60.0256 1064.75 60.0256 1060.1 Q60.0256 1055.46 56.3653 1052.81 Q52.6732 1050.14 46.212 1050.14 Z" fill="#000000" fill-rule="evenodd" fill-opacity="1"></path><path clip-path="url(#clip140)" d="M44.7161 1003.86 L47.5806 1003.86 L47.5806 1030.79 Q53.6281 1030.41 56.8109 1027.16 Q59.9619 1023.88 59.9619 1018.06 Q59.9619 1014.68 59.1344 1011.53 Q58.3069 1008.35 56.6518 1005.23 L62.1899 1005.23 Q63.5267 1008.38 64.227 1011.69 Q64.9272 1015 64.9272 1018.41 Q64.9272 1026.94 59.9619 1031.93 Q54.9967 1036.9 46.5303 1036.9 Q37.7774 1036.9 32.6531 1032.19 Q27.4968 1027.45 27.4968 1019.43 Q27.4968 1012.23 32.1438 1008.06 Q36.7589 1003.86 44.7161 1003.86 M42.9973 1009.72 Q38.1912 1009.78 35.3266 1012.42 Q32.4621 1015.03 32.4621 1019.36 Q32.4621 1024.26 35.2312 1027.22 Q38.0002 1030.15 43.0292 1030.6 L42.9973 1009.72 Z" fill="#000000" fill-rule="evenodd" fill-opacity="1"></path><path clip-path="url(#clip140)" d="M46.0847 978.048 Q46.0847 985.146 47.7079 987.883 Q49.3312 990.621 53.2461 990.621 Q56.3653 990.621 58.2114 988.584 Q60.0256 986.515 60.0256 982.982 Q60.0256 978.112 56.5881 975.184 Q53.1188 972.224 47.3897 972.224 L46.0847 972.224 L46.0847 978.048 M43.6657 966.367 L64.0042 966.367 L64.0042 972.224 L58.5933 972.224 Q61.8398 974.229 63.3994 977.221 Q64.9272 980.213 64.9272 984.541 Q64.9272 990.016 61.8716 993.262 Q58.7843 996.477 53.6281 996.477 Q47.6125 996.477 44.5569 992.467 Q41.5014 988.425 41.5014 980.436 L41.5014 972.224 L40.9285 972.224 Q36.8862 972.224 34.6901 974.897 Q32.4621 977.539 32.4621 982.345 Q32.4621 985.401 33.1941 988.297 Q33.9262 991.194 35.3903 993.867 L29.9795 993.867 Q28.7381 990.653 28.1334 987.629 Q27.4968 984.605 27.4968 981.741 Q27.4968 974.006 31.5072 970.187 Q35.5176 966.367 43.6657 966.367 Z" fill="#000000" fill-rule="evenodd" fill-opacity="1"></path><path clip-path="url(#clip140)" d="M33.8307 933.648 Q33.2578 934.634 33.0032 935.812 Q32.7167 936.958 32.7167 938.358 Q32.7167 943.323 35.9632 945.997 Q39.1779 948.639 45.2253 948.639 L64.0042 948.639 L64.0042 954.527 L28.3562 954.527 L28.3562 948.639 L33.8944 948.639 Q30.6479 946.793 29.0883 943.833 Q27.4968 940.873 27.4968 936.639 Q27.4968 936.035 27.5923 935.303 Q27.656 934.571 27.8151 933.679 L33.8307 933.648 Z" fill="#000000" fill-rule="evenodd" fill-opacity="1"></path><path clip-path="url(#clip140)" d="M35.1993 900.896 Q31.2526 898.7 29.3747 895.644 Q27.4968 892.589 27.4968 888.451 Q27.4968 882.881 31.4117 879.857 Q35.2948 876.834 42.4881 876.834 L64.0042 876.834 L64.0042 882.722 L42.679 882.722 Q37.5546 882.722 35.072 884.536 Q32.5894 886.35 32.5894 890.074 Q32.5894 894.626 35.6131 897.268 Q38.6368 899.909 43.8567 899.909 L64.0042 899.909 L64.0042 905.798 L42.679 905.798 Q37.5228 905.798 35.072 907.612 Q32.5894 909.426 32.5894 913.214 Q32.5894 917.702 35.6449 920.343 Q38.6686 922.985 43.8567 922.985 L64.0042 922.985 L64.0042 928.873 L28.3562 928.873 L28.3562 922.985 L33.8944 922.985 Q30.616 920.98 29.0564 918.179 Q27.4968 915.378 27.4968 911.527 Q27.4968 907.644 29.4702 904.938 Q31.4436 902.201 35.1993 900.896 Z" fill="#000000" fill-rule="evenodd" fill-opacity="1"></path><path clip-path="url(#clip140)" d="M46.0847 848.952 Q46.0847 856.05 47.7079 858.787 Q49.3312 861.524 53.2461 861.524 Q56.3653 861.524 58.2114 859.487 Q60.0256 857.418 60.0256 853.885 Q60.0256 849.016 56.5881 846.087 Q53.1188 843.127 47.3897 843.127 L46.0847 843.127 L46.0847 848.952 M43.6657 837.271 L64.0042 837.271 L64.0042 843.127 L58.5933 843.127 Q61.8398 845.132 63.3994 848.124 Q64.9272 851.116 64.9272 855.445 Q64.9272 860.919 61.8716 864.166 Q58.7843 867.381 53.6281 867.381 Q47.6125 867.381 44.5569 863.37 Q41.5014 859.328 41.5014 851.339 L41.5014 843.127 L40.9285 843.127 Q36.8862 843.127 34.6901 845.801 Q32.4621 848.443 32.4621 853.249 Q32.4621 856.304 33.1941 859.201 Q33.9262 862.097 35.3903 864.771 L29.9795 864.771 Q28.7381 861.556 28.1334 858.532 Q27.4968 855.509 27.4968 852.644 Q27.4968 844.91 31.5072 841.09 Q35.5176 837.271 43.6657 837.271 Z" fill="#000000" fill-rule="evenodd" fill-opacity="1"></path><path clip-path="url(#clip140)" d="M42.4881 795.575 L64.0042 795.575 L64.0042 801.432 L42.679 801.432 Q37.6183 801.432 35.1038 803.405 Q32.5894 805.379 32.5894 809.325 Q32.5894 814.068 35.6131 816.805 Q38.6368 819.542 43.8567 819.542 L64.0042 819.542 L64.0042 825.431 L28.3562 825.431 L28.3562 819.542 L33.8944 819.542 Q30.6797 817.442 29.0883 814.609 Q27.4968 811.744 27.4968 808.02 Q27.4968 801.877 31.3163 798.726 Q35.1038 795.575 42.4881 795.575 Z" fill="#000000" fill-rule="evenodd" fill-opacity="1"></path><path clip-path="url(#clip140)" d="M20.1444 727.335 L26.9239 727.335 Q23.9002 730.582 22.4043 734.274 Q20.9083 737.934 20.9083 742.072 Q20.9083 750.22 25.9054 754.548 Q30.8707 758.877 40.2919 758.877 Q49.6813 758.877 54.6784 754.548 Q59.6436 750.22 59.6436 742.072 Q59.6436 737.934 58.1477 734.274 Q56.6518 730.582 53.6281 727.335 L60.3439 727.335 Q62.6355 730.709 63.7814 734.496 Q64.9272 738.252 64.9272 742.454 Q64.9272 753.243 58.3387 759.45 Q51.7183 765.657 40.2919 765.657 Q28.8336 765.657 22.2451 759.45 Q15.6248 753.243 15.6248 742.454 Q15.6248 738.189 16.7706 734.433 Q17.8846 730.645 20.1444 727.335 Z" fill="#000000" fill-rule="evenodd" fill-opacity="1"></path><path clip-path="url(#clip140)" d="M32.4621 703.846 Q32.4621 708.556 36.1542 711.293 Q39.8145 714.031 46.212 714.031 Q52.6095 714.031 56.3017 711.325 Q59.9619 708.588 59.9619 703.846 Q59.9619 699.167 56.2698 696.43 Q52.5777 693.692 46.212 693.692 Q39.8781 693.692 36.186 696.43 Q32.4621 699.167 32.4621 703.846 M27.4968 703.846 Q27.4968 696.207 32.4621 691.846 Q37.4273 687.486 46.212 687.486 Q54.9649 687.486 59.9619 691.846 Q64.9272 696.207 64.9272 703.846 Q64.9272 711.516 59.9619 715.877 Q54.9649 720.205 46.212 720.205 Q37.4273 720.205 32.4621 715.877 Q27.4968 711.516 27.4968 703.846 Z" fill="#000000" fill-rule="evenodd" fill-opacity="1"></path><path clip-path="url(#clip140)" d="M33.8307 657.121 Q33.2578 658.108 33.0032 659.286 Q32.7167 660.431 32.7167 661.832 Q32.7167 666.797 35.9632 669.471 Q39.1779 672.113 45.2253 672.113 L64.0042 672.113 L64.0042 678.001 L28.3562 678.001 L28.3562 672.113 L33.8944 672.113 Q30.6479 670.267 29.0883 667.306 Q27.4968 664.346 27.4968 660.113 Q27.4968 659.508 27.5923 658.776 Q27.656 658.044 27.8151 657.153 L33.8307 657.121 Z" fill="#000000" fill-rule="evenodd" fill-opacity="1"></path><path clip-path="url(#clip140)" d="M33.8307 631.468 Q33.2578 632.454 33.0032 633.632 Q32.7167 634.778 32.7167 636.178 Q32.7167 641.143 35.9632 643.817 Q39.1779 646.459 45.2253 646.459 L64.0042 646.459 L64.0042 652.347 L28.3562 652.347 L28.3562 646.459 L33.8944 646.459 Q30.6479 644.613 29.0883 641.653 Q27.4968 638.693 27.4968 634.459 Q27.4968 633.855 27.5923 633.123 Q27.656 632.391 27.8151 631.499 L33.8307 631.468 Z" fill="#000000" fill-rule="evenodd" fill-opacity="1"></path><path clip-path="url(#clip140)" d="M44.7161 596.265 L47.5806 596.265 L47.5806 623.192 Q53.6281 622.81 56.8109 619.564 Q59.9619 616.285 59.9619 610.461 Q59.9619 607.087 59.1344 603.936 Q58.3069 600.753 56.6518 597.634 L62.1899 597.634 Q63.5267 600.785 64.227 604.095 Q64.9272 607.405 64.9272 610.811 Q64.9272 619.341 59.9619 624.338 Q54.9967 629.303 46.5303 629.303 Q37.7774 629.303 32.6531 624.593 Q27.4968 619.85 27.4968 611.829 Q27.4968 604.636 32.1438 600.467 Q36.7589 596.265 44.7161 596.265 M42.9973 602.122 Q38.1912 602.185 35.3266 604.827 Q32.4621 607.437 32.4621 611.766 Q32.4621 616.667 35.2312 619.627 Q38.0002 622.556 43.0292 623.001 L42.9973 602.122 Z" fill="#000000" fill-rule="evenodd" fill-opacity="1"></path><path clip-path="url(#clip140)" d="M14.479 586.653 L14.479 580.796 L64.0042 580.796 L64.0042 586.653 L14.479 586.653 Z" fill="#000000" fill-rule="evenodd" fill-opacity="1"></path><path clip-path="url(#clip140)" d="M46.0847 552.342 Q46.0847 559.44 47.7079 562.177 Q49.3312 564.914 53.2461 564.914 Q56.3653 564.914 58.2114 562.877 Q60.0256 560.808 60.0256 557.275 Q60.0256 552.405 56.5881 549.477 Q53.1188 546.517 47.3897 546.517 L46.0847 546.517 L46.0847 552.342 M43.6657 540.661 L64.0042 540.661 L64.0042 546.517 L58.5933 546.517 Q61.8398 548.522 63.3994 551.514 Q64.9272 554.506 64.9272 558.835 Q64.9272 564.309 61.8716 567.556 Q58.7843 570.771 53.6281 570.771 Q47.6125 570.771 44.5569 566.76 Q41.5014 562.718 41.5014 554.729 L41.5014 546.517 L40.9285 546.517 Q36.8862 546.517 34.6901 549.191 Q32.4621 551.833 32.4621 556.639 Q32.4621 559.694 33.1941 562.591 Q33.9262 565.487 35.3903 568.161 L29.9795 568.161 Q28.7381 564.946 28.1334 561.922 Q27.4968 558.898 27.4968 556.034 Q27.4968 548.3 31.5072 544.48 Q35.5176 540.661 43.6657 540.661 Z" fill="#000000" fill-rule="evenodd" fill-opacity="1"></path><path clip-path="url(#clip140)" d="M18.2347 522.805 L28.3562 522.805 L28.3562 510.742 L32.9077 510.742 L32.9077 522.805 L52.2594 522.805 Q56.6199 522.805 57.8613 521.627 Q59.1026 520.418 59.1026 516.757 L59.1026 510.742 L64.0042 510.742 L64.0042 516.757 Q64.0042 523.537 61.4897 526.115 Q58.9434 528.693 52.2594 528.693 L32.9077 528.693 L32.9077 532.99 L28.3562 532.99 L28.3562 528.693 L18.2347 528.693 L18.2347 522.805 Z" fill="#000000" fill-rule="evenodd" fill-opacity="1"></path><path clip-path="url(#clip140)" d="M28.3562 503.039 L28.3562 497.183 L64.0042 497.183 L64.0042 503.039 L28.3562 503.039 M14.479 503.039 L14.479 497.183 L21.895 497.183 L21.895 503.039 L14.479 503.039 Z" fill="#000000" fill-rule="evenodd" fill-opacity="1"></path><path clip-path="url(#clip140)" d="M32.4621 471.115 Q32.4621 475.826 36.1542 478.563 Q39.8145 481.3 46.212 481.3 Q52.6095 481.3 56.3017 478.595 Q59.9619 475.858 59.9619 471.115 Q59.9619 466.437 56.2698 463.699 Q52.5777 460.962 46.212 460.962 Q39.8781 460.962 36.186 463.699 Q32.4621 466.437 32.4621 471.115 M27.4968 471.115 Q27.4968 463.477 32.4621 459.116 Q37.4273 454.756 46.212 454.756 Q54.9649 454.756 59.9619 459.116 Q64.9272 463.477 64.9272 471.115 Q64.9272 478.786 59.9619 483.147 Q54.9649 487.475 46.212 487.475 Q37.4273 487.475 32.4621 483.147 Q27.4968 478.786 27.4968 471.115 Z" fill="#000000" fill-rule="evenodd" fill-opacity="1"></path><path clip-path="url(#clip140)" d="M42.4881 415.415 L64.0042 415.415 L64.0042 421.272 L42.679 421.272 Q37.6183 421.272 35.1038 423.245 Q32.5894 425.219 32.5894 429.165 Q32.5894 433.908 35.6131 436.645 Q38.6368 439.382 43.8567 439.382 L64.0042 439.382 L64.0042 445.271 L28.3562 445.271 L28.3562 439.382 L33.8944 439.382 Q30.6797 437.282 29.0883 434.449 Q27.4968 431.584 27.4968 427.86 Q27.4968 421.717 31.3163 418.566 Q35.1038 415.415 42.4881 415.415 Z" fill="#000000" fill-rule="evenodd" fill-opacity="1"></path><path clip-path="url(#clip140)" d="M487.192 14.0809 L487.192 22.0612 Q482.534 19.8332 478.402 18.7395 Q474.27 17.6457 470.421 17.6457 Q463.737 17.6457 460.092 20.2383 Q456.486 22.8309 456.486 27.611 Q456.486 31.6214 458.876 33.6873 Q461.307 35.7128 468.031 36.9686 L472.973 37.9813 Q482.128 39.7232 486.463 44.1387 Q490.838 48.5136 490.838 55.8863 Q490.838 64.6767 484.924 69.2137 Q479.05 73.7508 467.667 73.7508 Q463.373 73.7508 458.512 72.7785 Q453.691 71.8063 448.506 69.9024 L448.506 61.4765 Q453.489 64.2716 458.269 65.6895 Q463.049 67.1073 467.667 67.1073 Q474.675 67.1073 478.483 64.3527 Q482.291 61.598 482.291 56.4939 Q482.291 52.0379 479.536 49.5264 Q476.822 47.0148 470.583 45.759 L465.601 44.7868 Q456.446 42.9639 452.354 39.075 Q448.263 35.1862 448.263 28.2591 Q448.263 20.2383 453.894 15.6203 Q459.565 11.0023 469.49 11.0023 Q473.743 11.0023 478.159 11.7719 Q482.574 12.5416 487.192 14.0809 Z" fill="#000000" fill-rule="evenodd" fill-opacity="1"></path><path clip-path="url(#clip140)" d="M510.485 65.7705 L510.485 89.8329 L502.991 89.8329 L502.991 27.2059 L510.485 27.2059 L510.485 34.0924 Q512.834 30.0415 516.399 28.0971 Q520.004 26.1121 524.987 26.1121 Q533.251 26.1121 538.396 32.6746 Q543.581 39.2371 543.581 49.9314 Q543.581 60.6258 538.396 67.1883 Q533.251 73.7508 524.987 73.7508 Q520.004 73.7508 516.399 71.8063 Q512.834 69.8214 510.485 65.7705 M535.843 49.9314 Q535.843 41.7081 532.441 37.0496 Q529.078 32.3505 523.164 32.3505 Q517.25 32.3505 513.847 37.0496 Q510.485 41.7081 510.485 49.9314 Q510.485 58.1548 513.847 62.8538 Q517.25 67.5124 523.164 67.5124 Q529.078 67.5124 532.441 62.8538 Q535.843 58.1548 535.843 49.9314 Z" fill="#000000" fill-rule="evenodd" fill-opacity="1"></path><path clip-path="url(#clip140)" d="M594.744 48.0275 L594.744 51.6733 L560.473 51.6733 Q560.959 59.3701 565.091 63.421 Q569.263 67.4314 576.677 67.4314 Q580.971 67.4314 584.981 66.3781 Q589.032 65.3249 593.002 63.2184 L593.002 70.267 Q588.991 71.9684 584.778 72.8596 Q580.565 73.7508 576.231 73.7508 Q565.375 73.7508 559.015 67.4314 Q552.695 61.1119 552.695 50.3365 Q552.695 39.1965 558.691 32.6746 Q564.726 26.1121 574.935 26.1121 Q584.09 26.1121 589.396 32.0264 Q594.744 37.9003 594.744 48.0275 M587.29 45.84 Q587.209 39.7232 583.847 36.0774 Q580.525 32.4315 575.016 32.4315 Q568.777 32.4315 565.01 35.9558 Q561.283 39.4801 560.716 45.8805 L587.29 45.84 Z" fill="#000000" fill-rule="evenodd" fill-opacity="1"></path><path clip-path="url(#clip140)" d="M627.596 49.7694 Q618.563 49.7694 615.079 51.8354 Q611.595 53.9013 611.595 58.8839 Q611.595 62.8538 614.188 65.2034 Q616.821 67.5124 621.318 67.5124 Q627.515 67.5124 631.242 63.1374 Q635.01 58.7219 635.01 51.4303 L635.01 49.7694 L627.596 49.7694 M642.463 46.6907 L642.463 72.576 L635.01 72.576 L635.01 65.6895 Q632.458 69.8214 628.65 71.8063 Q624.842 73.7508 619.333 73.7508 Q612.365 73.7508 608.233 69.8619 Q604.142 65.9325 604.142 59.3701 Q604.142 51.7138 609.246 47.825 Q614.39 43.9361 624.558 43.9361 L635.01 43.9361 L635.01 43.2069 Q635.01 38.0623 631.607 35.2672 Q628.245 32.4315 622.128 32.4315 Q618.239 32.4315 614.553 33.3632 Q610.866 34.295 607.463 36.1584 L607.463 29.2718 Q611.555 27.692 615.403 26.9223 Q619.252 26.1121 622.897 26.1121 Q632.741 26.1121 637.602 31.2163 Q642.463 36.3204 642.463 46.6907 Z" fill="#000000" fill-rule="evenodd" fill-opacity="1"></path><path clip-path="url(#clip140)" d="M684.107 34.1734 Q682.851 33.4443 681.352 33.1202 Q679.894 32.7556 678.111 32.7556 Q671.792 32.7556 668.389 36.8875 Q665.027 40.9789 665.027 48.6757 L665.027 72.576 L657.533 72.576 L657.533 27.2059 L665.027 27.2059 L665.027 34.2544 Q667.376 30.1225 671.144 28.1376 Q674.911 26.1121 680.299 26.1121 Q681.068 26.1121 682 26.2337 Q682.932 26.3147 684.066 26.5172 L684.107 34.1734 Z" fill="#000000" fill-rule="evenodd" fill-opacity="1"></path><path clip-path="url(#clip140)" d="M725.79 35.9153 Q728.585 30.8922 732.474 28.5022 Q736.363 26.1121 741.629 26.1121 Q748.718 26.1121 752.567 31.0947 Q756.415 36.0368 756.415 45.1919 L756.415 72.576 L748.921 72.576 L748.921 45.4349 Q748.921 38.913 746.612 35.7533 Q744.303 32.5936 739.563 32.5936 Q733.771 32.5936 730.408 36.4419 Q727.046 40.2903 727.046 46.9338 L727.046 72.576 L719.552 72.576 L719.552 45.4349 Q719.552 38.8725 717.243 35.7533 Q714.934 32.5936 710.113 32.5936 Q704.402 32.5936 701.039 36.4824 Q697.677 40.3308 697.677 46.9338 L697.677 72.576 L690.183 72.576 L690.183 27.2059 L697.677 27.2059 L697.677 34.2544 Q700.229 30.082 703.794 28.0971 Q707.359 26.1121 712.26 26.1121 Q717.202 26.1121 720.646 28.6237 Q724.129 31.1352 725.79 35.9153 Z" fill="#000000" fill-rule="evenodd" fill-opacity="1"></path><path clip-path="url(#clip140)" d="M791.901 49.7694 Q782.868 49.7694 779.384 51.8354 Q775.9 53.9013 775.9 58.8839 Q775.9 62.8538 778.493 65.2034 Q781.126 67.5124 785.622 67.5124 Q791.82 67.5124 795.547 63.1374 Q799.314 58.7219 799.314 51.4303 L799.314 49.7694 L791.901 49.7694 M806.768 46.6907 L806.768 72.576 L799.314 72.576 L799.314 65.6895 Q796.762 69.8214 792.954 71.8063 Q789.147 73.7508 783.637 73.7508 Q776.67 73.7508 772.538 69.8619 Q768.446 65.9325 768.446 59.3701 Q768.446 51.7138 773.551 47.825 Q778.695 43.9361 788.863 43.9361 L799.314 43.9361 L799.314 43.2069 Q799.314 38.0623 795.912 35.2672 Q792.549 32.4315 786.432 32.4315 Q782.544 32.4315 778.857 33.3632 Q775.171 34.295 771.768 36.1584 L771.768 29.2718 Q775.86 27.692 779.708 26.9223 Q783.556 26.1121 787.202 26.1121 Q797.046 26.1121 801.907 31.2163 Q806.768 36.3204 806.768 46.6907 Z" fill="#000000" fill-rule="evenodd" fill-opacity="1"></path><path clip-path="url(#clip140)" d="M859.835 45.1919 L859.835 72.576 L852.381 72.576 L852.381 45.4349 Q852.381 38.994 849.87 35.7938 Q847.358 32.5936 842.335 32.5936 Q836.299 32.5936 832.815 36.4419 Q829.331 40.2903 829.331 46.9338 L829.331 72.576 L821.837 72.576 L821.837 27.2059 L829.331 27.2059 L829.331 34.2544 Q832.005 30.163 835.61 28.1376 Q839.256 26.1121 843.996 26.1121 Q851.814 26.1121 855.824 30.9732 Q859.835 35.7938 859.835 45.1919 Z" fill="#000000" fill-rule="evenodd" fill-opacity="1"></path><path clip-path="url(#clip140)" d="M946.686 16.7545 L946.686 25.383 Q942.554 21.5346 937.855 19.6307 Q933.197 17.7268 927.93 17.7268 Q917.56 17.7268 912.051 24.0867 Q906.542 30.4061 906.542 42.3968 Q906.542 54.3469 912.051 60.7069 Q917.56 67.0263 927.93 67.0263 Q933.197 67.0263 937.855 65.1223 Q942.554 63.2184 946.686 59.3701 L946.686 67.9175 Q942.392 70.8341 937.572 72.2924 Q932.792 73.7508 927.444 73.7508 Q913.712 73.7508 905.813 65.3654 Q897.913 56.9395 897.913 42.3968 Q897.913 27.8135 905.813 19.4281 Q913.712 11.0023 927.444 11.0023 Q932.873 11.0023 937.653 12.4606 Q942.473 13.8784 946.686 16.7545 Z" fill="#000000" fill-rule="evenodd" fill-opacity="1"></path><path clip-path="url(#clip140)" d="M976.582 32.4315 Q970.587 32.4315 967.103 37.1306 Q963.619 41.7891 963.619 49.9314 Q963.619 58.0738 967.062 62.7728 Q970.546 67.4314 976.582 67.4314 Q982.537 67.4314 986.02 62.7323 Q989.504 58.0333 989.504 49.9314 Q989.504 41.8701 986.02 37.1711 Q982.537 32.4315 976.582 32.4315 M976.582 26.1121 Q986.304 26.1121 991.854 32.4315 Q997.403 38.7509 997.403 49.9314 Q997.403 61.0714 991.854 67.4314 Q986.304 73.7508 976.582 73.7508 Q966.819 73.7508 961.269 67.4314 Q955.76 61.0714 955.76 49.9314 Q955.76 38.7509 961.269 32.4315 Q966.819 26.1121 976.582 26.1121 Z" fill="#000000" fill-rule="evenodd" fill-opacity="1"></path><path clip-path="url(#clip140)" d="M1036.05 34.1734 Q1034.79 33.4443 1033.29 33.1202 Q1031.84 32.7556 1030.05 32.7556 Q1023.73 32.7556 1020.33 36.8875 Q1016.97 40.9789 1016.97 48.6757 L1016.97 72.576 L1009.48 72.576 L1009.48 27.2059 L1016.97 27.2059 L1016.97 34.2544 Q1019.32 30.1225 1023.09 28.1376 Q1026.85 26.1121 1032.24 26.1121 Q1033.01 26.1121 1033.94 26.2337 Q1034.87 26.3147 1036.01 26.5172 L1036.05 34.1734 Z" fill="#000000" fill-rule="evenodd" fill-opacity="1"></path><path clip-path="url(#clip140)" d="M1068.7 34.1734 Q1067.44 33.4443 1065.94 33.1202 Q1064.49 32.7556 1062.7 32.7556 Q1056.38 32.7556 1052.98 36.8875 Q1049.62 40.9789 1049.62 48.6757 L1049.62 72.576 L1042.13 72.576 L1042.13 27.2059 L1049.62 27.2059 L1049.62 34.2544 Q1051.97 30.1225 1055.74 28.1376 Q1059.5 26.1121 1064.89 26.1121 Q1065.66 26.1121 1066.59 26.2337 Q1067.52 26.3147 1068.66 26.5172 L1068.7 34.1734 Z" fill="#000000" fill-rule="evenodd" fill-opacity="1"></path><path clip-path="url(#clip140)" d="M1113.5 48.0275 L1113.5 51.6733 L1079.23 51.6733 Q1079.72 59.3701 1083.85 63.421 Q1088.02 67.4314 1095.44 67.4314 Q1099.73 67.4314 1103.74 66.3781 Q1107.79 65.3249 1111.76 63.2184 L1111.76 70.267 Q1107.75 71.9684 1103.54 72.8596 Q1099.32 73.7508 1094.99 73.7508 Q1084.13 73.7508 1077.77 67.4314 Q1071.45 61.1119 1071.45 50.3365 Q1071.45 39.1965 1077.45 32.6746 Q1083.49 26.1121 1093.69 26.1121 Q1102.85 26.1121 1108.16 32.0264 Q1113.5 37.9003 1113.5 48.0275 M1106.05 45.84 Q1105.97 39.7232 1102.61 36.0774 Q1099.28 32.4315 1093.77 32.4315 Q1087.54 32.4315 1083.77 35.9558 Q1080.04 39.4801 1079.47 45.8805 L1106.05 45.84 Z" fill="#000000" fill-rule="evenodd" fill-opacity="1"></path><path clip-path="url(#clip140)" d="M1125.74 9.54393 L1133.19 9.54393 L1133.19 72.576 L1125.74 72.576 L1125.74 9.54393 Z" fill="#000000" fill-rule="evenodd" fill-opacity="1"></path><path clip-path="url(#clip140)" d="M1169.4 49.7694 Q1160.37 49.7694 1156.89 51.8354 Q1153.4 53.9013 1153.4 58.8839 Q1153.4 62.8538 1156 65.2034 Q1158.63 67.5124 1163.13 67.5124 Q1169.32 67.5124 1173.05 63.1374 Q1176.82 58.7219 1176.82 51.4303 L1176.82 49.7694 L1169.4 49.7694 M1184.27 46.6907 L1184.27 72.576 L1176.82 72.576 L1176.82 65.6895 Q1174.27 69.8214 1170.46 71.8063 Q1166.65 73.7508 1161.14 73.7508 Q1154.17 73.7508 1150.04 69.8619 Q1145.95 65.9325 1145.95 59.3701 Q1145.95 51.7138 1151.05 47.825 Q1156.2 43.9361 1166.37 43.9361 L1176.82 43.9361 L1176.82 43.2069 Q1176.82 38.0623 1173.42 35.2672 Q1170.05 32.4315 1163.94 32.4315 Q1160.05 32.4315 1156.36 33.3632 Q1152.67 34.295 1149.27 36.1584 L1149.27 29.2718 Q1153.36 27.692 1157.21 26.9223 Q1161.06 26.1121 1164.71 26.1121 Q1174.55 26.1121 1179.41 31.2163 Q1184.27 36.3204 1184.27 46.6907 Z" fill="#000000" fill-rule="evenodd" fill-opacity="1"></path><path clip-path="url(#clip140)" d="M1207 14.324 L1207 27.2059 L1222.35 27.2059 L1222.35 32.9987 L1207 32.9987 L1207 57.6282 Q1207 63.1779 1208.5 64.7578 Q1210.04 66.3376 1214.69 66.3376 L1222.35 66.3376 L1222.35 72.576 L1214.69 72.576 Q1206.07 72.576 1202.78 69.3758 Q1199.5 66.1351 1199.5 57.6282 L1199.5 32.9987 L1194.03 32.9987 L1194.03 27.2059 L1199.5 27.2059 L1199.5 14.324 L1207 14.324 Z" fill="#000000" fill-rule="evenodd" fill-opacity="1"></path><path clip-path="url(#clip140)" d="M1232.15 27.2059 L1239.61 27.2059 L1239.61 72.576 L1232.15 72.576 L1232.15 27.2059 M1232.15 9.54393 L1239.61 9.54393 L1239.61 18.9825 L1232.15 18.9825 L1232.15 9.54393 Z" fill="#000000" fill-rule="evenodd" fill-opacity="1"></path><path clip-path="url(#clip140)" d="M1272.78 32.4315 Q1266.79 32.4315 1263.3 37.1306 Q1259.82 41.7891 1259.82 49.9314 Q1259.82 58.0738 1263.26 62.7728 Q1266.75 67.4314 1272.78 67.4314 Q1278.74 67.4314 1282.22 62.7323 Q1285.71 58.0333 1285.71 49.9314 Q1285.71 41.8701 1282.22 37.1711 Q1278.74 32.4315 1272.78 32.4315 M1272.78 26.1121 Q1282.51 26.1121 1288.06 32.4315 Q1293.61 38.7509 1293.61 49.9314 Q1293.61 61.0714 1288.06 67.4314 Q1282.51 73.7508 1272.78 73.7508 Q1263.02 73.7508 1257.47 67.4314 Q1251.96 61.0714 1251.96 49.9314 Q1251.96 38.7509 1257.47 32.4315 Q1263.02 26.1121 1272.78 26.1121 Z" fill="#000000" fill-rule="evenodd" fill-opacity="1"></path><path clip-path="url(#clip140)" d="M1343.67 45.1919 L1343.67 72.576 L1336.22 72.576 L1336.22 45.4349 Q1336.22 38.994 1333.71 35.7938 Q1331.2 32.5936 1326.17 32.5936 Q1320.14 32.5936 1316.66 36.4419 Q1313.17 40.2903 1313.17 46.9338 L1313.17 72.576 L1305.68 72.576 L1305.68 27.2059 L1313.17 27.2059 L1313.17 34.2544 Q1315.85 30.163 1319.45 28.1376 Q1323.1 26.1121 1327.84 26.1121 Q1335.65 26.1121 1339.66 30.9732 Q1343.67 35.7938 1343.67 45.1919 Z" fill="#000000" fill-rule="evenodd" fill-opacity="1"></path><path clip-path="url(#clip140)" d="M1360.45 62.2867 L1368.99 62.2867 L1368.99 69.2543 L1362.35 82.2172 L1357.12 82.2172 L1360.45 69.2543 L1360.45 62.2867 Z" fill="#000000" fill-rule="evenodd" fill-opacity="1"></path><path clip-path="url(#clip140)" d="M1427.2 72.576 L1404.11 12.096 L1412.66 12.096 L1431.82 63.0159 L1451.02 12.096 L1459.53 12.096 L1436.48 72.576 L1427.2 72.576 Z" fill="#000000" fill-rule="evenodd" fill-opacity="1"></path><path clip-path="url(#clip140)" d="M1515.03 49.7694 Q1505.99 49.7694 1502.51 51.8354 Q1499.03 53.9013 1499.03 58.8839 Q1499.03 62.8538 1501.62 65.2034 Q1504.25 67.5124 1508.75 67.5124 Q1514.95 67.5124 1518.67 63.1374 Q1522.44 58.7219 1522.44 51.4303 L1522.44 49.7694 L1515.03 49.7694 M1529.89 46.6907 L1529.89 72.576 L1522.44 72.576 L1522.44 65.6895 Q1519.89 69.8214 1516.08 71.8063 Q1512.27 73.7508 1506.76 73.7508 Q1499.8 73.7508 1495.66 69.8619 Q1491.57 65.9325 1491.57 59.3701 Q1491.57 51.7138 1496.68 47.825 Q1501.82 43.9361 1511.99 43.9361 L1522.44 43.9361 L1522.44 43.2069 Q1522.44 38.0623 1519.04 35.2672 Q1515.68 32.4315 1509.56 32.4315 Q1505.67 32.4315 1501.98 33.3632 Q1498.3 34.295 1494.9 36.1584 L1494.9 29.2718 Q1498.99 27.692 1502.83 26.9223 Q1506.68 26.1121 1510.33 26.1121 Q1520.17 26.1121 1525.03 31.2163 Q1529.89 36.3204 1529.89 46.6907 Z" fill="#000000" fill-rule="evenodd" fill-opacity="1"></path><path clip-path="url(#clip140)" d="M1582.96 45.1919 L1582.96 72.576 L1575.51 72.576 L1575.51 45.4349 Q1575.51 38.994 1573 35.7938 Q1570.48 32.5936 1565.46 32.5936 Q1559.43 32.5936 1555.94 36.4419 Q1552.46 40.2903 1552.46 46.9338 L1552.46 72.576 L1544.96 72.576 L1544.96 27.2059 L1552.46 27.2059 L1552.46 34.2544 Q1555.13 30.163 1558.74 28.1376 Q1562.38 26.1121 1567.12 26.1121 Q1574.94 26.1121 1578.95 30.9732 Q1582.96 35.7938 1582.96 45.1919 Z" fill="#000000" fill-rule="evenodd" fill-opacity="1"></path><path clip-path="url(#clip140)" d="M1627.68 34.0924 L1627.68 9.54393 L1635.14 9.54393 L1635.14 72.576 L1627.68 72.576 L1627.68 65.7705 Q1625.33 69.8214 1621.73 71.8063 Q1618.16 73.7508 1613.14 73.7508 Q1604.92 73.7508 1599.73 67.1883 Q1594.59 60.6258 1594.59 49.9314 Q1594.59 39.2371 1599.73 32.6746 Q1604.92 26.1121 1613.14 26.1121 Q1618.16 26.1121 1621.73 28.0971 Q1625.33 30.0415 1627.68 34.0924 M1602.28 49.9314 Q1602.28 58.1548 1605.65 62.8538 Q1609.05 67.5124 1614.96 67.5124 Q1620.88 67.5124 1624.28 62.8538 Q1627.68 58.1548 1627.68 49.9314 Q1627.68 41.7081 1624.28 37.0496 Q1620.88 32.3505 1614.96 32.3505 Q1609.05 32.3505 1605.65 37.0496 Q1602.28 41.7081 1602.28 49.9314 Z" fill="#000000" fill-rule="evenodd" fill-opacity="1"></path><path clip-path="url(#clip140)" d="M1692.78 72.576 L1669.69 12.096 L1678.24 12.096 L1697.4 63.0159 L1716.6 12.096 L1725.11 12.096 L1702.06 72.576 L1692.78 72.576 Z" fill="#000000" fill-rule="evenodd" fill-opacity="1"></path><path clip-path="url(#clip140)" d="M1702.06 6.22219 L1708.05 6.22219 L1717.98 21.4536 L1712.35 21.4536 L1705.06 11.5289 L1697.76 21.4536 L1692.13 21.4536 L1702.06 6.22219 M1705.06 26.1121 L1705.06 26.1121 Z" fill="#000000" fill-rule="evenodd" fill-opacity="1"></path><path clip-path="url(#clip140)" d="M1735.52 62.2867 L1744.07 62.2867 L1744.07 69.2543 L1737.42 82.2172 L1732.2 82.2172 L1735.52 69.2543 L1735.52 62.2867 Z" fill="#000000" fill-rule="evenodd" fill-opacity="1"></path><path clip-path="url(#clip140)" d="M1781.01 27.2059 L1788.91 27.2059 L1803.09 65.2844 L1817.27 27.2059 L1825.17 27.2059 L1808.15 72.576 L1798.02 72.576 L1781.01 27.2059 Z" fill="#000000" fill-rule="evenodd" fill-opacity="1"></path><path clip-path="url(#clip140)" d="M1856.07 49.7694 Q1847.04 49.7694 1843.56 51.8354 Q1840.07 53.9013 1840.07 58.8839 Q1840.07 62.8538 1842.67 65.2034 Q1845.3 67.5124 1849.79 67.5124 Q1855.99 67.5124 1859.72 63.1374 Q1863.49 58.7219 1863.49 51.4303 L1863.49 49.7694 L1856.07 49.7694 M1870.94 46.6907 L1870.94 72.576 L1863.49 72.576 L1863.49 65.6895 Q1860.93 69.8214 1857.13 71.8063 Q1853.32 73.7508 1847.81 73.7508 Q1840.84 73.7508 1836.71 69.8619 Q1832.62 65.9325 1832.62 59.3701 Q1832.62 51.7138 1837.72 47.825 Q1842.87 43.9361 1853.04 43.9361 L1863.49 43.9361 L1863.49 43.2069 Q1863.49 38.0623 1860.08 35.2672 Q1856.72 32.4315 1850.6 32.4315 Q1846.72 32.4315 1843.03 33.3632 Q1839.34 34.295 1835.94 36.1584 L1835.94 29.2718 Q1840.03 27.692 1843.88 26.9223 Q1847.73 26.1121 1851.37 26.1121 Q1861.22 26.1121 1866.08 31.2163 Q1870.94 36.3204 1870.94 46.6907 Z" fill="#000000" fill-rule="evenodd" fill-opacity="1"></path><path clip-path="url(#clip140)" d="M1912.58 34.1734 Q1911.33 33.4443 1909.83 33.1202 Q1908.37 32.7556 1906.59 32.7556 Q1900.27 32.7556 1896.87 36.8875 Q1893.5 40.9789 1893.5 48.6757 L1893.5 72.576 L1886.01 72.576 L1886.01 27.2059 L1893.5 27.2059 L1893.5 34.2544 Q1895.85 30.1225 1899.62 28.1376 Q1903.39 26.1121 1908.78 26.1121 Q1909.55 26.1121 1910.48 26.2337 Q1911.41 26.3147 1912.54 26.5172 L1912.58 34.1734 Z" fill="#000000" fill-rule="evenodd" fill-opacity="1"></path><path clip-path="url(#clip140)" d="M1939.28 76.7889 Q1936.12 84.8907 1933.12 87.3618 Q1930.12 89.8329 1925.1 89.8329 L1919.15 89.8329 L1919.15 83.5945 L1923.52 83.5945 Q1926.6 83.5945 1928.3 82.1361 Q1930 80.6778 1932.07 75.2496 L1933.41 71.8468 L1915.05 27.2059 L1922.95 27.2059 L1937.13 62.6918 L1951.31 27.2059 L1959.21 27.2059 L1939.28 76.7889 Z" fill="#000000" fill-rule="evenodd" fill-opacity="1"></path><path clip-path="url(#clip140)" d="M1969.5 27.2059 L1976.95 27.2059 L1976.95 72.576 L1969.5 72.576 L1969.5 27.2059 M1969.5 9.54393 L1976.95 9.54393 L1976.95 18.9825 L1969.5 18.9825 L1969.5 9.54393 Z" fill="#000000" fill-rule="evenodd" fill-opacity="1"></path><path clip-path="url(#clip140)" d="M2030.26 45.1919 L2030.26 72.576 L2022.81 72.576 L2022.81 45.4349 Q2022.81 38.994 2020.3 35.7938 Q2017.79 32.5936 2012.76 32.5936 Q2006.73 32.5936 2003.24 36.4419 Q1999.76 40.2903 1999.76 46.9338 L1999.76 72.576 L1992.27 72.576 L1992.27 27.2059 L1999.76 27.2059 L1999.76 34.2544 Q2002.43 30.163 2006.04 28.1376 Q2009.68 26.1121 2014.42 26.1121 Q2022.24 26.1121 2026.25 30.9732 Q2030.26 35.7938 2030.26 45.1919 Z" fill="#000000" fill-rule="evenodd" fill-opacity="1"></path><path clip-path="url(#clip140)" d="M2074.98 49.3643 Q2074.98 41.2625 2071.62 36.8065 Q2068.3 32.3505 2062.26 32.3505 Q2056.27 32.3505 2052.91 36.8065 Q2049.59 41.2625 2049.59 49.3643 Q2049.59 57.4256 2052.91 61.8816 Q2056.27 66.3376 2062.26 66.3376 Q2068.3 66.3376 2071.62 61.8816 Q2074.98 57.4256 2074.98 49.3643 M2082.44 66.9452 Q2082.44 78.5308 2077.29 84.1616 Q2072.15 89.8329 2061.54 89.8329 Q2057.61 89.8329 2054.12 89.2252 Q2050.64 88.6581 2047.36 87.4428 L2047.36 80.1917 Q2050.64 81.9741 2053.84 82.8248 Q2057.04 83.6755 2060.36 83.6755 Q2067.69 83.6755 2071.34 79.8271 Q2074.98 76.0193 2074.98 68.282 L2074.98 64.5957 Q2072.68 68.6061 2069.07 70.5911 Q2065.46 72.576 2060.44 72.576 Q2052.1 72.576 2046.99 66.2161 Q2041.89 59.8562 2041.89 49.3643 Q2041.89 38.832 2046.99 32.472 Q2052.1 26.1121 2060.44 26.1121 Q2065.46 26.1121 2069.07 28.0971 Q2072.68 30.082 2074.98 34.0924 L2074.98 27.2059 L2082.44 27.2059 L2082.44 66.9452 Z" fill="#000000" fill-rule="evenodd" fill-opacity="1"></path><path clip-path="url(#clip140)" d="M2161.88 45.1919 L2161.88 72.576 L2154.42 72.576 L2154.42 45.4349 Q2154.42 38.994 2151.91 35.7938 Q2149.4 32.5936 2144.38 32.5936 Q2138.34 32.5936 2134.86 36.4419 Q2131.37 40.2903 2131.37 46.9338 L2131.37 72.576 L2123.88 72.576 L2123.88 27.2059 L2131.37 27.2059 L2131.37 34.2544 Q2134.05 30.163 2137.65 28.1376 Q2141.3 26.1121 2146.04 26.1121 Q2153.86 26.1121 2157.87 30.9732 Q2161.88 35.7938 2161.88 45.1919 Z" fill="#000000" fill-rule="evenodd" fill-opacity="1"></path><path clip-path="url(#clip140)" d="M2176.74 27.2059 L2184.2 27.2059 L2184.2 72.576 L2176.74 72.576 L2176.74 27.2059 M2176.74 9.54393 L2184.2 9.54393 L2184.2 18.9825 L2176.74 18.9825 L2176.74 9.54393 Z" fill="#000000" fill-rule="evenodd" fill-opacity="1"></path><circle clip-path="url(#clip142)" cx="338.375" cy="159.909" r="14" fill="#009af9" fill-rule="evenodd" fill-opacity="1" stroke="#000000" stroke-opacity="1" stroke-width="3.2"></circle>
<circle clip-path="url(#clip142)" cx="827.303" cy="1374.46" r="14" fill="#009af9" fill-rule="evenodd" fill-opacity="1" stroke="#000000" stroke-opacity="1" stroke-width="3.2"></circle>
<circle clip-path="url(#clip142)" cx="1316.23" cy="443.161" r="14" fill="#009af9" fill-rule="evenodd" fill-opacity="1" stroke="#000000" stroke-opacity="1" stroke-width="3.2"></circle>
<circle clip-path="url(#clip142)" cx="1805.16" cy="184.972" r="14" fill="#009af9" fill-rule="evenodd" fill-opacity="1" stroke="#000000" stroke-opacity="1" stroke-width="3.2"></circle>
<circle clip-path="url(#clip142)" cx="2294.08" cy="501.871" r="14" fill="#009af9" fill-rule="evenodd" fill-opacity="1" stroke="#000000" stroke-opacity="1" stroke-width="3.2"></circle>
</svg>